<?xml version="1.0" encoding="UTF-8"?>
<!--Generator: Apple Native CoreSVG 175.5-->
<!DOCTYPE svg
PUBLIC "-//W3C//DTD SVG 1.1//EN"
       "http://www.w3.org/Graphics/SVG/1.1/DTD/svg11.dtd">
<svg version="1.1" xmlns="http://www.w3.org/2000/svg" xmlns:xlink="http://www.w3.org/1999/xlink" width="3300" height="2200">
 <!--glyph: "sour", point size: 100.0, font version: "17.0d4e2", template writer version: "0"-->
 <g id="Notes">
  <rect height="2200" id="artboard" style="fill:white;opacity:1" width="3300" x="0" y="0"/>
  <line style="fill:none;stroke:black;opacity:1;stroke-width:0.5;" x1="263" x2="3036" y1="292" y2="292"/>
  <text style="stroke:none;fill:black;font-family:SF Pro,SF Pro Display,SF Pro Text,sans-serif;font-weight:bold;" transform="matrix(1 0 0 1 263 322)">Weight/Scale Variations</text>
  <text style="stroke:none;fill:black;font-family:SF Pro,SF Pro Display,SF Pro Text,sans-serif;text-anchor:middle;" transform="matrix(1 0 0 1 559.711 322)">Ultralight</text>
  <text style="stroke:none;fill:black;font-family:SF Pro,SF Pro Display,SF Pro Text,sans-serif;text-anchor:middle;" transform="matrix(1 0 0 1 856.422 322)">Thin</text>
  <text style="stroke:none;fill:black;font-family:SF Pro,SF Pro Display,SF Pro Text,sans-serif;text-anchor:middle;" transform="matrix(1 0 0 1 1153.13 322)">Light</text>
  <text style="stroke:none;fill:black;font-family:SF Pro,SF Pro Display,SF Pro Text,sans-serif;text-anchor:middle;" transform="matrix(1 0 0 1 1449.84 322)">Regular</text>
  <text style="stroke:none;fill:black;font-family:SF Pro,SF Pro Display,SF Pro Text,sans-serif;text-anchor:middle;" transform="matrix(1 0 0 1 1746.56 322)">Medium</text>
  <text style="stroke:none;fill:black;font-family:SF Pro,SF Pro Display,SF Pro Text,sans-serif;text-anchor:middle;" transform="matrix(1 0 0 1 2043.27 322)">Semibold</text>
  <text style="stroke:none;fill:black;font-family:SF Pro,SF Pro Display,SF Pro Text,sans-serif;text-anchor:middle;" transform="matrix(1 0 0 1 2339.98 322)">Bold</text>
  <text style="stroke:none;fill:black;font-family:SF Pro,SF Pro Display,SF Pro Text,sans-serif;text-anchor:middle;" transform="matrix(1 0 0 1 2636.69 322)">Heavy</text>
  <text style="stroke:none;fill:black;font-family:SF Pro,SF Pro Display,SF Pro Text,sans-serif;text-anchor:middle;" transform="matrix(1 0 0 1 2933.4 322)">Black</text>
  <line style="fill:none;stroke:black;opacity:1;stroke-width:0.5;" x1="263" x2="3036" y1="1903" y2="1903"/>
  <g transform="matrix(1 0 0 1 263 1933)">
   <path d="M9.24805 0.830078C13.5547 0.830078 17.1387-2.74414 17.1387-7.05078C17.1387-11.3574 13.5449-14.9316 9.23828-14.9316C4.94141-14.9316 1.36719-11.3574 1.36719-7.05078C1.36719-2.74414 4.95117 0.830078 9.24805 0.830078ZM9.24805-0.654297C5.70312-0.654297 2.87109-3.49609 2.87109-7.05078C2.87109-10.6055 5.69336-13.4473 9.23828-13.4473C12.793-13.4473 15.6348-10.6055 15.6445-7.05078C15.6543-3.49609 12.8027-0.654297 9.24805-0.654297ZM5.83984-7.04102C5.83984-6.61133 6.14258-6.31836 6.5918-6.31836L8.50586-6.31836L8.50586-4.39453C8.50586-3.95508 8.79883-3.65234 9.22852-3.65234C9.67773-3.65234 9.9707-3.95508 9.9707-4.39453L9.9707-6.31836L11.9043-6.31836C12.3438-6.31836 12.6465-6.61133 12.6465-7.04102C12.6465-7.48047 12.3438-7.7832 11.9043-7.7832L9.9707-7.7832L9.9707-9.69727C9.9707-10.1465 9.67773-10.4492 9.22852-10.4492C8.79883-10.4492 8.50586-10.1465 8.50586-9.69727L8.50586-7.7832L6.5918-7.7832C6.14258-7.7832 5.83984-7.48047 5.83984-7.04102Z"/>
  </g>
  <g transform="matrix(1 0 0 1 281.867 1933)">
   <path d="M11.709 2.91016C17.1582 2.91016 21.6699-1.61133 21.6699-7.05078C21.6699-12.5 17.1484-17.0117 11.6992-17.0117C6.25977-17.0117 1.74805-12.5 1.74805-7.05078C1.74805-1.61133 6.26953 2.91016 11.709 2.91016ZM11.709 1.25C7.09961 1.25 3.41797-2.44141 3.41797-7.05078C3.41797-11.6602 7.08984-15.3516 11.6992-15.3516C16.3086-15.3516 20-11.6602 20.0098-7.05078C20.0195-2.44141 16.3184 1.25 11.709 1.25ZM7.39258-7.04102C7.39258-6.5625 7.73438-6.24023 8.23242-6.24023L10.8789-6.24023L10.8789-3.57422C10.8789-3.08594 11.2109-2.75391 11.6895-2.75391C12.1777-2.75391 12.5195-3.08594 12.5195-3.57422L12.5195-6.24023L15.1758-6.24023C15.6641-6.24023 16.0059-6.5625 16.0059-7.04102C16.0059-7.5293 15.6641-7.87109 15.1758-7.87109L12.5195-7.87109L12.5195-10.5176C12.5195-11.0254 12.1777-11.3574 11.6895-11.3574C11.2109-11.3574 10.8789-11.0156 10.8789-10.5176L10.8789-7.87109L8.23242-7.87109C7.73438-7.87109 7.39258-7.5293 7.39258-7.04102Z"/>
  </g>
  <g transform="matrix(1 0 0 1 305.646 1933)">
   <path d="M14.9707 5.66406C21.9336 5.66406 27.6953-0.0976562 27.6953-7.05078C27.6953-14.0137 21.9238-19.7754 14.9609-19.7754C8.00781-19.7754 2.25586-14.0137 2.25586-7.05078C2.25586-0.0976562 8.01758 5.66406 14.9707 5.66406ZM14.9707 3.84766C8.93555 3.84766 4.08203-1.01562 4.08203-7.05078C4.08203-13.0957 8.92578-17.9492 14.9609-17.9492C21.0059-17.9492 25.8594-13.0957 25.8691-7.05078C25.8789-1.01562 21.0156 3.84766 14.9707 3.84766ZM9.45312-7.04102C9.45312-6.52344 9.83398-6.16211 10.3711-6.16211L14.0625-6.16211L14.0625-2.46094C14.0625-1.93359 14.4336-1.55273 14.9512-1.55273C15.4883-1.55273 15.8594-1.92383 15.8594-2.46094L15.8594-6.16211L19.5605-6.16211C20.0879-6.16211 20.4688-6.52344 20.4688-7.04102C20.4688-7.57812 20.0977-7.95898 19.5605-7.95898L15.8594-7.95898L15.8594-11.6504C15.8594-12.1973 15.4883-12.5684 14.9512-12.5684C14.4336-12.5684 14.0625-12.1875 14.0625-11.6504L14.0625-7.95898L10.3711-7.95898C9.82422-7.95898 9.45312-7.57812 9.45312-7.04102Z"/>
  </g>
  <text style="stroke:none;fill:black;font-family:SF Pro,SF Pro Display,SF Pro Text,sans-serif;font-weight:bold;" transform="matrix(1 0 0 1 263 1953)">Design Variations</text>
  <text style="stroke:none;fill:black;font-family:SF Pro,SF Pro Display,SF Pro Text,sans-serif;" transform="matrix(1 0 0 1 263 1971)">Symbols are supported in up to nine weights and three scales.</text>
  <text style="stroke:none;fill:black;font-family:SF Pro,SF Pro Display,SF Pro Text,sans-serif;" transform="matrix(1 0 0 1 263 1989)">For optimal layout with text and other symbols, vertically align</text>
  <text style="stroke:none;fill:black;font-family:SF Pro,SF Pro Display,SF Pro Text,sans-serif;" transform="matrix(1 0 0 1 263 2007)">symbols with the adjacent text.</text>
  <line style="fill:none;stroke:#00AEEF;stroke-width:0.5;opacity:1.0;" x1="776" x2="776" y1="1919" y2="1933"/>
  <g transform="matrix(1 0 0 1 776 1933)">
   <path d="M3.31055 0.15625C3.82812 0.15625 4.08203-0.0390625 4.26758-0.585938L5.52734-4.0332L11.2891-4.0332L12.5488-0.585938C12.7344-0.0390625 12.9883 0.15625 13.4961 0.15625C14.0137 0.15625 14.3457-0.15625 14.3457-0.644531C14.3457-0.810547 14.3164-0.966797 14.2383-1.17188L9.6582-13.3691C9.43359-13.9648 9.0332-14.2676 8.4082-14.2676C7.80273-14.2676 7.39258-13.9746 7.17773-13.3789L2.59766-1.16211C2.51953-0.957031 2.49023-0.800781 2.49023-0.634766C2.49023-0.146484 2.80273 0.15625 3.31055 0.15625ZM6.00586-5.51758L8.37891-12.0898L8.42773-12.0898L10.8008-5.51758Z"/>
  </g>
  <line style="fill:none;stroke:#00AEEF;stroke-width:0.5;opacity:1.0;" x1="793.197" x2="793.197" y1="1919" y2="1933"/>
  <text style="stroke:none;fill:black;font-family:SF Pro,SF Pro Display,SF Pro Text,sans-serif;font-weight:bold;" transform="matrix(1 0 0 1 776 1953)">Margins</text>
  <text style="stroke:none;fill:black;font-family:SF Pro,SF Pro Display,SF Pro Text,sans-serif;" transform="matrix(1 0 0 1 776 1971)">Leading and trailing margins on the left and right side of each symbol</text>
  <text style="stroke:none;fill:black;font-family:SF Pro,SF Pro Display,SF Pro Text,sans-serif;" transform="matrix(1 0 0 1 776 1989)">can be adjusted by modifying the x-location of the margin guidelines.</text>
  <text style="stroke:none;fill:black;font-family:SF Pro,SF Pro Display,SF Pro Text,sans-serif;" transform="matrix(1 0 0 1 776 2007)">Modifications are automatically applied proportionally to all</text>
  <text style="stroke:none;fill:black;font-family:SF Pro,SF Pro Display,SF Pro Text,sans-serif;" transform="matrix(1 0 0 1 776 2025)">scales and weights.</text>
  <g transform="matrix(1 0 0 1 1289 1933)">
   <path d="M2.8418 1.86523L4.54102 3.57422C5.40039 4.44336 6.38672 4.38477 7.31445 3.35938L18.0078-8.42773L17.041-9.4043L6.42578 2.27539C6.07422 2.67578 5.74219 2.77344 5.27344 2.30469L4.10156 1.14258C3.63281 0.683594 3.74023 0.341797 4.14062-0.0195312L15.6152-10.8203L14.6387-11.7871L3.04688-0.898438C2.06055 0.0195312 1.98242 0.996094 2.8418 1.86523ZM9.25781-16.3281C8.83789-15.918 8.80859-15.3418 9.04297-14.9512C9.27734-14.5898 9.73633-14.3555 10.3809-14.5215C11.8457-14.8633 13.3691-14.9219 14.7949-13.9844L14.209-12.5293C13.8672-11.6992 14.043-11.1133 14.5801-10.5664L16.875-8.25195C17.3633-7.76367 17.7734-7.74414 18.3398-7.8418L19.4043-8.03711L20.0684-7.36328L20.0293-6.80664C19.9902-6.30859 20.1172-5.92773 20.6055-5.44922L21.3672-4.70703C21.8457-4.22852 22.4609-4.19922 22.9297-4.66797L25.8398-7.58789C26.3086-8.05664 26.2891-8.65234 25.8105-9.13086L25.0391-9.89258C24.5605-10.3711 24.1895-10.5273 23.7109-10.4883L23.1348-10.4395L22.4902-11.0742L22.7344-12.1973C22.8613-12.7637 22.7051-13.2031 22.1191-13.7891L19.9219-15.9766C16.582-19.2969 12.1484-19.2188 9.25781-16.3281ZM10.752-15.957C13.1836-17.7344 16.4746-17.4316 18.7012-15.2051L21.1328-12.793C21.3672-12.5586 21.4062-12.373 21.3379-12.0312L21.0156-10.5469L22.5195-9.0625L23.5059-9.12109C23.7598-9.13086 23.8379-9.11133 24.0332-8.91602L24.6094-8.33984L22.168-5.89844L21.5918-6.47461C21.3965-6.66992 21.3672-6.74805 21.377-7.01172L21.4453-7.98828L19.9512-9.47266L18.4277-9.21875C18.1055-9.15039 17.959-9.17969 17.7148-9.41406L15.7129-11.416C15.459-11.6504 15.4297-11.8164 15.5859-12.1875L16.4648-14.2773C14.9023-15.7324 12.8711-16.3574 10.8398-15.7617C10.6836-15.7227 10.625-15.8496 10.752-15.957Z"/>
  </g>
  <text style="stroke:none;fill:black;font-family:SF Pro,SF Pro Display,SF Pro Text,sans-serif;font-weight:bold;" transform="matrix(1 0 0 1 1289 1953)">Exporting</text>
  <text style="stroke:none;fill:black;font-family:SF Pro,SF Pro Display,SF Pro Text,sans-serif;" transform="matrix(1 0 0 1 1289 1971)">Symbols should be outlined when exporting to ensure the</text>
  <text style="stroke:none;fill:black;font-family:SF Pro,SF Pro Display,SF Pro Text,sans-serif;" transform="matrix(1 0 0 1 1289 1989)">design is preserved when submitting to Xcode.</text>
  <text id="template-version" style="stroke:none;fill:black;font-family:SF Pro,SF Pro Display,SF Pro Text,sans-serif;text-anchor:end;" transform="matrix(1 0 0 1 3036 1933)">Template v.2.0</text>
  <text style="stroke:none;fill:black;font-family:SF Pro,SF Pro Display,SF Pro Text,sans-serif;text-anchor:end;" transform="matrix(1 0 0 1 3036 1951)">Requires Xcode 13 or greater</text>
  <text id="descriptive-name" style="stroke:none;fill:black;font-family:SF Pro,SF Pro Display,SF Pro Text,sans-serif;text-anchor:end;" transform="matrix(1 0 0 1 3036 1969)">Generated from sour</text>
  <text style="stroke:none;fill:black;font-family:SF Pro,SF Pro Display,SF Pro Text,sans-serif;text-anchor:end;" transform="matrix(1 0 0 1 3036 1987)">Typeset at 100 points</text>
  <text style="stroke:none;fill:black;font-family:SF Pro,SF Pro Display,SF Pro Text,sans-serif;" transform="matrix(1 0 0 1 263 726)">Small</text>
  <text style="stroke:none;fill:black;font-family:SF Pro,SF Pro Display,SF Pro Text,sans-serif;" transform="matrix(1 0 0 1 263 1156)">Medium</text>
  <text style="stroke:none;fill:black;font-family:SF Pro,SF Pro Display,SF Pro Text,sans-serif;" transform="matrix(1 0 0 1 263 1586)">Large</text>
 </g>
 <g id="Guides">
  <g id="H-reference" style="fill:#27AAE1;stroke:none;" transform="matrix(1 0 0 1 339 696)">
   <path d="M0.993654 0L3.63775 0L29.3281-67.1323L30.0303-67.1323L30.0303-70.459L28.1226-70.459ZM11.6885-24.4799L46.9815-24.4799L46.2315-26.7285L12.4385-26.7285ZM55.1196 0L57.7637 0L30.6382-70.459L29.4326-70.459L29.4326-67.1323Z"/>
  </g>
  <line id="Baseline-S" style="fill:none;stroke:#27AAE1;opacity:1;stroke-width:0.5;" x1="263" x2="3036" y1="696" y2="696"/>
  <line id="Capline-S" style="fill:none;stroke:#27AAE1;opacity:1;stroke-width:0.5;" x1="263" x2="3036" y1="625.541" y2="625.541"/>
  <g id="H-reference" style="fill:#27AAE1;stroke:none;" transform="matrix(1 0 0 1 339 1126)">
   <path d="M0.993654 0L3.63775 0L29.3281-67.1323L30.0303-67.1323L30.0303-70.459L28.1226-70.459ZM11.6885-24.4799L46.9815-24.4799L46.2315-26.7285L12.4385-26.7285ZM55.1196 0L57.7637 0L30.6382-70.459L29.4326-70.459L29.4326-67.1323Z"/>
  </g>
  <line id="Baseline-M" style="fill:none;stroke:#27AAE1;opacity:1;stroke-width:0.5;" x1="263" x2="3036" y1="1126" y2="1126"/>
  <line id="Capline-M" style="fill:none;stroke:#27AAE1;opacity:1;stroke-width:0.5;" x1="263" x2="3036" y1="1055.54" y2="1055.54"/>
  <g id="H-reference" style="fill:#27AAE1;stroke:none;" transform="matrix(1 0 0 1 339 1556)">
   <path d="M0.993654 0L3.63775 0L29.3281-67.1323L30.0303-67.1323L30.0303-70.459L28.1226-70.459ZM11.6885-24.4799L46.9815-24.4799L46.2315-26.7285L12.4385-26.7285ZM55.1196 0L57.7637 0L30.6382-70.459L29.4326-70.459L29.4326-67.1323Z"/>
  </g>
  <line id="Baseline-L" style="fill:none;stroke:#27AAE1;opacity:1;stroke-width:0.5;" x1="263" x2="3036" y1="1556" y2="1556"/>
  <line id="Capline-L" style="fill:none;stroke:#27AAE1;opacity:1;stroke-width:0.5;" x1="263" x2="3036" y1="1485.54" y2="1485.54"/>
  <line id="left-margin" style="fill:none;stroke:#00AEEF;stroke-width:0.5;opacity:1.0;" x1="1383.18" x2="1383.18" y1="1030.79" y2="1150.12"/>
  <line id="right-margin" style="fill:none;stroke:#00AEEF;stroke-width:0.5;opacity:1.0;" x1="1516.51" x2="1516.51" y1="1030.79" y2="1150.12"/>
 </g>
 <g id="Symbols">
  <g id="Black-L" transform="matrix(1 0 0 1 2846.34 1556)">
   <path d="M87.0355 18.4217Q66.4776 18.4217 49.0705 8.3108Q31.6634-1.8001 21.4611-19.0353Q11.2588-36.2706 11.2588-56.77Q11.2588-63.245 11.8395-67.4208Q12.4202-71.5966 13.3479-74.8642L13.7204-75.8867Q15.7875-82.2736 18.9522-85.6466Q22.1169-89.0195 26.8532-89.0195L147.218-89.0195Q152.012-89.0195 155.247-85.8984Q158.481-82.7773 160.292-76.8356L160.584-75.9375Q161.585-72.4754 162.228-67.9664Q162.871-63.4575 162.871-56.2875Q162.871-35.8905 152.599-18.7357Q142.327-1.58085 124.902 8.42042Q107.477 18.4217 87.0355 18.4217ZM87.0355-1.64974Q102.121-1.64974 114.614-8.60784Q127.108-15.5659 134.428-27.8767Q141.748-40.1874 141.806-55.5579Q141.865-61.6577 141.572-66.102Q141.28-70.5462 140.98-73.3016L140.9-74.1566Q140.9-75.9757 143.051-74.6132Q145.202-73.2508 146.565-71.0994Q147.927-68.9481 146.05-68.9481L28.0213-68.9481Q26.1438-68.9481 27.5062-71.0994Q28.8686-73.2508 31.0492-74.6132Q33.2298-75.9757 33.2298-74.1566L33.1493-73.3016Q32.8497-70.8018 32.5864-66.27Q32.3231-61.7382 32.3231-55.5579Q32.3231-40.6115 39.4019-28.2606Q46.4806-15.9096 58.9924-8.77968Q71.5041-1.64974 87.0355-1.64974ZM70.3293-56.3972Q70.6002-56.6681 70.6184-56.9831Q70.6366-57.298 70.4169-57.4995Q70.1972-57.701 69.8238-57.701L44.4449-57.701Q43.8083-57.701 43.4057-57.3167Q43.0032-56.9323 43.0252-56.3177Q43.749-46.2634 50.5492-38.3814Q50.9369-37.9276 51.3983-37.9276Q51.8597-37.9276 52.2914-38.3594L70.3293-56.3972ZM78.5905-17.6888Q79.3439-17.6668 79.7173-17.9999Q80.0906-18.3331 80.0906-18.9697L80.0906-44.407Q80.0906-44.8024 79.8891-45.0221Q79.6876-45.2418 79.3545-45.2236Q79.0214-45.2054 78.7505-44.9345L60.771-27.0134Q60.2588-26.5233 60.2699-26.0437Q60.2809-25.5641 60.793-25.0155Q68.5362-18.2958 78.5905-17.6888ZM95.6633-17.6888Q105.754-18.3542 113.38-25.0155Q113.893-25.5057 113.922-26.0145Q113.951-26.5233 113.483-27.0134L95.5034-44.9345Q95.2325-45.2054 94.9175-45.2236Q94.6026-45.2418 94.4011-45.0221Q94.1996-44.8024 94.1996-44.407L94.1996-18.9697Q94.1996-18.3331 94.5839-17.9999Q94.9683-17.6668 95.6633-17.6888ZM121.78-38.3594Q122.211-37.9276 122.702-37.9679Q123.192-38.0081 123.602-38.4618Q130.322-46.3219 131.046-56.3177Q131.068-56.9543 130.694-57.3277Q130.321-57.701 129.765-57.701L104.35-57.701Q103.896-57.701 103.636-57.4995Q103.376-57.298 103.394-57.0123Q103.412-56.7266 103.742-56.4777L121.78-38.3594Z"/>
  </g>
  <g id="Heavy-L" transform="matrix(1 0 0 1 2549.94 1556)">
   <path d="M86.7293 16.3678Q66.2916 16.3678 48.956 6.29629Q31.6204-3.7752 21.4469-20.9357Q11.2734-38.0963 11.2588-58.4893Q11.2588-64.1344 11.7352-67.6913Q12.2117-71.2482 12.9788-74.198L13.275-75.0332Q14.9592-80.7546 17.8886-83.8569Q20.8179-86.9591 25.2083-86.9591L148.25-86.9591Q152.693-86.9591 155.681-84.0435Q158.669-81.1278 160.146-75.7275L160.369-75.0223Q161.169-72.1774 161.707-68.2633Q162.244-64.3491 162.244-58.0068Q162.222-37.73 151.986-20.6498Q141.75-3.56974 124.41 6.39902Q107.07 16.3678 86.7293 16.3678ZM86.7293-0.98678Q102.407-0.98678 115.517-8.3323Q128.628-15.6778 136.343-28.5991Q144.057-41.5203 144.124-57.5253Q144.176-62.585 143.906-66.5583Q143.636-70.5316 143.372-72.9735L143.299-73.723Q143.299-75.2923 145.051-74.2042Q146.803-73.1161 147.887-71.3603Q148.972-69.6046 147.358-69.6046L26.1008-69.6046Q24.4941-69.6046 25.5786-71.3603Q26.663-73.1161 28.4374-74.2042Q30.2118-75.2923 30.2118-73.723L30.1387-72.9735Q29.8748-70.7386 29.627-66.702Q29.3793-62.6654 29.3793-57.5253Q29.4012-41.9656 36.871-29.0041Q44.3408-16.0426 57.4558-8.5147Q70.5708-0.98678 86.7293-0.98678ZM70.4855-56.7735Q70.8619-57.1499 70.87-57.6089Q70.878-58.0679 70.5597-58.3818Q70.2414-58.6957 69.7268-58.6957L42.0062-58.6957Q41.1999-58.6957 40.6776-58.1706Q40.1553-57.6454 40.1984-56.8749Q40.9661-45.7707 48.4506-37.1515Q48.9309-36.5638 49.5997-36.5601Q50.2684-36.5565 50.8203-37.1011L70.4855-56.7735ZM78.3669-15.917Q79.2551-15.8739 79.7624-16.341Q80.2697-16.8081 80.2697-17.6144L80.2697-45.3723Q80.2697-45.9154 79.9595-46.2337Q79.6492-46.552 79.1785-46.5476Q78.7078-46.5432 78.3313-46.1668L58.7181-26.5836Q58.0931-25.9944 58.1074-25.3175Q58.1216-24.6407 58.7539-23.9995Q67.2481-16.6028 78.3669-15.917ZM95.2737-15.917Q106.409-16.6548 114.806-23.9995Q115.439-24.596 115.465-25.2952Q115.49-25.9944 114.922-26.5836L95.3019-46.1668Q94.9255-46.5432 94.4665-46.5476Q94.0075-46.552 93.6936-46.2337Q93.3797-45.9154 93.3797-45.3723L93.3797-17.6144Q93.3797-16.8081 93.9049-16.341Q94.4301-15.8739 95.2737-15.917ZM122.631-37.1011Q123.183-36.5565 123.874-36.5967Q124.565-36.6369 125.074-37.2246Q132.47-45.8007 133.253-56.8749Q133.296-57.6738 132.792-58.1848Q132.289-58.6957 131.556-58.6957L103.826-58.6957Q103.238-58.6957 102.883-58.3818Q102.529-58.0679 102.533-57.6312Q102.537-57.1945 102.958-56.8466L122.631-37.1011Z"/>
  </g>
  <g id="Bold-L" transform="matrix(1 0 0 1 2253.58 1556)">
   <path d="M86.3868 14.0702Q66.0835 14.0702 48.8278 4.04278Q31.5722-5.98464 21.431-23.0616Q11.2898-40.1385 11.2588-60.4126Q11.2588-65.1293 11.6186-67.9939Q11.9785-70.8585 12.5659-73.4527L12.7768-74.0783Q14.0327-79.0554 16.6987-81.8549Q19.3647-84.6543 23.3683-84.6543L149.405-84.6543Q153.453-84.6543 156.167-81.9684Q158.88-79.2825 159.983-74.4879L160.129-73.9986Q160.703-71.8442 161.124-68.5953Q161.544-65.3465 161.544-59.9301Q161.497-39.7877 151.301-22.7911Q141.105-5.7946 123.861 4.1378Q106.616 14.0702 86.3868 14.0702ZM86.3868-0.245164Q102.727-0.245164 116.527-8.02408Q130.328-15.803 138.485-29.4072Q146.641-43.0115 146.717-59.7261Q146.761-63.6222 146.516-67.0688Q146.271-70.5154 146.047-72.6065L145.982-73.2379Q145.982-74.5278 147.288-73.7466Q148.593-72.9654 149.367-71.6522Q150.14-70.339 148.821-70.339L23.9524-70.339Q22.6488-70.339 23.4223-71.6522Q24.1957-72.9654 25.5158-73.7466Q26.8358-74.5278 26.8358-73.2379L26.7709-72.6065Q26.547-70.6679 26.3166-67.1853Q26.0861-63.7026 26.0861-59.7261Q26.1326-43.4803 34.0399-29.8358Q41.9472-16.1914 55.737-8.21828Q69.5268-0.245164 86.3868-0.245164ZM70.6602-57.1944Q71.1546-57.6889 71.1514-58.309Q71.1481-58.9292 70.7195-59.3688Q70.2908-59.8085 69.6182-59.8085L39.2781-59.8085Q38.282-59.8085 37.6258-59.1258Q36.9696-58.443 37.0363-57.4981Q37.8531-45.2196 46.103-35.7757Q46.6869-35.0381 47.5876-35.0304Q48.4884-35.0226 49.1747-35.6934L70.6602-57.1944ZM78.1168-13.9351Q79.1558-13.8683 79.8129-14.4852Q80.4701-15.1022 80.4701-16.0983L80.4701-46.4521Q80.4701-47.1604 80.0382-47.5891Q79.6063-48.0177 78.9816-48.0287Q78.3569-48.0397 77.8625-47.5453L56.4217-26.1027Q55.6705-25.4027 55.6883-24.5052Q55.7062-23.6077 56.4729-22.863Q65.8072-14.709 78.1168-13.9351ZM94.8378-13.9351Q107.141-14.7537 116.401-22.863Q117.168-23.5785 117.19-24.4906Q117.213-25.4027 116.533-26.1027L95.0766-47.5453Q94.5821-48.0397 93.962-48.0287Q93.3418-48.0177 92.9022-47.5891Q92.4625-47.1604 92.4625-46.4521L92.4625-16.0983Q92.4625-15.1022 93.1452-14.4852Q93.8279-13.8683 94.8378-13.9351ZM123.583-35.6934Q124.27-35.0226 125.185-35.0628Q126.1-35.103 126.72-35.8406Q134.874-45.2178 135.722-57.4981Q135.788-58.4787 135.139-59.1436Q134.49-59.8085 133.559-59.8085L103.24-59.8085Q102.503-59.8085 102.042-59.3688Q101.581-58.9292 101.57-58.3236Q101.559-57.7181 102.082-57.2593L123.583-35.6934Z"/>
  </g>
  <g id="Semibold-L" transform="matrix(1 0 0 1 1957.11 1556)">
   <path d="M86.1506 12.4862Q65.94 12.4862 48.7395 2.48922Q31.539-7.50781 21.42-24.5271Q11.3011-41.5465 11.2588-61.7385Q11.2588-65.8152 11.5383-68.2025Q11.8177-70.5898 12.2812-72.939L12.4334-73.4201Q13.3939-77.884 15.8784-80.4747Q18.363-83.0654 22.0998-83.0654L150.201-83.0654Q153.978-83.0654 156.501-80.5379Q159.025-78.0105 159.87-73.6333L159.963-73.2928Q160.383-71.6144 160.722-68.8242Q161.061-66.034 161.061-61.256Q160.998-41.2062 150.829-24.2673Q140.661-7.3284 123.482 2.57892Q106.303 12.4862 86.1506 12.4862ZM86.1506 0.266102Q102.947 0.266102 117.224-7.81159Q131.501-15.8893 139.961-29.9643Q148.422-44.0394 148.504-61.2433Q148.544-64.3373 148.316-67.4207Q148.088-70.5041 147.892-72.3535L147.833-72.9036Q147.833-74.0008 148.83-73.4311Q149.828-72.8615 150.387-71.8534Q150.946-70.8452 149.83-70.8452L22.4713-70.8452Q21.3767-70.8452 21.9357-71.8534Q22.4947-72.8615 23.5016-73.4311Q24.5085-74.0008 24.5085-72.9036L24.4492-72.3535Q24.2528-70.6191 24.0343-67.5184Q23.8158-64.4177 23.8158-61.2433Q23.8793-44.5245 32.0882-30.4092Q40.2971-16.294 54.552-8.01393Q68.807 0.266102 86.1506 0.266102ZM70.7806-57.4846Q71.3565-58.0604 71.3454-58.7917Q71.3343-59.5229 70.8296-60.0493Q70.3249-60.5756 69.5434-60.5756L37.3974-60.5756Q36.2704-60.5756 35.5219-59.7843Q34.7733-58.9929 34.8563-57.9278Q35.707-44.8396 44.4846-34.8272Q45.1399-33.9863 46.2006-33.9758Q47.2612-33.9652 48.0402-34.723L70.7806-57.4846ZM77.9444-12.5687Q79.0874-12.4857 79.8478-13.2059Q80.6082-13.9261 80.6082-15.0531L80.6082-47.1965Q80.6082-48.0188 80.0924-48.5235Q79.5766-49.0282 78.8459-49.0498Q78.1151-49.0714 77.5392-48.4956L54.8386-25.7712Q54.0003-24.9948 54.0207-23.9452Q54.041-22.8955 54.9004-22.0794Q64.8139-13.4034 77.9444-12.5687ZM94.5373-12.5687Q107.646-13.4431 117.501-22.0794Q118.36-22.877 118.38-23.9359Q118.4-24.9948 117.643-25.7712L94.9212-48.4956Q94.3454-49.0714 93.6141-49.0498Q92.8829-49.0282 92.3565-48.5235Q91.8302-48.0188 91.8302-47.1965L91.8302-15.0531Q91.8302-13.9261 92.6215-13.2059Q93.4129-12.4857 94.5373-12.5687ZM124.24-34.723Q125.019-33.9652 126.089-34.0054Q127.159-34.0456 127.855-34.8864Q136.531-44.8159 137.424-57.9278Q137.507-59.0336 136.757-59.8046Q136.007-60.5756 134.939-60.5756L102.837-60.5756Q101.996-60.5756 101.462-60.0493Q100.927-59.5229 100.906-58.8009Q100.884-58.079 101.478-57.5438L124.24-34.723Z"/>
  </g>
  <g id="Medium-L" transform="matrix(1 0 0 1 1660.58 1556)">
   <path d="M85.9716 11.2852Q65.8312 11.2852 48.6725 1.31124Q31.5138-8.66275 21.4117-25.6384Q11.3097-42.614 11.2588-62.7439Q11.2588-66.3353 11.4773-68.3607Q11.6958-70.3861 12.0654-72.5494L12.1729-72.921Q12.9096-76.9958 15.2565-79.4282Q17.6034-81.8606 21.138-81.8606L150.805-81.8606Q154.376-81.8606 156.755-79.4532Q159.135-77.0459 159.785-72.9853L159.838-72.7577Q160.139-71.4402 160.417-68.9978Q160.695-66.5554 160.695-62.2613Q160.619-42.2818 150.471-25.3866Q140.324-8.49139 123.194 1.39692Q106.065 11.2852 85.9716 11.2852ZM85.9716 0.653765Q103.115 0.653765 117.752-7.65047Q132.389-15.9547 141.081-30.3868Q149.772-44.8189 149.859-62.3938Q149.895-64.8795 149.681-67.6876Q149.466-70.4956 149.29-72.1617L149.235-72.65Q149.235-73.6011 149.999-73.192Q150.764-72.7828 151.16-72.0059Q151.557-71.2291 150.595-71.2291L21.3482-71.2291Q20.4121-71.2291 20.8085-72.0059Q21.205-72.7828 21.9744-73.192Q22.7437-73.6011 22.7437-72.65L22.6888-72.1617Q22.5133-70.5822 22.3038-67.771Q22.0944-64.9599 22.0944-62.3938Q22.1707-45.3163 30.6083-30.844Q39.0459-16.3717 53.6536-7.85898Q68.2613 0.653765 85.9716 0.653765ZM70.872-57.7046Q71.5095-58.3421 71.4925-59.1576Q71.4755-59.9731 70.9132-60.5652Q70.3508-61.1573 69.4866-61.1573L35.9713-61.1573Q34.7451-61.1573 33.9266-60.2836Q33.108-59.4099 33.2034-58.2536Q34.0798-44.5515 43.2574-34.108Q43.9669-33.1888 45.1488-33.1761Q46.3308-33.1634 47.18-33.9872L70.872-57.7046ZM77.8136-11.5327Q79.0354-11.4373 79.8742-12.2359Q80.7129-13.0344 80.7129-14.2606L80.7129-47.7609Q80.7129-48.6696 80.1335-49.2319Q79.5542-49.7943 78.7429-49.824Q77.9317-49.8537 77.2942-49.2162L53.6382-25.5198Q52.7339-24.6855 52.7562-23.5205Q52.7784-22.3556 53.7081-21.4853Q64.0607-12.4135 77.8136-11.5327ZM94.3094-11.5327Q108.028-12.4494 118.335-21.4853Q119.264-22.3451 119.282-23.5153Q119.3-24.6855 118.485-25.5198L94.8034-49.2162Q94.1659-49.8537 93.3504-49.824Q92.5349-49.7943 91.9428-49.2319Q91.3508-48.6696 91.3508-47.7609L91.3508-14.2606Q91.3508-13.0344 92.2244-12.2359Q93.0981-11.4373 94.3094-11.5327ZM124.738-33.9872Q125.587-33.1634 126.774-33.2036Q127.961-33.2438 128.715-34.163Q137.787-44.5111 138.714-58.2536Q138.81-59.4544 137.984-60.3058Q137.158-61.1573 135.986-61.1573L102.531-61.1573Q101.611-61.1573 101.022-60.5652Q100.432-59.9731 100.402-59.1629Q100.372-58.3526 101.02-57.7596L124.738-33.9872Z"/>
  </g>
  <g id="Regular-L" transform="matrix(1 0 0 1 1364.11 1556)">
   <path d="M85.738 9.71869Q65.6893 9.71869 48.5852-0.225247Q31.481-10.1692 21.4009-27.0878Q11.3208-44.0065 11.2588-64.0552Q11.2588-67.0136 11.3978-68.567Q11.5368-70.1203 11.7838-72.0413L11.8332-72.2699Q12.2779-75.8372 14.4452-78.0632Q16.6126-80.2891 19.8834-80.2891L151.593-80.2891Q154.895-80.2891 157.087-78.0385Q159.279-75.7878 159.674-72.1401L159.674-72.0597Q159.822-71.213 160.02-69.2242Q160.217-67.2354 160.217-63.5727Q160.124-43.6848 150.004-26.8466Q139.884-10.0083 122.82-0.144827Q105.756 9.71869 85.738 9.71869ZM85.738 1.15941Q103.333 1.15941 118.441-7.44032Q133.549-16.04 142.541-30.9378Q151.534-45.8355 151.627-63.8943Q151.658-65.5867 151.46-68.0356Q151.263-70.4845 151.115-71.9115L151.065-72.3193Q151.065-73.0799 151.525-72.88Q151.984-72.68 152.169-72.2049Q152.353-71.7298 151.593-71.7298L19.8834-71.7298Q19.1539-71.7298 19.3383-72.2049Q19.5228-72.68 19.9823-72.88Q20.4419-73.0799 20.4419-72.3193L20.3925-71.9115Q20.2443-70.5339 20.0467-68.1005Q19.8491-65.6671 19.8491-63.8943Q19.9421-46.3491 28.678-31.4111Q37.4139-16.4732 52.4816-7.65687Q67.5494 1.15941 85.738 1.15941ZM70.9911-57.9916Q71.7091-58.7096 71.6844-59.635Q71.6597-60.5603 71.0221-61.2382Q70.3845-61.916 69.4126-61.916L34.1113-61.916Q32.7557-61.916 31.8458-60.9349Q30.9359-59.9538 31.0474-58.6786Q31.9572-44.1757 41.6568-33.1699Q42.4369-32.1486 43.777-32.1331Q45.1171-32.1176 46.058-33.0275L70.9911-57.9916ZM77.6431-10.1813Q78.9677-10.0699 79.9086-10.9706Q80.8495-11.8713 80.8495-13.2269L80.8495-48.4971Q80.8495-49.5185 80.1872-50.1561Q79.5249-50.7937 78.6087-50.8339Q77.6925-50.8741 76.9745-50.1561L52.0724-25.192Q51.0821-24.2821 51.1068-22.9667Q51.1315-21.6513 52.1528-20.7104Q63.0782-11.1222 77.6431-10.1813ZM94.0122-10.1813Q108.528-11.1532 119.422-20.7104Q120.443-21.6513 120.459-22.9667Q120.474-24.2821 119.583-25.192L94.6498-50.1561Q93.9318-50.8741 93.0064-50.8339Q92.081-50.7937 91.4032-50.1561Q90.7254-49.5185 90.7254-48.4971L90.7254-13.2269Q90.7254-11.8713 91.7065-10.9706Q92.6876-10.0699 94.0122-10.1813ZM125.387-33.0275Q126.328-32.1176 127.668-32.1578Q129.008-32.198 129.838-33.2193Q139.426-44.1137 140.398-58.6786Q140.509-60.0032 139.584-60.9596Q138.658-61.916 137.352-61.916L102.131-61.916Q101.11-61.916 100.448-61.2382Q99.7854-60.5603 99.7452-59.635Q99.705-58.7096 100.423-58.041L125.387-33.0275Z"/>
  </g>
  <g id="Light-L" transform="matrix(1 0 0 1 1067.82 1556)">
   <path d="M85.3129 7.63014Q65.3936 7.63014 48.4003-2.24911Q31.407-12.1283 21.3824-28.9453Q11.3578-45.7623 11.2588-65.6817Q11.2588-67.6236 11.3608-68.6409Q11.4629-69.6583 11.6175-70.9508L11.6484-71.124Q11.9267-74.2292 13.9-76.2241Q15.8733-78.219 18.7929-78.219L151.833-78.219Q154.802-78.219 156.791-76.2087Q158.78-74.1983 159.027-71.0127L159.027-70.9323Q159.12-70.2519 159.243-68.9469Q159.367-67.642 159.367-65.1991Q159.219-45.4406 149.154-28.7041Q139.089-11.9675 122.136-2.16869Q105.183 7.63014 85.3129 7.63014ZM85.3129 0.919137Q103.185 0.919137 118.598-7.89314Q134.011-16.7054 143.234-31.9266Q152.458-47.1478 152.607-65.5208Q152.656-66.6402 152.532-68.2482Q152.409-69.8561 152.316-70.8395L152.285-71.1549Q152.285-71.8416 152.467-71.8819Q152.65-71.9222 152.585-71.7151Q152.52-71.508 151.833-71.508L18.7929-71.508Q18.1558-71.508 18.0907-71.7151Q18.0257-71.9222 18.208-71.8819Q18.3903-71.8416 18.3903-71.1549L18.3594-70.8395Q18.2667-69.887 18.143-68.3038Q18.0193-66.7206 18.0193-65.5208Q18.1678-47.6798 27.1254-32.4184Q36.0831-17.157 51.4558-8.11894Q66.8286 0.919137 85.3129 0.919137ZM72.0816-59.3593Q72.892-60.1697 72.8765-61.2152Q72.8611-62.2608 72.1311-63.031Q71.4011-63.8012 70.2813-63.8012L30.2854-63.8012Q28.7449-63.8012 27.7242-62.6907Q26.7034-61.5802 26.8333-60.1202Q27.8541-43.7321 38.829-31.2477Q39.7384-30.097 41.2541-30.0723Q42.7698-30.0475 43.8401-31.0683L72.0816-59.3593ZM77.8095-8.07429Q79.3004-7.94437 80.3707-8.97443Q81.4409-10.0045 81.4409-11.5449L81.4409-51.4914Q81.4409-52.642 80.6955-53.3721Q79.95-54.1021 78.8952-54.1423Q77.8404-54.1825 77.0299-53.3721L48.8379-25.0811Q47.7367-24.0603 47.7522-22.56Q47.7677-21.0598 48.9184-19.9895Q61.3224-9.14456 77.8095-8.07429ZM92.9587-8.07429Q109.415-9.19406 121.769-19.9895Q122.92-21.0598 122.945-22.56Q122.97-24.0603 121.93-25.0811L93.6887-53.3721Q92.8783-54.1825 91.8327-54.1423Q90.7872-54.1021 90.017-53.3721Q89.2468-52.642 89.2468-51.4914L89.2468-11.5449Q89.2468-10.0045 90.3573-8.97443Q91.4677-7.94437 92.9587-8.07429ZM126.736-31.0683Q127.807-30.0475 129.322-30.0877Q130.838-30.1279 131.778-31.2786Q142.623-43.6331 143.743-60.1202Q143.873-61.6112 142.827-62.7062Q141.782-63.8012 140.272-63.8012L100.357-63.8012Q99.2063-63.8012 98.4608-63.031Q97.7153-62.2608 97.6751-61.2152Q97.6349-60.1697 98.4453-59.3902L126.736-31.0683Z"/>
  </g>
  <g id="Thin-L" transform="matrix(1 0 0 1 771.672 1556)">
   <path d="M84.7507 4.86786Q65.0025 4.86786 48.1559-4.92582Q31.3093-14.7195 21.358-31.4021Q11.4067-48.0846 11.2588-67.8328Q11.2588-68.4303 11.312-68.7387Q11.3651-69.0471 11.3975-69.5086L11.404-69.6084Q11.4623-72.1025 13.1789-73.7919Q14.8955-75.4812 17.3507-75.4812L152.151-75.4812Q154.68-75.4812 156.4-73.7886Q158.12-72.096 158.171-69.5215L158.171-69.4411Q158.191-68.9807 158.217-68.5803Q158.243-68.1798 158.243-67.3503Q158.021-47.7629 148.029-31.1608Q138.038-14.5587 121.231-4.8454Q104.425 4.86786 84.7507 4.86786ZM84.7507 0.601353Q102.989 0.601353 118.806-8.49204Q134.622-17.5854 144.151-33.2344Q153.68-48.8834 153.902-67.672Q153.976-68.0336 153.95-68.5293Q153.924-69.025 153.905-69.4217L153.898-69.6149Q153.898-70.2038 153.714-70.5619Q153.53-70.92 153.135-71.0673Q152.74-71.2147 152.151-71.2147L17.3507-71.2147Q16.8358-71.2147 16.4407-71.0673Q16.0456-70.92 15.8613-70.5619Q15.677-70.2038 15.677-69.6149L15.6705-69.4217Q15.6511-69.0315 15.6251-68.5727Q15.5992-68.114 15.5992-67.672Q15.8211-49.4398 25.0721-33.7507Q34.3231-18.0615 50.0991-8.73006Q65.8752 0.601353 84.7507 0.601353ZM73.5238-61.1682Q74.4565-62.1009 74.4532-63.3053Q74.45-64.5097 73.5978-65.4021Q72.7455-66.2946 71.4302-66.2946L25.2253-66.2946Q23.4404-66.2946 22.2729-65.013Q21.1055-63.7314 21.2599-62.0269Q22.4273-43.1454 35.0889-28.7054Q36.1694-27.3836 37.9174-27.3467Q39.6653-27.3097 40.9067-28.4771L73.5238-61.1682ZM78.0295-5.28757Q79.7404-5.13321 80.9818-6.33439Q82.2232-7.53556 82.2232-9.32046L82.2232-55.4514Q82.2232-56.7732 81.3677-57.6255Q80.5122-58.4777 79.2741-58.5179Q78.0359-58.5581 77.1033-57.6255L44.5601-24.9344Q43.3122-23.7669 43.3155-22.0223Q43.3187-20.2776 44.6405-19.0362Q59.0001-6.52896 78.0295-5.28757ZM91.5653-5.28757Q110.588-6.6029 124.874-19.0362Q126.196-20.2776 126.233-22.0223Q126.27-23.7669 125.035-24.9344L92.4176-57.6255Q91.4849-58.5581 90.2805-58.5179Q89.0761-58.4777 88.1836-57.6255Q87.2912-56.7732 87.2912-55.4514L87.2912-9.32046Q87.2912-7.53556 88.5728-6.33439Q89.8544-5.13321 91.5653-5.28757ZM128.521-28.4771Q129.762-27.3097 131.51-27.3499Q133.258-27.3901 134.345-28.7119Q146.852-42.9976 148.168-62.0269Q148.322-63.7379 147.118-65.0162Q145.913-66.2946 144.135-66.2946L98.0102-66.2946Q96.6884-66.2946 95.833-65.4021Q94.9775-64.5097 94.9373-63.3053Q94.8971-62.1009 95.8297-61.1747L128.521-28.4771Z"/>
  </g>
  <g id="Ultralight-L" transform="matrix(1 0 0 1 475.248 1556)">
   <path d="M84.4627 3.45304Q64.8022 3.45304 48.0307-6.29682Q31.2592-16.0467 21.3454-32.6604Q11.4317-49.274 11.2588-68.9346Q11.2588-68.8434 11.2869-68.7888Q11.315-68.7341 11.2848-68.7699L11.2788-68.8322Q11.2244-71.0132 12.8095-72.5461Q14.3946-74.0789 16.612-74.0789L152.313-74.0789Q154.617-74.0789 156.199-72.5491Q157.782-71.0193 157.733-68.7578L157.733-68.6774Q157.715-68.3297 157.691-68.3925Q157.667-68.4553 157.667-68.4521Q157.407-48.9524 147.453-32.4191Q137.499-15.8858 120.768-6.2164Q104.037 3.45304 84.4627 3.45304ZM84.4627 0.438586Q102.889 0.438586 118.912-8.7988Q134.935-18.0362 144.621-33.9043Q154.306-49.7723 154.566-68.7738Q154.652-68.7472 154.676-68.6733Q154.701-68.5993 154.719-68.6955L154.725-68.8261Q154.725-69.3649 154.353-69.8858Q153.98-70.4066 153.416-70.7356Q152.852-71.0645 152.313-71.0645L16.612-71.0645Q16.1597-71.0645 15.5956-70.7356Q15.0314-70.4066 14.6593-69.8858Q14.2872-69.3649 14.2872-68.8261L14.2932-68.6955Q14.3114-68.5933 14.3355-68.7105Q14.3597-68.8277 14.3597-68.7738Q14.6191-50.3413 24.0203-34.433Q33.4216-18.5247 49.4043-9.04308Q65.3869 0.438586 84.4627 0.438586ZM74.2625-62.0947Q75.2578-63.09 75.2608-64.3758Q75.2638-65.6616 74.349-66.6166Q73.4342-67.5717 72.0187-67.5717L22.6335-67.5717Q20.7234-67.5717 19.4809-66.2024Q18.2383-64.8332 18.4052-63.0035Q19.6477-42.8449 33.1733-27.4033Q34.3414-25.9938 36.2083-25.9506Q38.0752-25.9074 39.4042-27.1499L74.2625-62.0947ZM78.1421-3.86023Q79.9658-3.69335 81.2948-4.98216Q82.6238-6.27098 82.6238-8.18109L82.6238-57.4798Q82.6238-58.8892 81.712-59.804Q80.8002-60.7189 79.4682-60.7591Q78.1361-60.7993 77.1408-59.804L42.369-24.8593Q41.046-23.6167 41.043-21.7468Q41.04-19.8769 42.4494-18.5479Q57.8106-5.18926 78.1421-3.86023ZM90.8517-3.86023Q111.189-5.27572 126.464-18.5479Q127.873-19.8769 127.917-21.7468Q127.96-23.6167 126.625-24.8593L91.7665-59.804Q90.7712-60.7993 89.4854-60.7591Q88.1996-60.7189 87.2446-59.804Q86.2895-58.8892 86.2895-57.4798L86.2895-8.18109Q86.2895-6.27098 87.6588-4.98216Q89.028-3.69335 90.8517-3.86023ZM129.435-27.1499Q130.764-25.9074 132.631-25.9476Q134.498-25.9878 135.66-27.3972Q149.018-42.672 150.434-63.0035Q150.601-64.8272 149.315-66.1994Q148.029-67.5717 146.113-67.5717L96.8083-67.5717Q95.3988-67.5717 94.487-66.6166Q93.5752-65.6616 93.535-64.3758Q93.4948-63.09 94.49-62.0887L129.435-27.1499Z"/>
  </g>
  <g id="Black-M" transform="matrix(1 0 0 1 2865.82 1126)">
   <path d="M67.5485 7.39066Q51.5622 7.39066 38.0525-0.454525Q24.5428-8.29971 16.6327-21.6822Q8.72266-35.0647 8.72266-50.9938Q8.72266-56.3775 9.24954-59.9621Q9.77643-63.5468 10.6018-66.1375L10.9496-67.0719Q12.8236-72.4347 15.4116-75.2019Q17.9997-77.969 21.8467-77.969L113.25-77.969Q117.154-77.969 119.802-75.4562Q122.45-72.9434 124.09-68.0321L124.376-67.1705Q125.305-64.0144 125.868-60.2427Q126.431-56.4711 126.431-50.62Q126.431-34.7584 118.462-21.4382Q110.492-8.118 96.9562-0.363672Q83.4206 7.39066 67.5485 7.39066ZM67.5485-9.8654Q78.821-9.8654 88.0739-14.9955Q97.3267-20.1256 102.737-29.2486Q108.148-38.3716 108.205-49.8415Q108.262-55.2662 108.041-58.8278Q107.821-62.3894 107.576-64.6426L107.514-65.3642Q107.514-66.9631 109.43-65.7536Q111.345-64.544 112.555-62.6285Q113.764-60.713 112.108-60.713L22.9887-60.713Q21.3327-60.713 22.5422-62.6285Q23.7518-64.544 25.6958-65.7536Q27.6399-66.9631 27.6399-65.3642L27.5776-64.6426Q27.3336-62.623 27.1415-58.9758Q26.9493-55.3285 26.9493-49.8415Q26.9493-38.6884 32.1729-29.5342Q37.3965-20.38 46.6753-15.1227Q55.954-9.8654 67.5485-9.8654ZM54.724-51.7712Q54.8746-51.9218 54.9006-52.0829Q54.9265-52.244 54.8096-52.3349Q54.6927-52.4259 54.4745-52.4259L35.227-52.4259Q34.8167-52.4259 34.57-52.2051Q34.3233-51.9843 34.3285-51.5793Q34.8893-44.0504 40.0036-38.0742Q40.2685-37.7937 40.5075-37.7937Q40.7465-37.7937 41.0217-38.069L54.724-51.7712ZM61.1361-22.4455Q61.6606-22.4403 61.8788-22.6273Q62.0969-22.8144 62.0969-23.2246L62.0969-42.5293Q62.0969-42.7526 62.006-42.8695Q61.915-42.9864 61.728-42.9605Q61.541-42.9345 61.3904-42.7839L47.7452-29.1959Q47.4077-28.8635 47.4103-28.5986Q47.4129-28.3336 47.7505-27.9442Q53.6073-22.8921 61.1361-22.4455ZM74.0907-22.4455Q81.6714-22.9492 87.4141-27.9442Q87.7516-28.2765 87.7802-28.57Q87.8087-28.8635 87.4816-29.1959L73.8365-42.7839Q73.6858-42.9345 73.5247-42.9605Q73.3637-42.9864 73.2727-42.8695Q73.1818-42.7526 73.1818-42.5293L73.1818-23.2246Q73.1818-22.8144 73.4025-22.6273Q73.6233-22.4403 74.0907-22.4455ZM94.0753-38.069Q94.3505-37.7937 94.6181-37.8249Q94.8856-37.856 95.1557-38.1365Q100.208-44.1075 100.768-51.5793Q100.774-51.9896 100.556-52.2077Q100.337-52.4259 99.9894-52.4259L80.69-52.4259Q80.4095-52.4259 80.2615-52.3349Q80.1134-52.244 80.1394-52.1115Q80.1653-51.9789 80.373-51.8335L94.0753-38.069Z"/>
  </g>
  <g id="Heavy-M" transform="matrix(1 0 0 1 2569.33 1126)">
   <path d="M67.3405 5.83146Q51.4439 5.83146 37.9803-1.98909Q24.5166-9.80965 16.6228-23.1409Q8.72903-36.4722 8.72266-52.3252Q8.72266-57.1159 9.15559-60.2107Q9.58852-63.3054 10.2767-65.7205L10.5539-66.4837Q12.0893-71.2952 14.489-73.8474Q16.8886-76.3996 20.473-76.3996L114.208-76.3996Q117.839-76.3996 120.29-74.0359Q122.741-71.6723 124.087-67.191L124.305-66.518Q125.049-63.9296 125.526-60.5924Q126.002-57.2553 126.002-51.9514Q125.992-36.1794 118.046-22.9104Q110.099-9.64142 96.6228-1.90498Q83.1467 5.83146 67.3405 5.83146ZM67.3405-9.1657Q79.1324-9.1657 88.9229-14.6289Q98.7134-20.0921 104.46-29.7424Q110.207-39.3928 110.26-51.4154Q110.307-55.9464 110.092-59.2283Q109.878-62.5102 109.657-64.5522L109.597-65.1905Q109.597-66.5611 111.182-65.5681Q112.767-64.5751 113.758-62.9888Q114.75-61.4024 113.336-61.4024L21.3455-61.4024Q19.9345-61.4024 20.9258-62.9888Q21.9172-64.5751 23.5238-65.5681Q25.1304-66.5611 25.1304-65.1905L25.0713-64.5522Q24.8503-62.7002 24.6574-59.3544Q24.4646-56.0087 24.4646-51.4154Q24.4741-39.7262 30.0324-30.0447Q35.5906-20.3632 45.3935-14.7644Q55.1965-9.1657 67.3405-9.1657ZM54.6424-51.8452Q54.8763-52.0792 54.8904-52.3553Q54.9045-52.6314 54.711-52.8123Q54.5176-52.9933 54.1931-52.9933L33.6648-52.9933Q33.1284-52.9933 32.7885-52.6627Q32.4485-52.332 32.4704-51.8142Q33.0502-43.6641 38.5596-37.2848Q38.8872-36.9012 39.2912-36.8996Q39.6952-36.898 40.0601-37.2597L54.6424-51.8452ZM60.8818-21.1661Q61.5024-21.1443 61.8237-21.4344Q62.145-21.7246 62.145-22.261L62.145-42.8297Q62.145-43.1697 61.9656-43.3631Q61.7862-43.5566 61.4944-43.5441Q61.2027-43.5317 60.9687-43.2977L46.4332-28.7995Q46.0092-28.3941 46.0169-27.976Q46.0247-27.558 46.4519-27.1058Q52.7253-21.6619 60.8818-21.1661ZM73.9361-21.1661Q82.1208-21.7087 88.3037-27.1058Q88.7309-27.5143 88.7543-27.9542Q88.7777-28.3941 88.3847-28.7995L73.846-43.2977Q73.612-43.5317 73.3359-43.5441Q73.0599-43.5566 72.8789-43.3631Q72.6979-43.1697 72.6979-42.8297L72.6979-22.261Q72.6979-21.7246 73.0285-21.4344Q73.3592-21.1443 73.9361-21.1661ZM94.6177-37.2597Q94.9826-36.898 95.4085-36.9291Q95.8343-36.9603 96.1773-37.3439Q101.621-43.7013 102.207-51.8142Q102.229-52.3475 101.91-52.6704Q101.59-52.9933 101.113-52.9933L80.5594-52.9933Q80.1757-52.9933 79.9527-52.8123Q79.7297-52.6314 79.7422-52.3771Q79.7546-52.1228 80.0322-51.9043L94.6177-37.2597Z"/>
  </g>
  <g id="Bold-M" transform="matrix(1 0 0 1 2272.86 1126)">
   <path d="M67.1078 4.08728Q51.3115 4.08728 37.8994-3.70573Q24.4873-11.4987 16.6117-24.7727Q8.73615-38.0467 8.72266-53.8145Q8.72266-57.942 9.05048-60.4887Q9.37831-63.0355 9.91303-65.254L10.1113-65.8256Q11.2679-70.0205 13.4568-72.3322Q15.6457-74.6439 18.9363-74.6439L115.279-74.6439Q118.605-74.6439 120.836-72.4472Q123.067-70.2505 124.082-66.2502L124.225-65.7882Q124.763-63.8347 125.142-60.9837Q125.521-58.1326 125.521-53.4407Q125.501-37.769 117.58-24.5573Q109.659-11.3456 96.2497-3.62915Q82.8402 4.08728 67.1078 4.08728ZM67.1078-8.38298Q79.4807-8.38298 89.8727-14.2188Q100.265-20.0545 106.387-30.2948Q112.51-40.5351 112.559-53.176Q112.594-56.7072 112.387-59.6762Q112.179-62.6453 111.983-64.451L111.928-64.9962Q111.928-66.1113 113.143-65.3606Q114.357-64.6099 115.105-63.3918Q115.852-62.1736 114.708-62.1736L19.5073-62.1736Q18.3704-62.1736 19.1177-63.3918Q19.865-64.6099 21.094-65.3606Q22.3231-66.1113 22.3231-64.9962L22.2676-64.451Q22.0723-62.7865 21.8787-59.778Q21.685-56.7695 21.685-53.176Q21.7052-40.8872 27.6378-30.6157Q33.5705-20.3443 43.9598-14.3636Q54.3491-8.38298 67.1078-8.38298ZM54.5512-51.928Q54.8783-52.2551 54.8791-52.6599Q54.8798-53.0647 54.6007-53.3464Q54.3216-53.6281 53.8782-53.6281L31.9173-53.6281Q31.2397-53.6281 30.7955-53.1745Q30.3513-52.721 30.3918-52.0771Q30.993-43.2318 36.9442-36.4017Q37.3419-35.9027 37.9305-35.8993Q38.5191-35.896 38.9843-36.3544L54.5512-51.928ZM60.5974-19.7349Q61.3253-19.6944 61.762-20.1Q62.1987-20.5055 62.1987-21.1831L62.1987-43.1658Q62.1987-43.6362 61.9204-43.9153Q61.642-44.1944 61.2331-44.197Q60.8242-44.1996 60.4971-43.8725L44.9656-28.356Q44.4448-27.869 44.4583-27.2796Q44.4718-26.6903 44.9993-26.1679Q51.7386-20.2858 60.5974-19.7349ZM73.7631-19.7349Q82.6234-20.3211 89.2989-26.1679Q89.8264-26.6617 89.8441-27.2654Q89.8617-27.869 89.3949-28.356L73.8567-43.8725Q73.5295-44.1996 73.1248-44.197Q72.72-44.1944 72.4383-43.9153Q72.1566-43.6362 72.1566-43.1658L72.1566-21.1831Q72.1566-20.5055 72.6101-20.1Q73.0637-19.6944 73.7631-19.7349ZM95.2245-36.3544Q95.6898-35.896 96.2926-35.9271Q96.8955-35.9583 97.3202-36.4573Q103.202-43.2469 103.817-52.0771Q103.858-52.748 103.424-53.188Q102.991-53.6281 102.369-53.6281L80.4132-53.6281Q79.9142-53.6281 79.6074-53.3464Q79.3005-53.0647 79.2979-52.6742Q79.2953-52.2837 79.651-51.9836L95.2245-36.3544Z"/>
  </g>
  <g id="Semibold-M" transform="matrix(1 0 0 1 1976.31 1126)">
   <path d="M66.9474 2.88485Q51.2203 2.88485 37.8437-4.88917Q24.4671-12.6632 16.6041-25.8977Q8.74107-39.1322 8.72266-54.8412Q8.72266-58.5114 8.97803-60.6804Q9.2334-62.8494 9.6623-64.9325L9.80619-65.3719Q10.7017-69.1418 12.7453-71.2876Q14.7889-73.4335 17.877-73.4335L116.018-73.4335Q119.133-73.4335 121.212-71.3519Q123.292-69.2702 124.08-65.6015L124.17-65.285Q124.566-63.7693 124.878-61.2534Q125.19-58.7374 125.19-54.4674Q125.163-38.8648 117.259-25.6926Q109.356-12.5204 95.9926-4.81779Q82.629 2.88485 66.9474 2.88485ZM66.9474-7.84338Q79.7209-7.84338 90.5274-13.936Q101.334-20.0287 107.716-30.6757Q114.098-41.3226 114.144-54.3898Q114.172-57.2317 113.968-59.9851Q113.765-62.7384 113.587-64.3813L113.534-64.8622Q113.534-65.8012 114.494-65.2176Q115.454-64.6339 116.033-63.6696Q116.612-62.7053 115.655-62.7053L18.2401-62.7053Q17.2921-62.7053 17.8711-63.6696Q18.4502-64.6339 19.419-65.2176Q20.3878-65.8012 20.3878-64.8622L20.3347-64.3813Q20.1572-62.846 19.963-60.07Q19.7688-57.294 19.7688-54.3898Q19.7964-41.6875 25.9871-31.0094Q32.1778-20.3312 42.9713-14.0873Q53.7649-7.84338 66.9474-7.84338ZM54.4883-51.9851Q54.8796-52.3765 54.8712-52.8699Q54.8628-53.3634 54.5247-53.7146Q54.1866-54.0657 53.6611-54.0657L30.7126-54.0657Q29.9377-54.0657 29.4216-53.5274Q28.9055-52.9891 28.9588-52.2583Q29.5748-42.9339 35.8306-35.7929Q36.2767-35.2144 36.9925-35.2098Q37.7083-35.2052 38.2427-35.7304L54.4883-51.9851ZM60.4012-18.7483Q61.2033-18.6949 61.7195-19.18Q62.2357-19.6651 62.2357-20.44L62.2357-43.3974Q62.2357-43.9578 61.8892-44.296Q61.5427-44.6341 61.053-44.6471Q60.5633-44.6601 60.1719-44.2687L43.9537-28.0503Q43.3662-27.507 43.3837-26.7995Q43.4012-26.0921 43.9979-25.5214Q51.0584-19.3371 60.4012-18.7483ZM73.6439-18.7483Q82.9699-19.3645 89.9849-25.5214Q90.5816-26.0739 90.5953-26.7905Q90.609-27.507 90.0914-28.0503L73.864-44.2687Q73.4726-44.6601 72.9792-44.6471Q72.4857-44.6341 72.1345-44.296Q71.7834-43.9578 71.7834-43.3974L71.7834-20.44Q71.7834-19.6651 72.3217-19.18Q72.86-18.6949 73.6439-18.7483ZM95.6428-35.7304Q96.1772-35.2052 96.9022-35.2363Q97.6271-35.2675 98.1081-35.846Q104.292-42.9336 104.927-52.2583Q104.98-53.024 104.468-53.5449Q103.957-54.0657 103.235-54.0657L80.3125-54.0657Q79.734-54.0657 79.3693-53.7146Q79.0046-53.3634 78.9916-52.879Q78.9786-52.3946 79.3881-52.0382L95.6428-35.7304Z"/>
  </g>
  <g id="Medium-M" transform="matrix(1 0 0 1 1679.72 1126)">
   <path d="M66.8258 1.97312Q51.1511 1.97312 37.8014-5.7865Q24.4517-13.5461 16.5983-26.7507Q8.74479-39.9553 8.72266-55.6197Q8.72266-58.9432 8.92309-60.8257Q9.12351-62.7083 9.4722-64.6886L9.57482-65.028Q10.2723-68.4754 12.2058-70.4956Q14.1392-72.5158 17.0737-72.5158L116.578-72.5158Q119.534-72.5158 121.498-70.5214Q123.462-68.527 124.077-65.1097L124.129-64.9035Q124.416-63.7198 124.678-61.4579Q124.939-59.196 124.939-55.2459Q124.906-39.6958 117.016-26.5535Q109.126-13.4112 95.7976-5.71906Q82.4688 1.97312 66.8258 1.97312ZM66.8258-7.43423Q79.903-7.43423 91.0239-13.7216Q102.145-20.009 108.724-30.9644Q115.303-41.9198 115.346-55.3101Q115.367-57.6294 115.168-60.2192Q114.968-62.809 114.804-64.3284L114.752-64.7606Q114.752-65.5661 115.519-65.1091Q116.285-64.6521 116.737-63.8803Q117.188-63.1084 116.372-63.1084L17.2792-63.1084Q16.4745-63.1084 16.926-63.8803Q17.3775-64.6521 18.1489-65.1091Q18.9204-65.5661 18.9204-64.7606L18.8691-64.3284Q18.7051-62.8911 18.5105-60.2914Q18.3158-57.6917 18.3158-55.3101Q18.349-42.2944 24.7354-31.3079Q31.1218-20.3214 42.2218-13.8778Q53.3219-7.43423 66.8258-7.43423ZM54.4406-52.0284Q54.8807-52.4685 54.8653-53.0292Q54.85-53.5899 54.4671-53.9937Q54.0841-54.3975 53.4965-54.3975L29.7991-54.3975Q28.9504-54.3975 28.3798-53.795Q27.8092-53.1924 27.8723-52.3957Q28.4994-42.708 34.9861-35.3313Q35.4689-34.6924 36.2813-34.6869Q37.0936-34.6814 37.6804-35.2571L54.4406-52.0284ZM60.2525-18.0001Q61.1107-17.937 61.6873-18.4824Q62.2638-19.0278 62.2638-19.8765L62.2638-43.5731Q62.2638-44.2017 61.8656-44.5846Q61.4673-44.9675 60.9164-44.9884Q60.3654-45.0093 59.9254-44.5692L43.1865-27.8185Q42.5485-27.2325 42.569-26.4355Q42.5894-25.6385 43.2386-25.0311Q50.5426-18.6178 60.2525-18.0001ZM73.5535-18.0001Q83.2327-18.6391 90.5051-25.0311Q91.1543-25.6282 91.1649-26.4304Q91.1756-27.2325 90.6195-27.8185L73.8696-44.5692Q73.4295-45.0093 72.8688-44.9884Q72.308-44.9675 71.9042-44.5846Q71.5004-44.2017 71.5004-43.5731L71.5004-19.8765Q71.5004-19.0278 72.103-18.4824Q72.7056-17.937 73.5535-18.0001ZM95.96-35.2571Q96.5469-34.6814 97.3643-34.7125Q98.1818-34.7437 98.7055-35.3825Q105.119-42.6961 105.768-52.3957Q105.831-53.2333 105.26-53.8154Q104.689-54.3975 103.892-54.3975L80.2361-54.3975Q79.5973-54.3975 79.1887-53.9937Q78.7802-53.5899 78.7593-53.0343Q78.7384-52.4787 79.1888-52.0796L95.96-35.2571Z"/>
  </g>
  <g id="Regular-M" transform="matrix(1 0 0 1 1383.18 1126)">
   <path d="M66.6671 0.783907Q51.0608 0.783907 37.7463-6.95694Q24.4318-14.6978 16.5907-27.8633Q8.74965-41.0288 8.72266-56.6351Q8.72266-59.5064 8.85142-61.0153Q8.98019-62.5242 9.22423-64.3706L9.27304-64.5793Q9.7123-67.6063 11.502-69.4625Q13.2918-71.3187 16.0259-71.3187L117.308-71.3187Q120.056-71.3187 121.87-69.4381Q123.684-67.5575 124.075-64.4682L124.075-64.4059Q124.221-63.6551 124.416-61.7246Q124.612-59.7941 124.612-56.2613Q124.571-40.7796 116.699-27.6764Q108.827-14.5732 95.5433-6.89463Q82.2599 0.783907 66.6671 0.783907ZM66.6671-6.90056Q80.1405-6.90056 91.6715-13.442Q103.202-19.9835 110.038-31.341Q116.873-42.6986 116.914-56.5105Q116.927-58.1481 116.732-60.5247Q116.537-62.9012 116.39-64.2595L116.341-64.6281Q116.341-65.2595 116.855-64.9676Q117.369-64.6758 117.655-64.155Q117.94-63.6342 117.308-63.6342L16.0259-63.6342Q15.4081-63.6342 15.6931-64.155Q15.9782-64.6758 16.4923-64.9676Q17.0063-65.2595 17.0063-64.6281L16.9575-64.2595Q16.8111-62.95 16.6159-60.5802Q16.4206-58.2104 16.4206-56.5105Q16.4611-43.086 23.1028-31.6972Q29.7444-20.3085 41.2443-13.6045Q52.7441-6.90056 66.6671-6.90056ZM54.3784-52.0848Q54.882-52.5884 54.8576-53.2369Q54.8332-53.8854 54.3919-54.3579Q53.9505-54.8303 53.2818-54.8303L28.6077-54.8303Q27.6627-54.8303 27.021-54.1439Q26.3793-53.4576 26.4551-52.5749Q27.0968-42.4133 33.8847-34.7292Q34.4154-34.0117 35.3535-34.0049Q36.2917-33.9982 36.9469-34.6399L54.3784-52.0848ZM60.0586-17.0243Q60.99-16.9485 61.6452-17.5726Q62.3005-18.1967 62.3005-19.1416L62.3005-43.8023Q62.3005-44.5198 61.8347-44.9611Q61.369-45.4024 60.7382-45.4336Q60.1074-45.4647 59.6038-44.9611L42.1859-27.5162Q41.4818-26.8745 41.5062-25.9607Q41.5306-25.0469 42.2482-24.3917Q49.8699-17.6795 60.0586-17.0243ZM73.4355-17.0243Q83.5754-17.693 91.1837-24.3917Q91.9012-25.0469 91.9079-25.9607Q91.9147-26.8745 91.3083-27.5162L73.8769-44.9611Q73.3732-45.4647 72.7248-45.4336Q72.0763-45.4024 71.6038-44.9611Q71.1314-44.5198 71.1314-43.8023L71.1314-19.1416Q71.1314-18.1967 71.8177-17.5726Q72.5041-16.9485 73.4355-17.0243ZM96.3738-34.6399Q97.029-33.9982 97.9672-34.0293Q98.9054-34.0605 99.4848-34.778Q106.197-42.3863 106.866-52.5749Q106.941-53.5064 106.293-54.1683Q105.644-54.8303 104.748-54.8303L80.1365-54.8303Q79.419-54.8303 78.9533-54.3579Q78.4875-53.8854 78.4564-53.2369Q78.4252-52.5884 78.9289-52.1336L96.3738-34.6399Z"/>
  </g>
  <g id="Light-M" transform="matrix(1 0 0 1 1086.85 1126)">
   <path d="M66.286-1.08858Q50.7957-1.08858 37.5806-8.77143Q24.3655-16.4543 16.5741-29.5287Q8.78279-42.603 8.72266-58.0933Q8.72266-60.0533 8.81828-61.0816Q8.91391-62.1099 9.07509-63.3929L9.10733-63.5519Q9.39746-66.1647 11.0132-67.8137Q12.6289-69.4628 15.0483-69.4628L117.524-69.4628Q119.973-69.4628 121.605-67.7976Q123.237-66.1324 123.495-63.4574L123.495-63.3951Q123.591-62.7934 123.72-61.476Q123.849-60.1587 123.849-57.7195Q123.759-42.3538 115.937-29.3417Q108.114-16.3297 94.9302-8.70913Q81.7462-1.08858 66.286-1.08858ZM66.286-7.11598Q80.0079-7.11598 91.8123-13.848Q103.617-20.58 110.659-32.2276Q117.702-43.8751 117.792-57.9687Q117.822-59.0927 117.693-60.7152Q117.564-62.3378 117.467-63.2984L117.435-63.5841Q117.435-64.1492 117.701-64.0728Q117.966-63.9964 118.027-63.7159Q118.089-63.4354 117.524-63.4354L15.0483-63.4354Q14.5133-63.4354 14.5746-63.7159Q14.636-63.9964 14.9015-64.0728Q15.167-64.1492 15.167-63.5841L15.1347-63.2984Q15.038-62.37 14.9091-60.7625Q14.7801-59.155 14.7801-57.9687Q14.8703-44.279 21.7108-32.6003Q28.5513-20.9216 40.3246-14.0188Q52.0979-7.11598 66.286-7.11598ZM55.356-53.3111Q55.9425-53.8975 55.9264-54.6537Q55.9103-55.4099 55.3861-55.9652Q54.8619-56.5205 54.0606-56.5205L25.1775-56.5205Q24.0669-56.5205 23.3257-55.7182Q22.5846-54.9158 22.677-53.8675Q23.4181-42.0156 31.3494-33.0059Q31.996-32.1723 33.0916-32.1573Q34.1872-32.1423 34.9585-32.8834L55.356-53.3111ZM60.2077-15.1353Q61.2883-15.0429 62.0595-15.7829Q62.8307-16.523 62.8307-17.6337L62.8307-46.4867Q62.8307-47.3202 62.2904-47.8444Q61.7502-48.3686 60.9951-48.3997Q60.24-48.4309 59.6535-47.8444L39.286-27.4168Q38.4825-26.6756 38.4986-25.5961Q38.5148-24.5166 39.3483-23.7454Q48.2957-15.9065 60.2077-15.1353ZM72.491-15.1353Q84.3708-15.9365 93.2881-23.7454Q94.1217-24.5166 94.1367-25.5961Q94.1517-26.6756 93.4128-27.4168L73.0152-47.8444Q72.4287-48.4309 71.6725-48.3997Q70.9163-48.3686 70.361-47.8444Q69.8057-47.3202 69.8057-46.4867L69.8057-17.6337Q69.8057-16.523 70.6081-15.7829Q71.4104-15.0429 72.491-15.1353ZM97.5834-32.8834Q98.3546-32.1423 99.4503-32.1734Q100.546-32.2046 101.225-33.0381Q109.064-41.9554 109.865-53.8675Q109.957-54.948 109.201-55.7343Q108.445-56.5205 107.367-56.5205L78.5457-56.5205Q77.7122-56.5205 77.1719-55.9652Q76.6316-55.4099 76.6005-54.6537Q76.5693-53.8975 77.1558-53.3433L97.5834-32.8834Z"/>
  </g>
  <g id="Thin-M" transform="matrix(1 0 0 1 790.64 1126)">
   <path d="M65.7819-3.56511Q50.445-3.56511 37.3614-11.1712Q24.2778-18.7774 16.5522-31.7312Q8.82662-44.6851 8.72266-60.022Q8.72266-60.7765 8.77445-61.1693Q8.82624-61.562 8.87785-62.0998L8.88817-62.1931Q8.98105-64.258 10.3667-65.6331Q11.7523-67.0082 13.7552-67.0082L117.809-67.0082Q119.864-67.0082 121.254-65.6279Q122.645-64.2476 122.728-62.1205L122.728-62.0582Q122.759-61.6538 122.8-61.1473Q122.841-60.6408 122.841-59.6481Q122.685-44.4358 114.928-31.5443Q107.172-18.6528 94.1193-11.1089Q81.0668-3.56511 65.7819-3.56511ZM65.7819-7.40089Q79.8326-7.40089 91.9986-14.3849Q104.165-21.369 111.481-33.4001Q118.797-45.4312 118.953-59.8973Q119.005-60.3419 118.964-60.9672Q118.923-61.5926 118.892-62.0272L118.882-62.2034Q118.882-62.6808 118.818-62.8894Q118.755-63.0979 118.521-63.1351Q118.286-63.1724 117.809-63.1724L13.7552-63.1724Q13.3298-63.1724 13.0953-63.1351Q12.8608-63.0979 12.7975-62.8894Q12.7343-62.6808 12.7343-62.2034L12.724-62.0272Q12.693-61.6029 12.6517-61.0036Q12.6104-60.4042 12.6104-59.8973Q12.7664-45.857 19.8699-33.7947Q26.9734-21.7325 39.1082-14.5667Q51.2431-7.40089 65.7819-7.40089ZM56.6491-54.9328Q57.3451-55.6289 57.34-56.5275Q57.3348-57.4262 56.7011-58.0911Q56.0673-58.756 55.0907-58.756L20.6409-58.756Q19.3111-58.756 18.4384-57.8002Q17.5658-56.8444 17.6801-55.5769Q18.5527-41.4896 27.9963-30.7266Q28.7963-29.7396 30.1001-29.7137Q31.4039-29.6877 32.3285-30.5603L56.6491-54.9328ZM60.405-12.6368Q61.6828-12.5225 62.6074-13.416Q63.532-14.3095 63.532-15.6393L63.532-50.0371Q63.532-51.0241 62.8931-51.6578Q62.2542-52.2916 61.3348-52.3227Q60.4153-52.3539 59.7192-51.6578L35.4507-27.2853Q34.5157-26.4126 34.5209-25.114Q34.526-23.8153 35.513-22.8907Q46.2137-13.5614 60.405-12.6368ZM71.2418-12.6368Q85.4228-13.6134 96.0715-22.8907Q97.0584-23.8153 97.0844-25.114Q97.1104-26.4126 96.1961-27.2853L71.8755-51.6578Q71.1795-52.3539 70.2809-52.3227Q69.3822-52.2916 68.7173-51.6578Q68.0524-51.0241 68.0524-50.0371L68.0524-15.6393Q68.0524-14.3095 69.0082-13.416Q69.964-12.5225 71.2418-12.6368ZM99.1833-30.5603Q100.108-29.6877 101.412-29.7188Q102.716-29.75 103.526-30.7369Q112.855-41.3856 113.832-55.5769Q113.946-56.8547 113.047-57.8054Q112.149-58.756 110.829-58.756L76.4418-58.756Q75.4548-58.756 74.8159-58.0911Q74.177-57.4262 74.1459-56.5275Q74.1147-55.6289 74.8108-54.9432L99.1833-30.5603Z"/>
  </g>
  <g id="Ultralight-M" transform="matrix(1 0 0 1 494.187 1126)">
   <path d="M65.5237-4.83357Q50.2654-4.83357 37.2492-12.4004Q24.2329-19.9673 16.541-32.8594Q8.84907-45.7515 8.72266-61.0098Q8.72266-61.1469 8.752-61.2142Q8.78134-61.2814 8.77682-61.4375L8.77591-61.4971Q8.76777-63.2814 10.0355-64.5161Q11.3033-65.7509 13.0929-65.7509L117.955-65.7509Q119.807-65.7509 121.075-64.5166Q122.342-63.2823 122.335-61.4357L122.335-61.3734Q122.332-61.0701 122.328-60.9789Q122.325-60.8878 122.325-60.636Q122.135-45.5022 114.412-32.6725Q106.689-19.8427 93.7039-12.3381Q80.7188-4.83357 65.5237-4.83357ZM65.5237-7.54682Q79.7428-7.54682 92.094-14.66Q104.445-21.7731 111.902-34.0006Q119.359-46.2282 119.548-60.8852Q119.612-60.9817 119.615-61.0963Q119.619-61.2109 119.621-61.3761L119.622-61.4962Q119.622-61.9287 119.391-62.2832Q119.159-62.6376 118.773-62.8376Q118.387-63.0377 117.955-63.0377L13.0929-63.0377Q12.7236-63.0377 12.3376-62.8376Q11.9515-62.6376 11.7199-62.2832Q11.4883-61.9287 11.4883-61.4962L11.4892-61.3761Q11.4919-61.21 11.4955-61.127Q11.4991-61.044 11.4991-60.8852Q11.6887-46.6652 18.9269-34.4065Q26.1651-22.1478 38.4852-14.8473Q50.8053-7.54682 65.5237-7.54682ZM57.3114-55.7635Q58.0636-56.5157 58.064-57.4873Q58.0645-58.4589 57.3746-59.1799Q56.6847-59.901 55.6183-59.901L18.3172-59.901Q16.8752-59.901 15.9352-58.8666Q14.9952-57.8322 15.1207-56.4525Q16.0607-41.2202 26.2788-29.5591Q27.1574-28.4936 28.5678-28.462Q29.9783-28.4304 30.9815-29.3704L57.3114-55.7635ZM60.506-11.3571Q61.8848-11.2316 62.888-12.2037Q63.8913-13.1757 63.8913-14.6178L63.8913-51.8556Q63.8913-52.9211 63.2018-53.611Q62.5124-54.3009 61.5087-54.332Q60.5051-54.3632 59.7529-53.611L33.4862-27.2179Q32.4839-26.2779 32.4835-24.867Q32.483-23.4561 33.5485-22.4529Q45.1473-12.3603 60.506-11.3571ZM70.602-11.3571Q85.9616-12.4235 97.4971-22.4529Q98.5626-23.4561 98.5942-24.867Q98.6258-26.2779 97.6217-27.2179L71.2918-53.611Q70.5396-54.3632 69.568-54.332Q68.5964-54.3009 67.8754-53.611Q67.1544-52.9211 67.1544-51.8556L67.1544-14.6178Q67.1544-13.1757 68.1887-12.2037Q69.2231-11.2316 70.602-11.3571ZM100.003-29.3704Q101.006-28.4304 102.416-28.4616Q103.827-28.4927 104.705-29.5582Q114.797-41.0938 115.864-56.4525Q115.989-57.8313 115.017-58.8661Q114.046-59.901 112.603-59.901L75.3641-59.901Q74.2986-59.901 73.6092-59.1799Q72.9198-58.4589 72.8886-57.4873Q72.8575-56.5157 73.6097-55.7626L100.003-29.3704Z"/>
  </g>
  <g id="Black-S" transform="matrix(1 0 0 1 2880.4 696)">
   <path d="M52.9785-1.46484Q40.4297-1.46484 29.834-7.61719Q19.2383-13.7695 13.0371-24.2676Q6.83594-34.7656 6.83594-47.2656Q6.83594-51.6113 7.27539-54.541Q7.71484-57.4707 8.39844-59.5215L8.69141-60.3027Q10.2539-64.6484 12.3291-66.8701Q14.4043-69.0918 17.4805-69.0918L88.4766-69.0918Q91.6016-69.0918 93.7256-67.0898Q95.8496-65.0879 97.2168-61.1328L97.4609-60.4004Q98.2422-57.7637 98.7061-54.7119Q99.1699-51.6602 99.1699-46.9727Q99.1699-34.5215 92.9199-24.0723Q86.6699-13.623 76.0498-7.54395Q65.4297-1.46484 52.9785-1.46484ZM52.9785-15.5762Q61.6699-15.5762 68.7744-19.5068Q75.8789-23.4375 80.0293-30.4443Q84.1797-37.4512 84.2285-46.2891Q84.2773-50.7812 84.1064-53.6133Q83.9355-56.4453 83.7402-58.252L83.6914-58.8379Q83.6914-60.1562 85.2783-59.1553Q86.8652-58.1543 87.8662-56.5674Q88.8672-54.9805 87.5-54.9805L18.457-54.9805Q17.0898-54.9805 18.0908-56.5674Q19.0918-58.1543 20.7031-59.1553Q22.3145-60.1562 22.3145-58.8379L22.2656-58.252Q22.0703-56.6406 21.9238-53.7354Q21.7773-50.8301 21.7773-46.2891Q21.7773-37.6953 25.7812-30.6641Q29.7852-23.6328 36.9141-19.6045Q44.043-15.5762 52.9785-15.5762ZM42.9688-48.2422Q43.0664-48.3398 43.0908-48.4375Q43.1152-48.5352 43.042-48.584Q42.9688-48.6328 42.8223-48.6328L27.8809-48.6328Q27.5879-48.6328 27.417-48.4863Q27.2461-48.3398 27.2461-48.0469Q27.6855-42.2363 31.6406-37.5977Q31.8359-37.4023 31.9824-37.4023Q32.1289-37.4023 32.3242-37.5977L42.9688-48.2422ZM47.998-25.4883Q48.3887-25.4883 48.5352-25.6104Q48.6816-25.7324 48.6816-26.0254L48.6816-41.0156Q48.6816-41.1621 48.6328-41.2354Q48.584-41.3086 48.4619-41.2842Q48.3398-41.2598 48.2422-41.1621L37.6465-30.6152Q37.4023-30.3711 37.4023-30.2002Q37.4023-30.0293 37.6465-29.7363Q42.1875-25.8301 47.998-25.4883ZM58.0566-25.4883Q63.916-25.8789 68.3594-29.7363Q68.6035-29.9805 68.6279-30.1758Q68.6523-30.3711 68.4082-30.6152L57.8125-41.1621Q57.7148-41.2598 57.6172-41.2842Q57.5195-41.3086 57.4707-41.2354Q57.4219-41.1621 57.4219-41.0156L57.4219-26.0254Q57.4219-25.7324 57.5684-25.6104Q57.7148-25.4883 58.0566-25.4883ZM73.6328-37.5977Q73.8281-37.4023 73.999-37.4268Q74.1699-37.4512 74.3652-37.6465Q78.2715-42.2852 78.7109-48.0469Q78.7109-48.3398 78.5645-48.4863Q78.418-48.6328 78.1738-48.6328L63.1836-48.6328Q62.9883-48.6328 62.8906-48.584Q62.793-48.5352 62.8174-48.4619Q62.8418-48.3887 62.9883-48.291L73.6328-37.5977Z"/>
  </g>
  <g id="Heavy-S" transform="matrix(1 0 0 1 2583.82 696)">
   <path d="M52.8493-2.55896Q40.3624-2.55896 29.7933-8.69766Q19.2243-14.8364 13.0307-25.3023Q6.83715-35.7682 6.83594-48.2178Q6.83594-52.1729 7.19928-54.7451Q7.56261-57.3173 8.13946-59.2898L8.37421-59.931Q9.66621-63.8582 11.6025-65.9225Q13.5388-67.9868 16.4306-67.9868L89.268-67.9868Q92.1977-67.9868 94.1768-66.0849Q96.1559-64.183 97.2878-60.5427L97.4743-59.9716Q98.1039-57.8013 98.502-55.0428Q98.9-52.2842 98.9-47.9249Q98.8982-35.5355 92.6616-25.1185Q86.4249-14.7014 75.843-8.63018Q65.2611-2.55896 52.8493-2.55896ZM52.8493-14.9503Q61.9532-14.9503 69.4825-19.1414Q77.0118-23.3326 81.4233-30.7533Q85.8348-38.1741 85.8739-47.4487Q85.9119-51.2422 85.7376-53.9314Q85.5634-56.6206 85.3814-58.2974L85.3332-58.8227Q85.3332-59.9543 86.669-59.111Q88.0048-58.2677 88.8478-56.9316Q89.6908-55.5955 88.5219-55.5955L17.1767-55.5955Q16.0085-55.5955 16.8514-56.9316Q17.6944-58.2677 19.0489-59.111Q20.4034-59.9543 20.4034-58.8227L20.3552-58.2974Q20.1732-56.7807 20.0176-54.0359Q19.862-51.291 19.862-47.4487Q19.8638-38.4304 24.1285-30.9852Q28.3932-23.54 35.9355-19.2451Q43.4777-14.9503 52.8493-14.9503ZM42.7741-48.1488Q42.9324-48.3071 42.9456-48.4894Q42.9588-48.6716 42.8306-48.7869Q42.7025-48.9021 42.482-48.9021L26.9832-48.9021Q26.6035-48.9021 26.3656-48.6765Q26.1277-48.4508 26.1398-48.0827Q26.5829-41.9567 30.7297-37.1428Q30.9638-36.8741 31.2313-36.8738Q31.4988-36.8735 31.7559-37.13L42.7741-48.1488ZM47.7615-24.6355Q48.2152-24.6234 48.4351-24.8189Q48.655-25.0143 48.655-25.394L48.655-40.9295Q48.655-41.1609 48.54-41.289Q48.4251-41.4172 48.2293-41.4043Q48.0336-41.3914 47.8753-41.2331L36.895-30.2889Q36.5896-29.9951 36.5951-29.7144Q36.6006-29.4337 36.9066-29.1019Q41.6344-25.0046 47.7615-24.6355ZM58.0451-24.6355Q64.1986-25.0425 68.8512-29.1019Q69.1572-29.3964 69.1762-29.6957Q69.1952-29.9951 68.9116-30.2889L57.9308-41.2331Q57.7725-41.3914 57.5902-41.4043Q57.4079-41.4172 57.2927-41.289Q57.1775-41.1609 57.1775-40.9295L57.1775-25.394Q57.1775-25.0143 57.4031-24.8189Q57.6287-24.6234 58.0451-24.6355ZM73.9421-37.13Q74.1993-36.8735 74.4854-36.8979Q74.7716-36.9223 75.0166-37.191Q79.1139-41.9928 79.5582-48.0827Q79.5703-48.4617 79.3508-48.6819Q79.1312-48.9021 78.7997-48.9021L63.2752-48.9021Q63.0065-48.9021 62.8542-48.7869Q62.702-48.6716 62.7149-48.508Q62.7278-48.3444 62.9234-48.197L73.9421-37.13Z"/>
  </g>
  <g id="Bold-S" transform="matrix(1 0 0 1 2287.26 696)">
   <path d="M52.7048-3.78289Q40.2871-3.78289 29.7479-9.90633Q19.2087-16.0298 13.0236-26.4597Q6.83851-36.8896 6.83594-49.283Q6.83594-52.8012 7.11413-54.9734Q7.39232-57.1456 7.84976-59.0306L8.01938-59.5151Q9.00879-62.9741 10.7897-64.8624Q12.5707-66.7506 15.2562-66.7506L90.1534-66.7506Q92.8647-66.7506 94.6816-64.9607Q96.4985-63.1707 97.3671-59.8826L97.4892-59.4919Q97.9492-57.8433 98.2737-55.4129Q98.5981-52.9824 98.5981-48.99Q98.5943-36.6699 92.3725-26.2888Q86.1508-15.9077 75.6116-9.84529Q65.0725-3.78289 52.7048-3.78289ZM52.7048-14.2501Q62.27-14.2501 70.2746-18.7327Q78.2792-23.2152 82.9828-31.099Q87.6863-38.9828 87.7146-48.7459Q87.7403-51.7578 87.5623-54.2872Q87.3844-56.8167 87.2173-58.3483L87.1698-58.8058Q87.1698-59.7284 88.2247-59.0615Q89.2797-58.3946 89.9459-57.339Q90.6122-56.2834 89.6651-56.2834L15.7445-56.2834Q14.7988-56.2834 15.465-57.339Q16.1313-58.3946 17.1984-59.0615Q18.2656-59.7284 18.2656-58.8058L18.218-58.3483Q18.051-56.9374 17.8852-54.372Q17.7195-51.8066 17.7195-48.7459Q17.7233-39.2527 22.2798-31.3444Q26.8362-23.4362 34.8408-18.8432Q42.8454-14.2501 52.7048-14.2501ZM42.5563-48.0443Q42.7824-48.2705 42.7831-48.5474Q42.7837-48.8243 42.5942-49.0138Q42.4047-49.2033 42.1014-49.2033L25.9791-49.2033Q25.5024-49.2033 25.1895-48.8892Q24.8766-48.575 24.9023-48.1227Q25.3495-41.644 29.7106-36.6339Q29.9882-36.2832 30.391-36.2825Q30.7938-36.2819 31.1202-36.607L42.5563-48.0443ZM47.4969-23.6816Q48.0212-23.6559 48.3231-23.9335Q48.6251-24.211 48.6251-24.6878L48.6251-40.8332Q48.6251-41.1595 48.4362-41.3491Q48.2473-41.5386 47.9691-41.5386Q47.6909-41.5386 47.4648-41.3124L36.0544-29.9239Q35.6805-29.5744 35.6921-29.1709Q35.7036-28.7675 36.0788-28.3923Q41.0156-24.0813 47.4969-23.6816ZM58.0322-23.6816Q64.5148-24.107 69.4015-28.3923Q69.7767-28.7431 69.7895-29.1587Q69.8024-29.5744 69.4747-29.9239L58.0631-41.3124Q57.8369-41.5386 57.56-41.5386Q57.2831-41.5386 57.0936-41.3491Q56.904-41.1595 56.904-40.8332L56.904-24.6878Q56.904-24.211 57.2182-23.9335Q57.5324-23.6559 58.0322-23.6816ZM74.2881-36.607Q74.6145-36.2819 75.0296-36.3063Q75.4446-36.3307 75.7453-36.6815Q80.0563-41.6658 80.506-48.1227Q80.5317-48.5981 80.2304-48.9007Q79.9291-49.2033 79.4999-49.2033L63.3776-49.2033Q63.0268-49.2033 62.8135-49.0138Q62.6002-48.8243 62.6002-48.5596Q62.6002-48.2949 62.8508-48.0918L74.2881-36.607Z"/>
  </g>
  <g id="Semibold-S" transform="matrix(1 0 0 1 1990.65 696)">
   <path d="M52.6052-4.62667Q40.2351-4.62667 29.7166-10.7396Q19.198-16.8525 13.0187-27.2576Q6.83944-37.6628 6.83594-50.0173Q6.83594-53.2343 7.05543-55.1308Q7.27492-57.0273 7.65005-58.852L7.77476-59.2283Q8.55557-62.3647 10.2294-64.1316Q11.9032-65.8984 14.4466-65.8984L90.7638-65.8984Q93.3244-65.8984 95.0296-64.1857Q96.7347-62.4729 97.4219-59.4275L97.4995-59.1613Q97.8426-57.8723 98.1163-55.668Q98.39-53.4637 98.39-49.7244Q98.3847-37.452 92.1733-27.0956Q85.9618-16.7393 75.4521-10.683Q64.9424-4.62667 52.6052-4.62667ZM52.6052-13.7674Q62.4884-13.7674 70.8207-18.4509Q79.1529-23.1343 84.0578-31.3373Q88.9627-39.5404 88.9835-49.6402Q89.0008-52.1133 88.8203-54.5326Q88.6397-56.9518 88.483-58.3834L88.4359-58.7941Q88.4359-59.5726 89.2972-59.0273Q90.1585-58.482 90.7029-57.6199Q91.2473-56.7577 90.4533-56.7577L14.7571-56.7577Q13.9648-56.7577 14.5092-57.6199Q15.0536-58.482 15.9227-59.0273Q16.7918-59.5726 16.7918-58.7941L16.7447-58.3834Q16.588-57.0455 16.4152-54.6038Q16.2424-52.1621 16.2424-49.6402Q16.2477-39.8196 21.0052-31.5921Q25.7628-23.3647 34.0861-18.566Q42.4095-13.7674 52.6052-13.7674ZM42.4061-47.9723Q42.6791-48.2452 42.6711-48.5874Q42.663-48.9295 42.4312-49.1703Q42.1993-49.411 41.839-49.411L25.2869-49.411Q24.7433-49.411 24.3787-49.0358Q24.0142-48.6606 24.0492-48.1503Q24.4992-41.4283 29.0081-36.2832Q29.3156-35.8758 29.8117-35.8749Q30.3079-35.874 30.682-36.2463L42.4061-47.9723ZM47.3145-23.024Q47.8874-22.989 48.246-23.3231Q48.6045-23.6573 48.6045-24.2009L48.6045-40.7667Q48.6045-41.1586 48.3647-41.3905Q48.1248-41.6223 47.7898-41.6312Q47.4547-41.6401 47.1818-41.3672L35.4749-29.6723Q35.0538-29.2844 35.0695-28.7963Q35.0853-28.3082 35.5082-27.903Q40.5891-23.4447 47.3145-23.024ZM58.0233-23.024Q64.7328-23.462 69.7808-27.903Q70.2037-28.2926 70.2123-28.7885Q70.221-29.2844 69.8629-29.6723L58.1543-41.3672Q57.8813-41.6401 57.5392-41.6312Q57.197-41.6223 56.9563-41.3905Q56.7155-41.1586 56.7155-40.7667L56.7155-24.2009Q56.7155-23.6573 57.0908-23.3231Q57.466-22.989 58.0233-23.024ZM74.5267-36.2463Q74.9008-35.874 75.4047-35.8984Q75.9086-35.9228 76.2476-36.3302Q80.7059-41.4404 81.1594-48.1503Q81.1945-48.6921 80.8368-49.0516Q80.4791-49.411 79.9826-49.411L63.4482-49.411Q63.0409-49.411 62.7855-49.1703Q62.5301-48.9295 62.5212-48.5951Q62.5123-48.2607 62.8007-48.0194L74.5267-36.2463Z"/>
  </g>
  <g id="Medium-S" transform="matrix(1 0 0 1 1694.02 696)">
   <path d="M52.5297-5.26645Q40.1958-5.26645 29.6928-11.3714Q19.1898-17.4763 13.015-27.8627Q6.84015-38.249 6.83594-50.5741Q6.83594-53.5627 7.01092-55.2501Q7.18591-56.9376 7.49861-58.7165L7.58928-59.0109Q8.21191-61.9026 9.80453-63.5774Q11.3972-65.2523 13.8327-65.2523L91.2266-65.2523Q93.6731-65.2523 95.2934-63.598Q96.9138-61.9438 97.4634-59.0824L97.5073-58.9105Q97.7617-57.8943 97.9969-55.8615Q98.2322-53.8286 98.2322-50.2811Q98.2258-38.0449 92.0222-27.7074Q85.8186-17.3699 75.3312-11.3182Q64.8439-5.26645 52.5297-5.26645ZM52.5297-13.4014Q62.654-13.4014 71.2347-18.2372Q79.8154-23.0729 84.873-31.518Q89.9306-39.9631 89.9457-50.3183Q89.9566-52.3828 89.7741-54.7186Q89.5916-57.0543 89.4426-58.41L89.3959-58.7852Q89.3959-59.4545 90.1104-59.0014Q90.8249-58.5484 91.2769-57.8328Q91.7289-57.1173 91.0508-57.1173L14.0085-57.1173Q13.3325-57.1173 13.7845-57.8328Q14.2365-58.5484 14.9554-59.0014Q15.6743-59.4545 15.6743-58.7852L15.6276-58.41Q15.4786-57.1274 15.3005-54.7795Q15.1224-52.4316 15.1224-50.3183Q15.1288-40.2494 20.0388-31.7799Q24.9489-23.3104 33.5139-18.3559Q42.0789-13.4014 52.5297-13.4014ZM42.2923-47.9177Q42.6007-48.226 42.5861-48.6177Q42.5715-49.0093 42.3076-49.2889Q42.0436-49.5685 41.6401-49.5685L24.762-49.5685Q24.1677-49.5685 23.764-49.147Q23.3602-48.7255 23.4023-48.1712Q23.8544-41.2649 28.4754-36.0172Q28.8056-35.5669 29.3725-35.5658Q29.9394-35.5648 30.3497-35.9729L42.2923-47.9177ZM47.1762-22.5254Q47.786-22.4832 48.1874-22.8603Q48.5889-23.2374 48.5889-23.8317L48.5889-40.7164Q48.5889-41.1579 48.3104-41.4218Q48.0319-41.6858 47.6538-41.7014Q47.2756-41.7171 46.9673-41.4087L35.0355-29.4815Q34.5785-29.0646 34.5975-28.5122Q34.6165-27.9599 35.0756-27.5321Q40.2656-22.962 47.1762-22.5254ZM58.0166-22.5254Q64.898-22.9729 70.0684-27.5321Q70.5275-27.9511 70.5329-28.5078Q70.5384-29.0646 70.1573-29.4815L58.2234-41.4087Q57.915-41.7171 57.5234-41.7014Q57.1318-41.6858 56.8522-41.4218Q56.5726-41.1579 56.5726-40.7164L56.5726-23.8317Q56.5726-23.2374 56.9941-22.8603Q57.4156-22.4832 58.0166-22.5254ZM74.7075-35.9729Q75.1178-35.5648 75.6891-35.5892Q76.2604-35.6136 76.6285-36.0639Q81.1986-41.2694 81.6549-48.1712Q81.697-48.7634 81.2966-49.1659Q80.8962-49.5685 80.3486-49.5685L63.5018-49.5685Q63.0515-49.5685 62.7642-49.2889Q62.4769-49.0093 62.4612-48.6221Q62.4456-48.2348 62.7628-47.9644L74.7075-35.9729Z"/>
  </g>
  <g id="Regular-S" transform="matrix(1 0 0 1 1397.41 696)">
   <path d="M52.4311-6.10095Q40.1444-6.10095 29.6618-12.1955Q19.1792-18.29 13.0101-28.6518Q6.84108-39.0137 6.83594-51.3004Q6.83594-53.9911 6.95287-55.4058Q7.0698-56.8205 7.30109-58.5398L7.34735-58.7274Q7.76367-61.2999 9.25036-62.8546Q10.737-64.4094 13.032-64.4094L91.8303-64.4094Q94.1278-64.4094 95.6376-62.8315Q97.1474-61.2536 97.5175-58.6323L97.5175-58.5835Q97.6562-57.923 97.8413-56.1138Q98.0263-54.3046 98.0263-51.0074Q98.0186-38.8184 91.8251-28.5053Q85.6317-18.1923 75.1735-12.1466Q64.7153-6.10095 52.4311-6.10095ZM52.4311-12.924Q62.8701-12.924 71.7748-17.9585Q80.6795-22.9929 85.9362-31.7537Q91.1929-40.5145 91.2007-51.2027Q91.2032-52.7344 91.0182-54.9612Q90.8332-57.188 90.6944-58.4447L90.6481-58.7736Q90.6481-59.3005 91.1711-58.9677Q91.6941-58.6349 92.0256-58.1106Q92.3571-57.5863 91.8303-57.5863L13.032-57.5863Q12.5077-57.5863 12.8392-58.1106Q13.1707-58.6349 13.6937-58.9677Q14.2167-59.3005 14.2167-58.7736L14.1704-58.4447Q14.0317-57.2343 13.8466-55.0087Q13.6616-52.7832 13.6616-51.2027Q13.6693-40.81 18.7783-32.0248Q23.8872-23.2396 32.7675-18.0818Q41.6478-12.924 52.4311-12.924ZM42.1438-47.8464Q42.4985-48.2011 42.4753-48.6572Q42.4522-49.1134 42.1464-49.4436Q41.8406-49.7738 41.3806-49.7738L24.0774-49.7738Q23.4169-49.7738 22.9621-49.292Q22.5072-48.8101 22.5586-48.1985Q23.0135-41.0516 27.7806-35.6702Q28.1404-35.164 28.7996-35.1627Q29.4588-35.1614 29.9162-35.6163L42.1438-47.8464ZM46.9958-21.875Q47.6537-21.8236 48.1111-22.2566Q48.5686-22.6897 48.5686-23.3501L48.5686-40.6507Q48.5686-41.157 48.2396-41.4628Q47.9107-41.7686 47.4764-41.793Q47.042-41.8174 46.6874-41.4628L34.4624-29.2326Q33.9587-28.7778 33.9818-28.1417Q34.0049-27.5057 34.5112-27.0482Q39.8438-22.3324 46.9958-21.875ZM58.0078-21.875Q65.1136-22.335 70.4436-27.0482Q70.9498-27.5057 70.9511-28.1417Q70.9524-28.7778 70.5412-29.2326L58.3136-41.4628Q57.959-41.8174 57.5028-41.793Q57.0467-41.7686 56.7164-41.4628Q56.3862-41.157 56.3862-40.6507L56.3862-23.3501Q56.3862-22.6897 56.8681-22.2566Q57.3499-21.8236 58.0078-21.875ZM74.9435-35.6163Q75.4009-35.1614 76.0601-35.1858Q76.7193-35.2102 77.1253-35.7165Q81.8411-41.0465 82.3011-48.1985Q82.3525-48.8564 81.8963-49.3151Q81.4402-49.7738 80.826-49.7738L63.5716-49.7738Q63.0654-49.7738 62.7364-49.4436Q62.4075-49.1134 62.3831-48.6572Q62.3587-48.2011 62.7133-47.8927L74.9435-35.6163Z"/>
  </g>
  <g id="Light-S" transform="matrix(1 0 0 1 1101.04 696)">
   <path d="M52.094-7.75738Q39.9099-7.75738 29.5152-13.8006Q19.1205-19.8438 12.9955-30.125Q6.87039-40.4062 6.83594-52.5903Q6.83594-54.4748 6.92355-55.4644Q7.01116-56.4541 7.16916-57.6749L7.20076-57.8185Q7.48516-60.0245 8.81793-61.3961Q10.1507-62.7677 12.1671-62.7677L92.0208-62.7677Q94.0545-62.7677 95.4031-61.3803Q96.7516-59.9929 97.0044-57.7381L97.0044-57.6893Q97.0992-57.1608 97.2256-55.8939Q97.352-54.6271 97.352-52.2974Q97.3003-40.2109 91.1508-29.9785Q85.0014-19.7462 74.6311-13.7518Q64.2608-7.75738 52.094-7.75738ZM52.094-13.1146Q62.7528-13.1146 71.8994-18.3176Q81.0459-23.5206 86.4859-32.5379Q91.9259-41.5553 91.9776-52.4927Q91.9948-53.5699 91.8684-55.1298Q91.742-56.6896 91.6472-57.5945L91.6156-57.8501Q91.6156-58.3183 91.9187-58.1761Q92.2218-58.0339 92.3554-57.7222Q92.489-57.4104 92.0208-57.4104L12.1671-57.4104Q11.7161-57.4104 11.8498-57.7222Q11.9834-58.0339 12.2865-58.1761Q12.5896-58.3183 12.5896-57.8501L12.558-57.5945Q12.4632-56.7212 12.3368-55.17Q12.2104-53.6187 12.2104-52.4927Q12.2621-41.8655 17.5469-32.8237Q22.8318-23.782 31.954-18.4483Q41.0761-13.1146 52.094-13.1146ZM43.0087-48.9312Q43.4366-49.3591 43.4208-49.9105Q43.405-50.462 43.0259-50.8655Q42.6468-51.269 42.0695-51.269L21.0431-51.269Q20.236-51.269 19.6932-50.6846Q19.1503-50.1001 19.2164-49.3419Q19.7592-40.6998 25.5378-34.1457Q26.0002-33.5368 26.7987-33.5282Q27.5971-33.5196 28.1572-34.0624L43.0087-48.9312ZM47.1277-20.2039Q47.9175-20.1378 48.4776-20.6735Q49.0376-21.2091 49.0376-22.0162L49.0376-43.0254Q49.0376-43.6343 48.6427-44.0134Q48.2478-44.3925 47.7036-44.4169Q47.1593-44.4413 46.7314-44.0134L31.8971-29.1447Q31.3054-28.6019 31.3212-27.8192Q31.337-27.0366 31.9459-26.4765Q38.4512-20.764 47.1277-20.2039ZM57.1723-20.2039Q65.8172-20.7812 72.3052-26.4765Q72.9141-27.0366 72.9227-27.8192Q72.9313-28.6019 72.4029-29.1447L57.5514-44.0134Q57.1234-44.4413 56.572-44.4169Q56.0206-44.3925 55.617-44.0134Q55.2135-43.6343 55.2135-43.0254L55.2135-22.0162Q55.2135-21.2091 55.798-20.6735Q56.3824-20.1378 57.1723-20.2039ZM76.0135-34.0624Q76.5736-33.5196 77.372-33.544Q78.1705-33.5684 78.6645-34.1773Q84.377-40.6653 84.9543-49.3419Q85.0204-50.1317 84.4689-50.7004Q83.9175-51.269 83.142-51.269L62.1644-51.269Q61.5555-51.269 61.1606-50.8655Q60.7657-50.462 60.7413-49.9105Q60.7169-49.3591 61.1448-48.9628L76.0135-34.0624Z"/>
  </g>
  <g id="Thin-S" transform="matrix(1 0 0 1 804.774 696)">
   <path d="M51.6481-9.94815Q39.5997-9.94815 29.3213-15.9235Q19.043-21.8989 12.9761-32.0735Q6.90917-42.248 6.83594-54.2964Q6.83594-55.1146 6.88478-55.542Q6.93361-55.9694 6.99468-56.5311L7.00689-56.6165Q7.1168-58.3378 8.246-59.4671Q9.37521-60.5963 11.0233-60.5963L92.2729-60.5963Q93.9575-60.5963 95.0929-59.461Q96.2282-58.3256 96.3259-56.5555L96.3259-56.5067Q96.3625-56.1526 96.4113-55.6031Q96.4602-55.0536 96.4602-54.0035Q96.3503-42.0527 90.259-31.927Q84.1677-21.8012 73.9138-15.8747Q63.6598-9.94815 51.6481-9.94815ZM51.6481-13.3666Q62.5977-13.3666 72.0642-18.7926Q81.5306-24.2186 87.2129-33.5752Q92.8953-42.9318 93.0051-54.1988Q93.0417-54.675 92.9929-55.3527Q92.944-56.0304 92.9074-56.47L92.8952-56.6287Q92.8952-57.0194 92.9075-57.1292Q92.9197-57.239 92.7916-57.2084Q92.6635-57.1778 92.2729-57.1778L11.0233-57.1778Q10.6692-57.1778 10.5411-57.2084Q10.413-57.239 10.4253-57.1292Q10.4376-57.0194 10.4376-56.6287L10.4254-56.47Q10.3887-56.0427 10.3399-55.3832Q10.291-54.7238 10.291-54.1988Q10.4009-43.2613 15.9184-33.8803Q21.4359-24.4993 30.878-18.933Q40.32-13.3666 51.6481-13.3666ZM44.1525-50.3658Q44.6774-50.8907 44.6713-51.5682Q44.6652-52.2456 44.1891-52.7461Q43.7131-53.2465 42.9807-53.2465L17.0299-53.2465Q16.0289-53.2465 15.3698-52.5264Q14.7106-51.8062 14.7961-50.8541Q15.4552-40.2345 22.5716-32.1294Q23.1697-31.3848 24.1523-31.3665Q25.1349-31.3482 25.8307-32.0074L44.1525-50.3658ZM47.3022-17.9937Q48.2665-17.9083 48.9623-18.5797Q49.658-19.251 49.658-20.2519L49.658-46.1662Q49.658-46.9108 49.1759-47.3868Q48.6937-47.8628 48.0041-47.8873Q47.3144-47.9117 46.7895-47.3868L28.5043-29.0284Q27.7963-28.3692 27.8024-27.3927Q27.8086-26.4162 28.5531-25.7204Q36.6094-18.6895 47.3022-17.9937ZM56.0672-17.9937Q66.7478-18.7261 74.7674-25.7204Q75.512-26.4162 75.5303-27.3927Q75.5486-28.3692 74.8651-29.0284L56.5432-47.3868Q56.0184-47.9117 55.3409-47.8873Q54.6634-47.8628 54.163-47.3868Q53.6625-46.9108 53.6625-46.1662L53.6625-20.2519Q53.6625-19.251 54.3827-18.5797Q55.1029-17.9083 56.0672-17.9937ZM77.4288-32.0074Q78.1246-31.3482 79.1072-31.3726Q80.0898-31.3971 80.7001-32.1417Q87.731-40.1613 88.4634-50.8541Q88.5489-51.8184 87.8714-52.5325Q87.194-53.2465 86.2052-53.2465L60.3032-53.2465Q59.5586-53.2465 59.0765-52.7461Q58.5943-52.2456 58.5699-51.5682Q58.5455-50.8907 59.0704-50.378L77.4288-32.0074Z"/>
  </g>
  <g id="Ultralight-S" transform="matrix(1 0 0 1 508.291 696)">
   <path d="M51.4197-11.0703Q39.4408-11.0703 29.222-17.0109Q19.0033-22.9515 12.9661-33.0714Q6.92903-43.1914 6.83594-55.1703Q6.83594-55.4423 6.86492-55.5817Q6.89389-55.7211 6.9053-55.9452L6.90759-56.0009Q6.92812-57.4739 7.95306-58.479Q8.978-59.4841 10.4374-59.4841L92.402-59.4841Q93.9079-59.4841 94.934-58.4779Q95.9601-57.4716 95.9783-55.9498L95.9783-55.9009Q95.9852-55.6362 95.9943-55.4542Q96.0034-55.2721 96.0034-54.8773Q95.8638-42.9961 89.8022-32.9249Q83.7407-22.8538 73.5464-16.962Q63.352-11.0703 51.4197-11.0703ZM51.4197-13.4957Q62.5183-13.4957 72.1486-19.0359Q81.7789-24.576 87.5853-34.1064Q93.3918-43.6368 93.5314-55.0726Q93.5779-55.241 93.5688-55.4669Q93.5597-55.6928 93.5528-55.8941L93.5506-56.0031Q93.5506-56.3541 93.4139-56.593Q93.2772-56.8318 93.0151-56.9452Q92.7529-57.0586 92.402-57.0586L10.4374-57.0586Q10.133-57.0586 9.87084-56.9452Q9.60868-56.8318 9.47201-56.593Q9.33534-56.3541 9.33534-56.0031L9.33306-55.8941Q9.32621-55.6951 9.31708-55.4925Q9.30796-55.2898 9.30796-55.0726Q9.44759-43.9763 15.0843-34.4215Q20.7209-24.8667 30.3269-19.1812Q39.9328-13.4957 51.4197-13.4957ZM44.7384-51.1007Q45.3129-51.6752 45.3118-52.4172Q45.3106-53.1592 44.785-53.7093Q44.2593-54.2594 43.4474-54.2594L14.9743-54.2594Q13.8741-54.2594 13.1554-53.4697Q12.4367-52.68 12.532-51.6286Q13.2508-39.9962 21.0523-31.0967Q21.7199-30.2826 22.7969-30.2593Q23.8738-30.2361 24.6391-30.9548L44.7384-51.1007ZM47.3916-16.8617Q48.4453-16.7663 49.2105-17.5072Q49.9758-18.2481 49.9758-19.3483L49.9758-47.7748Q49.9758-48.5889 49.449-49.1146Q48.9221-49.6403 48.158-49.6648Q47.3939-49.6892 46.8193-49.1146L26.7666-28.9688Q25.999-28.25 26.0001-27.1742Q26.0013-26.0984 26.8154-25.3331Q35.666-17.627 47.3916-16.8617ZM55.5012-16.8617Q67.2244-17.6735 76.0285-25.3331Q76.8426-26.0984 76.8659-27.1742Q76.8892-28.25 76.1262-28.9688L56.0269-49.1146Q55.4523-49.6892 54.7103-49.6648Q53.9683-49.6403 53.4182-49.1146Q52.8681-48.5889 52.8681-47.7748L52.8681-19.3483Q52.8681-18.2481 53.6578-17.5072Q54.4475-16.7663 55.5012-16.8617ZM78.1537-30.9548Q78.919-30.2361 79.9959-30.2605Q81.0729-30.2849 81.7428-31.099Q89.449-39.9031 90.2608-51.6286Q90.3561-52.6823 89.6141-53.4709Q88.8721-54.2594 87.7742-54.2594L59.3499-54.2594Q58.5358-54.2594 58.009-53.7093Q57.4822-53.1592 57.4577-52.4172Q57.4333-51.6752 58.0079-51.1029L78.1537-30.9548Z"/>
  </g>
 </g>
</svg>
