<?xml version="1.0" encoding="UTF-8"?>
<!--Generator: Apple Native CoreSVG 175.5-->
<!DOCTYPE svg
PUBLIC "-//W3C//DTD SVG 1.1//EN"
       "http://www.w3.org/Graphics/SVG/1.1/DTD/svg11.dtd">
<svg version="1.1" xmlns="http://www.w3.org/2000/svg" xmlns:xlink="http://www.w3.org/1999/xlink" width="3300" height="2200">
 <!--glyph: "bitter", point size: 100.0, font version: "17.0d4e2", template writer version: "0"-->
 <g id="Notes">
  <rect height="2200" id="artboard" style="fill:white;opacity:1" width="3300" x="0" y="0"/>
  <line style="fill:none;stroke:black;opacity:1;stroke-width:0.5;" x1="263" x2="3036" y1="292" y2="292"/>
  <text style="stroke:none;fill:black;font-family:SF Pro,SF Pro Display,SF Pro Text,sans-serif;font-weight:bold;" transform="matrix(1 0 0 1 263 322)">Weight/Scale Variations</text>
  <text style="stroke:none;fill:black;font-family:SF Pro,SF Pro Display,SF Pro Text,sans-serif;text-anchor:middle;" transform="matrix(1 0 0 1 559.711 322)">Ultralight</text>
  <text style="stroke:none;fill:black;font-family:SF Pro,SF Pro Display,SF Pro Text,sans-serif;text-anchor:middle;" transform="matrix(1 0 0 1 856.422 322)">Thin</text>
  <text style="stroke:none;fill:black;font-family:SF Pro,SF Pro Display,SF Pro Text,sans-serif;text-anchor:middle;" transform="matrix(1 0 0 1 1153.13 322)">Light</text>
  <text style="stroke:none;fill:black;font-family:SF Pro,SF Pro Display,SF Pro Text,sans-serif;text-anchor:middle;" transform="matrix(1 0 0 1 1449.84 322)">Regular</text>
  <text style="stroke:none;fill:black;font-family:SF Pro,SF Pro Display,SF Pro Text,sans-serif;text-anchor:middle;" transform="matrix(1 0 0 1 1746.56 322)">Medium</text>
  <text style="stroke:none;fill:black;font-family:SF Pro,SF Pro Display,SF Pro Text,sans-serif;text-anchor:middle;" transform="matrix(1 0 0 1 2043.27 322)">Semibold</text>
  <text style="stroke:none;fill:black;font-family:SF Pro,SF Pro Display,SF Pro Text,sans-serif;text-anchor:middle;" transform="matrix(1 0 0 1 2339.98 322)">Bold</text>
  <text style="stroke:none;fill:black;font-family:SF Pro,SF Pro Display,SF Pro Text,sans-serif;text-anchor:middle;" transform="matrix(1 0 0 1 2636.69 322)">Heavy</text>
  <text style="stroke:none;fill:black;font-family:SF Pro,SF Pro Display,SF Pro Text,sans-serif;text-anchor:middle;" transform="matrix(1 0 0 1 2933.4 322)">Black</text>
  <line style="fill:none;stroke:black;opacity:1;stroke-width:0.5;" x1="263" x2="3036" y1="1903" y2="1903"/>
  <g transform="matrix(1 0 0 1 263 1933)">
   <path d="M9.24805 0.830078C13.5547 0.830078 17.1387-2.74414 17.1387-7.05078C17.1387-11.3574 13.5449-14.9316 9.23828-14.9316C4.94141-14.9316 1.36719-11.3574 1.36719-7.05078C1.36719-2.74414 4.95117 0.830078 9.24805 0.830078ZM9.24805-0.654297C5.70312-0.654297 2.87109-3.49609 2.87109-7.05078C2.87109-10.6055 5.69336-13.4473 9.23828-13.4473C12.793-13.4473 15.6348-10.6055 15.6445-7.05078C15.6543-3.49609 12.8027-0.654297 9.24805-0.654297ZM5.83984-7.04102C5.83984-6.61133 6.14258-6.31836 6.5918-6.31836L8.50586-6.31836L8.50586-4.39453C8.50586-3.95508 8.79883-3.65234 9.22852-3.65234C9.67773-3.65234 9.9707-3.95508 9.9707-4.39453L9.9707-6.31836L11.9043-6.31836C12.3438-6.31836 12.6465-6.61133 12.6465-7.04102C12.6465-7.48047 12.3438-7.7832 11.9043-7.7832L9.9707-7.7832L9.9707-9.69727C9.9707-10.1465 9.67773-10.4492 9.22852-10.4492C8.79883-10.4492 8.50586-10.1465 8.50586-9.69727L8.50586-7.7832L6.5918-7.7832C6.14258-7.7832 5.83984-7.48047 5.83984-7.04102Z"/>
  </g>
  <g transform="matrix(1 0 0 1 281.867 1933)">
   <path d="M11.709 2.91016C17.1582 2.91016 21.6699-1.61133 21.6699-7.05078C21.6699-12.5 17.1484-17.0117 11.6992-17.0117C6.25977-17.0117 1.74805-12.5 1.74805-7.05078C1.74805-1.61133 6.26953 2.91016 11.709 2.91016ZM11.709 1.25C7.09961 1.25 3.41797-2.44141 3.41797-7.05078C3.41797-11.6602 7.08984-15.3516 11.6992-15.3516C16.3086-15.3516 20-11.6602 20.0098-7.05078C20.0195-2.44141 16.3184 1.25 11.709 1.25ZM7.39258-7.04102C7.39258-6.5625 7.73438-6.24023 8.23242-6.24023L10.8789-6.24023L10.8789-3.57422C10.8789-3.08594 11.2109-2.75391 11.6895-2.75391C12.1777-2.75391 12.5195-3.08594 12.5195-3.57422L12.5195-6.24023L15.1758-6.24023C15.6641-6.24023 16.0059-6.5625 16.0059-7.04102C16.0059-7.5293 15.6641-7.87109 15.1758-7.87109L12.5195-7.87109L12.5195-10.5176C12.5195-11.0254 12.1777-11.3574 11.6895-11.3574C11.2109-11.3574 10.8789-11.0156 10.8789-10.5176L10.8789-7.87109L8.23242-7.87109C7.73438-7.87109 7.39258-7.5293 7.39258-7.04102Z"/>
  </g>
  <g transform="matrix(1 0 0 1 305.646 1933)">
   <path d="M14.9707 5.66406C21.9336 5.66406 27.6953-0.0976562 27.6953-7.05078C27.6953-14.0137 21.9238-19.7754 14.9609-19.7754C8.00781-19.7754 2.25586-14.0137 2.25586-7.05078C2.25586-0.0976562 8.01758 5.66406 14.9707 5.66406ZM14.9707 3.84766C8.93555 3.84766 4.08203-1.01562 4.08203-7.05078C4.08203-13.0957 8.92578-17.9492 14.9609-17.9492C21.0059-17.9492 25.8594-13.0957 25.8691-7.05078C25.8789-1.01562 21.0156 3.84766 14.9707 3.84766ZM9.45312-7.04102C9.45312-6.52344 9.83398-6.16211 10.3711-6.16211L14.0625-6.16211L14.0625-2.46094C14.0625-1.93359 14.4336-1.55273 14.9512-1.55273C15.4883-1.55273 15.8594-1.92383 15.8594-2.46094L15.8594-6.16211L19.5605-6.16211C20.0879-6.16211 20.4688-6.52344 20.4688-7.04102C20.4688-7.57812 20.0977-7.95898 19.5605-7.95898L15.8594-7.95898L15.8594-11.6504C15.8594-12.1973 15.4883-12.5684 14.9512-12.5684C14.4336-12.5684 14.0625-12.1875 14.0625-11.6504L14.0625-7.95898L10.3711-7.95898C9.82422-7.95898 9.45312-7.57812 9.45312-7.04102Z"/>
  </g>
  <text style="stroke:none;fill:black;font-family:SF Pro,SF Pro Display,SF Pro Text,sans-serif;font-weight:bold;" transform="matrix(1 0 0 1 263 1953)">Design Variations</text>
  <text style="stroke:none;fill:black;font-family:SF Pro,SF Pro Display,SF Pro Text,sans-serif;" transform="matrix(1 0 0 1 263 1971)">Symbols are supported in up to nine weights and three scales.</text>
  <text style="stroke:none;fill:black;font-family:SF Pro,SF Pro Display,SF Pro Text,sans-serif;" transform="matrix(1 0 0 1 263 1989)">For optimal layout with text and other symbols, vertically align</text>
  <text style="stroke:none;fill:black;font-family:SF Pro,SF Pro Display,SF Pro Text,sans-serif;" transform="matrix(1 0 0 1 263 2007)">symbols with the adjacent text.</text>
  <line style="fill:none;stroke:#00AEEF;stroke-width:0.5;opacity:1.0;" x1="776" x2="776" y1="1919" y2="1933"/>
  <g transform="matrix(1 0 0 1 776 1933)">
   <path d="M3.31055 0.15625C3.82812 0.15625 4.08203-0.0390625 4.26758-0.585938L5.52734-4.0332L11.2891-4.0332L12.5488-0.585938C12.7344-0.0390625 12.9883 0.15625 13.4961 0.15625C14.0137 0.15625 14.3457-0.15625 14.3457-0.644531C14.3457-0.810547 14.3164-0.966797 14.2383-1.17188L9.6582-13.3691C9.43359-13.9648 9.0332-14.2676 8.4082-14.2676C7.80273-14.2676 7.39258-13.9746 7.17773-13.3789L2.59766-1.16211C2.51953-0.957031 2.49023-0.800781 2.49023-0.634766C2.49023-0.146484 2.80273 0.15625 3.31055 0.15625ZM6.00586-5.51758L8.37891-12.0898L8.42773-12.0898L10.8008-5.51758Z"/>
  </g>
  <line style="fill:none;stroke:#00AEEF;stroke-width:0.5;opacity:1.0;" x1="793.197" x2="793.197" y1="1919" y2="1933"/>
  <text style="stroke:none;fill:black;font-family:SF Pro,SF Pro Display,SF Pro Text,sans-serif;font-weight:bold;" transform="matrix(1 0 0 1 776 1953)">Margins</text>
  <text style="stroke:none;fill:black;font-family:SF Pro,SF Pro Display,SF Pro Text,sans-serif;" transform="matrix(1 0 0 1 776 1971)">Leading and trailing margins on the left and right side of each symbol</text>
  <text style="stroke:none;fill:black;font-family:SF Pro,SF Pro Display,SF Pro Text,sans-serif;" transform="matrix(1 0 0 1 776 1989)">can be adjusted by modifying the x-location of the margin guidelines.</text>
  <text style="stroke:none;fill:black;font-family:SF Pro,SF Pro Display,SF Pro Text,sans-serif;" transform="matrix(1 0 0 1 776 2007)">Modifications are automatically applied proportionally to all</text>
  <text style="stroke:none;fill:black;font-family:SF Pro,SF Pro Display,SF Pro Text,sans-serif;" transform="matrix(1 0 0 1 776 2025)">scales and weights.</text>
  <g transform="matrix(1 0 0 1 1289 1933)">
   <path d="M2.8418 1.86523L4.54102 3.57422C5.40039 4.44336 6.38672 4.38477 7.31445 3.35938L18.0078-8.42773L17.041-9.4043L6.42578 2.27539C6.07422 2.67578 5.74219 2.77344 5.27344 2.30469L4.10156 1.14258C3.63281 0.683594 3.74023 0.341797 4.14062-0.0195312L15.6152-10.8203L14.6387-11.7871L3.04688-0.898438C2.06055 0.0195312 1.98242 0.996094 2.8418 1.86523ZM9.25781-16.3281C8.83789-15.918 8.80859-15.3418 9.04297-14.9512C9.27734-14.5898 9.73633-14.3555 10.3809-14.5215C11.8457-14.8633 13.3691-14.9219 14.7949-13.9844L14.209-12.5293C13.8672-11.6992 14.043-11.1133 14.5801-10.5664L16.875-8.25195C17.3633-7.76367 17.7734-7.74414 18.3398-7.8418L19.4043-8.03711L20.0684-7.36328L20.0293-6.80664C19.9902-6.30859 20.1172-5.92773 20.6055-5.44922L21.3672-4.70703C21.8457-4.22852 22.4609-4.19922 22.9297-4.66797L25.8398-7.58789C26.3086-8.05664 26.2891-8.65234 25.8105-9.13086L25.0391-9.89258C24.5605-10.3711 24.1895-10.5273 23.7109-10.4883L23.1348-10.4395L22.4902-11.0742L22.7344-12.1973C22.8613-12.7637 22.7051-13.2031 22.1191-13.7891L19.9219-15.9766C16.582-19.2969 12.1484-19.2188 9.25781-16.3281ZM10.752-15.957C13.1836-17.7344 16.4746-17.4316 18.7012-15.2051L21.1328-12.793C21.3672-12.5586 21.4062-12.373 21.3379-12.0312L21.0156-10.5469L22.5195-9.0625L23.5059-9.12109C23.7598-9.13086 23.8379-9.11133 24.0332-8.91602L24.6094-8.33984L22.168-5.89844L21.5918-6.47461C21.3965-6.66992 21.3672-6.74805 21.377-7.01172L21.4453-7.98828L19.9512-9.47266L18.4277-9.21875C18.1055-9.15039 17.959-9.17969 17.7148-9.41406L15.7129-11.416C15.459-11.6504 15.4297-11.8164 15.5859-12.1875L16.4648-14.2773C14.9023-15.7324 12.8711-16.3574 10.8398-15.7617C10.6836-15.7227 10.625-15.8496 10.752-15.957Z"/>
  </g>
  <text style="stroke:none;fill:black;font-family:SF Pro,SF Pro Display,SF Pro Text,sans-serif;font-weight:bold;" transform="matrix(1 0 0 1 1289 1953)">Exporting</text>
  <text style="stroke:none;fill:black;font-family:SF Pro,SF Pro Display,SF Pro Text,sans-serif;" transform="matrix(1 0 0 1 1289 1971)">Symbols should be outlined when exporting to ensure the</text>
  <text style="stroke:none;fill:black;font-family:SF Pro,SF Pro Display,SF Pro Text,sans-serif;" transform="matrix(1 0 0 1 1289 1989)">design is preserved when submitting to Xcode.</text>
  <text id="template-version" style="stroke:none;fill:black;font-family:SF Pro,SF Pro Display,SF Pro Text,sans-serif;text-anchor:end;" transform="matrix(1 0 0 1 3036 1933)">Template v.2.0</text>
  <text style="stroke:none;fill:black;font-family:SF Pro,SF Pro Display,SF Pro Text,sans-serif;text-anchor:end;" transform="matrix(1 0 0 1 3036 1951)">Requires Xcode 13 or greater</text>
  <text id="descriptive-name" style="stroke:none;fill:black;font-family:SF Pro,SF Pro Display,SF Pro Text,sans-serif;text-anchor:end;" transform="matrix(1 0 0 1 3036 1969)">Generated from bitter</text>
  <text style="stroke:none;fill:black;font-family:SF Pro,SF Pro Display,SF Pro Text,sans-serif;text-anchor:end;" transform="matrix(1 0 0 1 3036 1987)">Typeset at 100 points</text>
  <text style="stroke:none;fill:black;font-family:SF Pro,SF Pro Display,SF Pro Text,sans-serif;" transform="matrix(1 0 0 1 263 726)">Small</text>
  <text style="stroke:none;fill:black;font-family:SF Pro,SF Pro Display,SF Pro Text,sans-serif;" transform="matrix(1 0 0 1 263 1156)">Medium</text>
  <text style="stroke:none;fill:black;font-family:SF Pro,SF Pro Display,SF Pro Text,sans-serif;" transform="matrix(1 0 0 1 263 1586)">Large</text>
 </g>
 <g id="Guides">
  <g id="H-reference" style="fill:#27AAE1;stroke:none;" transform="matrix(1 0 0 1 339 696)">
   <path d="M0.993654 0L3.63775 0L29.3281-67.1323L30.0303-67.1323L30.0303-70.459L28.1226-70.459ZM11.6885-24.4799L46.9815-24.4799L46.2315-26.7285L12.4385-26.7285ZM55.1196 0L57.7637 0L30.6382-70.459L29.4326-70.459L29.4326-67.1323Z"/>
  </g>
  <line id="Baseline-S" style="fill:none;stroke:#27AAE1;opacity:1;stroke-width:0.5;" x1="263" x2="3036" y1="696" y2="696"/>
  <line id="Capline-S" style="fill:none;stroke:#27AAE1;opacity:1;stroke-width:0.5;" x1="263" x2="3036" y1="625.541" y2="625.541"/>
  <g id="H-reference" style="fill:#27AAE1;stroke:none;" transform="matrix(1 0 0 1 339 1126)">
   <path d="M0.993654 0L3.63775 0L29.3281-67.1323L30.0303-67.1323L30.0303-70.459L28.1226-70.459ZM11.6885-24.4799L46.9815-24.4799L46.2315-26.7285L12.4385-26.7285ZM55.1196 0L57.7637 0L30.6382-70.459L29.4326-70.459L29.4326-67.1323Z"/>
  </g>
  <line id="Baseline-M" style="fill:none;stroke:#27AAE1;opacity:1;stroke-width:0.5;" x1="263" x2="3036" y1="1126" y2="1126"/>
  <line id="Capline-M" style="fill:none;stroke:#27AAE1;opacity:1;stroke-width:0.5;" x1="263" x2="3036" y1="1055.54" y2="1055.54"/>
  <g id="H-reference" style="fill:#27AAE1;stroke:none;" transform="matrix(1 0 0 1 339 1556)">
   <path d="M0.993654 0L3.63775 0L29.3281-67.1323L30.0303-67.1323L30.0303-70.459L28.1226-70.459ZM11.6885-24.4799L46.9815-24.4799L46.2315-26.7285L12.4385-26.7285ZM55.1196 0L57.7637 0L30.6382-70.459L29.4326-70.459L29.4326-67.1323Z"/>
  </g>
  <line id="Baseline-L" style="fill:none;stroke:#27AAE1;opacity:1;stroke-width:0.5;" x1="263" x2="3036" y1="1556" y2="1556"/>
  <line id="Capline-L" style="fill:none;stroke:#27AAE1;opacity:1;stroke-width:0.5;" x1="263" x2="3036" y1="1485.54" y2="1485.54"/>
  <line id="left-margin" style="fill:none;stroke:#00AEEF;stroke-width:0.5;opacity:1.0;" x1="1382.3" x2="1382.3" y1="1030.79" y2="1150.12"/>
  <line id="right-margin" style="fill:none;stroke:#00AEEF;stroke-width:0.5;opacity:1.0;" x1="1517.39" x2="1517.39" y1="1030.79" y2="1150.12"/>
 </g>
 <g id="Symbols">
  <g id="Black-L" transform="matrix(1 0 0 1 2841.13 1556)">
   <path d="M92.2651-98.664Q114.145-98.664 132.75-90.217Q151.355-81.77 162.313-67.2445Q173.271-52.7191 173.271-35.2697Q173.271-17.8204 162.313-3.29488Q151.355 11.2306 132.75 19.6776Q114.145 28.1246 92.2651 28.1246Q70.385 28.1246 51.7801 19.6776Q33.1753 11.2306 22.217-3.29488Q11.2588-17.8204 11.2588-35.2697Q11.2588-52.7191 22.217-67.2445Q33.1753-81.77 51.7801-90.217Q70.385-98.664 92.2651-98.664ZM92.2651-78.5926Q79.061-78.5926 67.5744-74.8052Q62.2954-73.2332 57.0385-70.4549Q51.6275-67.647 47.9502-64.8323Q44.1848-61.9736 40.7335-58.281Q37.6623-54.7052 35.6298-50.9983Q33.312-46.9256 32.3211-43.2656Q31.3302-39.6056 31.3302-35.2697Q31.3302-30.9338 32.3211-27.2738Q33.312-23.6138 35.6298-19.5411Q37.6623-15.8342 40.7335-12.2584Q44.1848-8.56585 47.9502-5.70713Q51.6275-2.89243 57.0385-0.0844808Q62.2954 2.69382 67.5744 4.26583Q79.061 8.0532 92.2651 8.0532Q105.433 8.0532 117.036 4.26583Q122.22 2.67181 127.572-0.0844808Q132.69-2.78236 136.58-5.70713Q140.828-8.90955 143.797-12.2584Q147.043-15.8706 148.981-19.5411Q151.218-23.6138 152.209-27.2848Q153.2-30.9558 153.2-35.2697Q153.2-39.5836 152.209-43.2546Q151.218-46.9256 148.981-50.9983Q147.043-54.6688 143.797-58.281Q140.828-61.6299 136.58-64.8323Q132.69-67.757 127.572-70.4549Q122.22-73.2112 117.036-74.8052Q105.433-78.5926 92.2651-78.5926ZM172.329-35.6659Q154.537-20.4549 139.563-17.1585Q124.588-13.8622 113.553-17.5357Q102.518-21.2092 88.3213-29.4772Q82.2382-32.9792 78.5164-34.9241Q74.7946-36.869 70.7694-38.1888Q66.7441-39.5085 62.9855-39.5085Q49.4615-39.5085 39.5842-33.6498Q29.7069-27.791 23.8066-19.5163L13.6984-34.4435Q22.217-46.1525 34.8785-52.826Q47.5399-59.4995 62.9855-59.4995Q71.2957-59.4995 78.5724-57.5661Q85.8491-55.6326 91.5254-52.9352Q97.2018-50.2378 104.834-45.8443Q116.415-39.2642 123.998-36.8804Q131.58-34.4966 141.257-37.442Q150.933-40.3875 162.989-52.0178L172.329-35.6659Z"/>
  </g>
  <g id="Heavy-L" transform="matrix(1 0 0 1 2545.78 1556)">
   <path d="M90.9067-97.3056Q112.443-97.3056 130.733-89.0266Q149.024-80.7475 159.789-66.5268Q170.555-52.306 170.555-35.2697Q170.555-18.2334 159.789-4.01265Q149.024 10.2081 130.733 18.4872Q112.443 26.7662 90.9067 26.7662Q69.3698 26.7662 51.0798 18.4872Q32.7898 10.2081 22.0243-4.01265Q11.2588-18.2334 11.2588-35.2697Q11.2588-52.306 22.0243-66.5268Q32.7898-80.7475 51.0798-89.0266Q69.3698-97.3056 90.9067-97.3056ZM90.9067-79.951Q77.5264-79.951 65.8029-76.0939Q60.4413-74.487 55.0568-71.6665Q49.4877-68.7694 45.7656-65.9108Q41.9004-62.9732 38.3599-59.1842Q35.1564-55.4551 33.0809-51.6564Q30.7071-47.4791 29.6602-43.6089Q28.6134-39.7387 28.6134-35.2697Q28.6134-30.8007 29.6602-26.9305Q30.7071-23.0603 33.0809-18.883Q35.1564-15.0843 38.3599-11.3552Q41.9004-7.56618 45.7656-4.62865Q49.4877-1.77004 55.0568 1.12708Q60.4413 3.9476 65.8029 5.55449Q77.5264 9.41163 90.9067 9.41163Q104.278 9.41163 116.091 5.55449Q121.377 3.92644 126.837 1.12708Q132.089-1.63497 136.048-4.62865Q140.366-7.88706 143.453-11.3552Q146.791-15.0858 148.813-18.883Q151.106-23.0677 152.153-26.9484Q153.2-30.8292 153.2-35.2697Q153.2-39.7102 152.153-43.591Q151.106-47.4717 148.813-51.6564Q146.791-55.4536 143.453-59.1842Q140.366-62.6523 136.048-65.9108Q132.089-68.9044 126.837-71.6665Q121.377-74.4658 116.091-76.0939Q104.278-79.951 90.9067-79.951ZM169.763-35.9653Q152.624-21.4481 138.117-18.3619Q123.609-15.2758 112.81-18.8896Q102.01-22.5034 87.9733-30.6172Q81.7416-34.1688 77.8863-36.1628Q74.031-38.1568 69.8365-39.5082Q65.642-40.8596 61.6723-40.8596Q48.3852-40.8596 38.4373-35.2106Q28.4894-29.5616 22.4616-21.5595L13.3271-34.4224Q21.8816-45.388 34.2906-51.7682Q46.6996-58.1484 61.6723-58.1484Q69.5307-58.1484 76.5287-56.2705Q83.5267-54.3926 89.081-51.7544Q94.6352-49.1162 102.205-44.799Q113.982-38.1556 121.777-35.6635Q129.573-33.1713 139.44-35.9318Q149.307-38.6922 161.373-50.0508L169.763-35.9653Z"/>
  </g>
  <g id="Bold-L" transform="matrix(1 0 0 1 2250.59 1556)">
   <path d="M89.387-95.786Q110.54-95.786 128.478-87.6949Q146.416-79.6037 156.965-65.7238Q167.515-51.844 167.515-35.2697Q167.515-18.6954 156.965-4.81557Q146.416 9.06431 128.478 17.1555Q110.54 25.2466 89.387 25.2466Q68.2342 25.2466 50.2964 17.1555Q32.3586 9.06431 21.8087-4.81557Q11.2588-18.6954 11.2588-35.2697Q11.2588-51.844 21.8087-65.7238Q32.3586-79.6037 50.2964-87.6949Q68.2342-95.786 89.387-95.786ZM89.387-81.4706Q75.8097-81.4706 63.8213-77.5354Q58.3671-75.8895 52.8401-73.0218Q47.0941-70.0249 43.3219-67.1172Q39.3449-64.0915 35.7047-60.1945Q32.3533-56.2939 30.2296-52.3926Q27.7931-48.0982 26.6836-43.9929Q25.5741-39.8876 25.5741-35.2697Q25.5741-30.6518 26.6836-26.5465Q27.7931-22.4412 30.2296-18.1468Q32.3533-14.2455 35.7047-10.3449Q39.3449-6.44791 43.3219-3.42222Q47.0941-0.514473 52.8401 2.48239Q58.3671 5.35012 63.8213 6.99604Q75.8097 10.9312 89.387 10.9312Q102.986 10.9312 115.033 6.99604Q120.434 5.32992 126.014 2.48239Q131.416-0.351438 135.452-3.42222Q139.85-6.74326 143.069-10.3449Q146.508-14.208 148.625-18.1468Q150.981-22.4567 152.09-26.5721Q153.2-30.6875 153.2-35.2697Q153.2-39.8519 152.09-43.9673Q150.981-48.0827 148.625-52.3926Q146.508-56.3314 143.069-60.1945Q139.85-63.7961 135.452-67.1172Q131.416-70.188 126.014-73.0218Q120.434-75.8693 115.033-77.5354Q102.986-81.4706 89.387-81.4706ZM166.893-36.3002Q150.485-22.5591 136.5-19.7081Q122.515-16.8571 111.978-20.4042Q101.441-23.9513 87.584-31.8926Q81.186-35.4996 77.1814-37.5485Q73.1767-39.5974 68.7929-40.9842Q64.409-42.3711 60.2033-42.3711Q47.1812-42.3711 37.1543-36.9567Q27.1273-31.5423 20.957-23.8452L12.9117-34.3988Q21.5063-44.5328 33.633-50.5849Q45.7597-56.637 60.2033-56.637Q67.5563-56.637 74.2426-54.8213Q80.9288-53.0055 86.3465-50.4336Q91.7641-47.8616 99.264-43.6297Q111.26-36.9155 119.293-34.3022Q127.327-31.6888 137.407-34.2423Q147.487-36.7959 159.565-47.8504L166.893-36.3002Z"/>
  </g>
  <g id="Semibold-L" transform="matrix(1 0 0 1 1954.93 1556)">
   <path d="M88.3394-94.7384Q109.228-94.7384 126.923-86.7768Q144.618-78.8152 155.019-65.1703Q165.42-51.5254 165.42-35.2697Q165.42-19.014 155.019-5.3691Q144.618 8.27578 126.923 16.2374Q109.228 24.199 88.3394 24.199Q67.4514 24.199 49.7563 16.2374Q32.0613 8.27578 21.66-5.3691Q11.2588-19.014 11.2588-35.2697Q11.2588-51.5254 21.66-65.1703Q32.0613-78.8152 49.7563-86.7768Q67.4514-94.7384 88.3394-94.7384ZM88.3394-82.5182Q74.6263-82.5182 62.4551-78.5292Q56.9372-76.8564 51.3118-73.9561Q45.444-70.8905 41.6373-67.9489Q37.5832-64.8624 33.8742-60.891Q30.4208-56.8722 28.2639-52.9001Q25.7843-48.525 24.6316-44.2576Q23.4789-39.9902 23.4789-35.2697Q23.4789-30.5492 24.6316-26.2818Q25.7843-22.0144 28.2639-17.6393Q30.4208-13.6672 33.8742-9.64838Q37.5832-5.67697 41.6373-2.59051Q45.444 0.351104 51.3118 3.41673Q56.9372 6.31701 62.4551 7.98984Q74.6263 11.9788 88.3394 11.9788Q102.096 11.9788 114.304 7.98984Q119.783 6.29747 125.447 3.41673Q130.953 0.533419 135.042-2.59051Q139.494-5.95473 142.805-9.64838Q146.314-13.6028 148.495-17.6393Q150.895-22.0356 152.047-26.3127Q153.2-30.5899 153.2-35.2697Q153.2-39.9495 152.047-44.2267Q150.895-48.5038 148.495-52.9001Q146.314-56.9366 142.805-60.891Q139.494-64.5847 135.042-67.9489Q130.953-71.0728 125.447-73.9561Q119.783-76.8369 114.304-78.5292Q102.096-82.5182 88.3394-82.5182ZM164.914-36.531Q149.01-23.3251 135.385-20.6361Q121.76-17.9472 111.404-21.4483Q101.048-24.9494 87.3156-32.7718Q80.8031-36.417 76.6955-38.5038Q72.5878-40.5906 68.0735-42.0018Q63.5591-43.413 59.1906-43.413Q46.3511-43.413 36.2698-38.1604Q26.1884-32.9078 19.9197-25.4209L12.6253-34.3825Q21.2476-43.9432 33.1796-49.7691Q45.1117-55.595 59.1906-55.595Q66.1951-55.595 72.6665-53.8222Q79.1378-52.0493 84.4613-49.523Q89.7848-46.9967 97.2366-42.8236Q109.383-36.0605 117.581-33.3637Q125.779-30.6668 136.006-33.0777Q146.232-35.4885 158.319-46.3335L164.914-36.531Z"/>
  </g>
  <g id="Medium-L" transform="matrix(1 0 0 1 1659.01 1556)">
   <path d="M87.5451-93.9441Q108.232-93.9441 125.743-86.0807Q143.254-78.2173 153.543-64.7506Q163.831-51.2839 163.831-35.2697Q163.831-19.2555 153.543-5.78881Q143.254 7.67788 125.743 15.5413Q108.232 23.4046 87.5451 23.4046Q66.8577 23.4046 49.3468 15.5413Q31.8359 7.67788 21.5473-5.78881Q11.2588-19.2555 11.2588-35.2697Q11.2588-51.2839 21.5473-64.7506Q31.8359-78.2173 49.3468-86.0807Q66.8577-93.9441 87.5451-93.9441ZM87.5451-83.3126Q73.7289-83.3126 61.4193-79.2828Q55.8529-77.5896 50.1531-74.6646Q44.1927-71.5468 40.3599-68.5795Q36.2474-65.447 32.4862-61.4192Q28.9556-57.3106 26.7734-53.2849Q24.2611-48.8486 23.0757-44.4583Q21.8903-40.0681 21.8903-35.2697Q21.8903-30.4714 23.0757-26.0811Q24.2611-21.6908 26.7734-17.2545Q28.9556-13.2288 32.4862-9.12024Q36.2474-5.09242 40.3599-1.95988Q44.1927 1.00742 50.1531 4.12519Q55.8529 7.05015 61.4193 8.74337Q73.7289 12.7732 87.5451 12.7732Q101.421 12.7732 113.751 8.74337Q119.29 7.03111 125.018 4.12519Q130.601 1.20435 134.73-1.95988Q139.224-5.35684 142.604-9.12024Q146.166-13.1439 148.397-17.2545Q150.829-21.7162 152.015-26.116Q153.2-30.5158 153.2-35.2697Q153.2-40.0236 152.015-44.4234Q150.829-48.8232 148.397-53.2849Q146.166-57.3955 142.604-61.4192Q139.224-65.1826 134.73-68.5795Q130.601-71.7438 125.018-74.6646Q119.29-77.5705 113.751-79.2828Q101.421-83.3126 87.5451-83.3126ZM163.413-36.7061Q147.891-23.9058 134.54-21.3398Q121.188-18.7738 110.969-22.24Q100.751-25.7062 87.1121-33.4384Q80.5127-37.1126 76.327-39.2281Q72.1413-41.3436 67.528-42.7733Q62.9146-44.2031 58.4227-44.2031Q45.7218-44.2031 35.5991-39.0731Q25.4764-33.9432 19.1332-26.6157L12.4082-34.3702Q21.0514-43.4962 32.8359-49.1506Q44.6204-54.805 58.4227-54.805Q65.163-54.805 71.4714-53.0646Q77.7798-51.3242 83.0319-48.8325Q88.284-46.3409 95.6993-42.2123Q107.96-35.4123 116.282-32.6521Q124.605-29.8919 134.943-32.1945Q145.281-34.4972 157.374-45.1833L163.413-36.7061Z"/>
  </g>
  <g id="Regular-L" transform="matrix(1 0 0 1 1363.34 1556)">
   <path d="M86.509-92.908Q106.935-92.908 124.205-85.1727Q141.476-77.4374 151.618-64.2031Q161.759-50.9689 161.759-35.2697Q161.759-19.5705 151.618-6.33626Q141.476 6.89802 124.205 14.6333Q106.935 22.3686 86.509 22.3686Q66.0835 22.3686 48.8127 14.6333Q31.5419 6.89802 21.4003-6.33626Q11.2588-19.5705 11.2588-35.2697Q11.2588-50.9689 21.4003-64.2031Q31.5419-77.4374 48.8127-85.1727Q66.0835-92.908 86.509-92.908ZM86.509-84.3487Q72.5585-84.3487 60.0681-80.2657Q54.4387-78.5458 48.6416-75.5887Q42.5607-72.4029 38.6937-69.4021Q34.505-66.2094 30.6759-62.108Q27.0443-57.8825 24.8294-53.7869Q22.2743-49.2707 21.0462-44.7202Q19.8181-40.1696 19.8181-35.2697Q19.8181-30.3698 21.0462-25.8193Q22.2743-21.2687 24.8294-16.7525Q27.0443-12.6569 30.6759-8.43137Q34.505-4.32996 38.6937-1.13731Q42.5607 1.86349 48.6416 5.04927Q54.4387 8.00642 60.0681 9.72625Q72.5585 13.8093 86.509 13.8093Q100.54 13.8093 113.03 9.72625Q118.647 7.98803 124.457 5.04927Q130.142 2.07949 134.324-1.13731Q138.871-4.57698 142.342-8.43137Q145.974-12.5454 148.269-16.7525Q150.744-21.2997 151.972-25.8595Q153.2-30.4192 153.2-35.2697Q153.2-40.1202 151.972-44.6799Q150.744-49.2397 148.269-53.7869Q145.974-57.994 142.342-62.108Q138.871-65.9624 134.324-69.4021Q130.142-72.6189 124.457-75.5887Q118.647-78.5274 113.03-80.2657Q100.54-84.3487 86.509-84.3487ZM161.456-36.9344Q146.432-24.6634 133.437-22.2576Q120.442-19.8519 110.402-23.2726Q100.363-26.6934 86.8466-34.308Q80.1339-38.0199 75.8464-40.1729Q71.5589-42.3258 66.8164-43.7797Q62.074-45.2336 57.4211-45.2336Q44.9009-45.2336 34.7243-40.2636Q24.5478-35.2936 18.1073-28.1742L12.125-34.3541Q20.7955-42.9131 32.3875-48.3438Q43.9795-53.7745 57.4211-53.7745Q63.8169-53.7745 69.9127-52.0765Q76.0086-50.3784 81.1675-47.932Q86.3264-45.4855 93.6941-41.4151Q106.104-34.5667 114.589-31.7239Q123.074-28.8811 133.557-31.0427Q144.04-33.2042 156.141-43.683L161.456-36.9344Z"/>
  </g>
  <g id="Light-L" transform="matrix(1 0 0 1 1067.55 1556)">
   <path d="M85.5849-91.9838Q105.77-91.9838 122.838-84.3595Q139.905-76.7351 149.908-63.7134Q159.911-50.6916 159.911-35.2697Q159.911-19.8478 149.908-6.82605Q139.905 6.19568 122.838 13.82Q105.77 21.4444 85.5849 21.4444Q65.3996 21.4444 48.3321 13.82Q31.2646 6.19568 21.2617-6.82605Q11.2588-19.8478 11.2588-35.2697Q11.2588-50.6916 21.2617-63.7134Q31.2646-76.7351 48.3321-84.3595Q65.3996-91.9838 85.5849-91.9838ZM85.5849-85.2728Q71.468-85.2728 58.8668-81.1528Q53.2374-79.4145 47.2924-76.4204Q41.23-73.2531 37.2151-70.1414Q32.8785-66.8194 29.0679-62.718Q25.3809-58.4185 23.092-54.2305Q20.5-49.6589 19.2349-44.9604Q17.9698-40.262 17.9698-35.2697Q17.9698-30.2774 19.2349-25.579Q20.5-20.8805 23.092-16.3089Q25.3809-12.1209 29.0679-7.82144Q32.8785-3.72003 37.2151-0.397999Q41.23 2.71369 47.2924 5.88099Q53.2374 8.8751 58.8668 10.6134Q71.468 14.7334 85.5849 14.7334Q99.7822 14.7334 112.383 10.6134Q117.945 8.89368 123.958 5.88099Q129.773 2.8188 133.955-0.397999Q138.576-3.87463 142.102-7.82144Q145.789-11.9909 148.158-16.3089Q150.67-20.93 151.935-25.6192Q153.2-30.3084 153.2-35.2697Q153.2-40.2311 151.935-44.9202Q150.67-49.6094 148.158-54.2305Q145.789-58.5485 142.102-62.718Q138.576-66.6648 133.955-70.1414Q129.773-73.3582 123.958-76.4204Q117.945-79.4331 112.383-81.1528Q99.7822-85.2728 85.5849-85.2728ZM159.571-37.0638Q145.083-25.2918 132.467-23.0339Q119.85-20.776 109.986-24.1506Q100.123-27.5251 86.6988-35.0288Q79.8197-38.7962 75.4213-40.9861Q71.0229-43.176 66.1141-44.6576Q61.2053-46.1392 56.3676-46.1392Q43.9583-46.1392 33.7078-41.2986Q23.4573-36.4581 16.869-29.5049L12.162-34.3356Q20.2965-42.3402 31.7036-47.6045Q43.1108-52.8688 56.3676-52.8688Q62.597-52.8688 68.5635-51.1893Q74.5299-49.5098 79.6242-47.091Q84.7185-44.6722 92.0676-40.6203Q104.588-33.7165 113.193-30.809Q121.798-27.9015 132.467-29.9614Q143.135-32.0214 155.402-42.3707L159.571-37.0638Z"/>
  </g>
  <g id="Thin-L" transform="matrix(1 0 0 1 772.06 1556)">
   <path d="M84.3626-90.7616Q104.23-90.7616 121.029-83.2839Q137.827-75.8062 147.647-63.0656Q157.466-50.3249 157.466-35.2697Q157.466-20.2145 147.647-7.47384Q137.827 5.26677 121.029 12.7445Q104.23 20.2222 84.3626 20.2222Q64.4951 20.2222 47.6966 12.7445Q30.898 5.26677 21.0784-7.47384Q11.2588-20.2145 11.2588-35.2697Q11.2588-50.3249 21.0784-63.0656Q30.898-75.8062 47.6966-83.2839Q64.4951-90.7616 84.3626-90.7616ZM84.3626-86.4951Q70.0257-86.4951 57.2778-82.3262Q51.6484-80.5634 45.5079-77.5204Q39.4699-74.3776 35.2595-71.1192Q30.7274-67.6261 26.9412-63.5246Q23.1809-59.1275 20.7942-54.8172Q18.1533-50.1722 16.8393-45.2782Q15.5253-40.3842 15.5253-35.2697Q15.5253-30.1552 16.8393-25.2612Q18.1533-20.3672 20.7942-15.7222Q23.1809-11.412 26.9412-7.01476Q30.7274-2.91335 35.2595 0.579797Q39.4699 3.83816 45.5079 6.98101Q51.6484 10.024 57.2778 11.7868Q70.0257 15.9557 84.3626 15.9557Q98.7799 15.9557 111.528 11.7868Q117.016 10.0915 123.298 6.98101Q129.284 3.79659 133.466 0.579797Q138.185-2.94573 141.784-7.01476Q145.544-11.2576 148.012-15.7222Q150.572-20.4411 151.886-25.3014Q153.2-30.1617 153.2-35.2697Q153.2-40.3777 151.886-45.238Q150.572-50.0983 148.012-54.8172Q145.544-59.2818 141.784-63.5246Q138.185-67.5937 133.466-71.1192Q129.284-74.336 123.298-77.5204Q117.016-80.6309 111.528-82.3262Q98.7799-86.4951 84.3626-86.4951ZM157.077-37.2349Q143.299-26.1229 131.183-24.0606Q119.068-21.9983 109.436-25.3117Q99.8049-28.6251 86.5032-35.9822Q79.4041-39.8229 74.8591-42.0617Q70.314-44.3005 65.1852-45.8188Q60.0564-47.337 54.9743-47.337Q42.7116-47.337 32.3633-42.6676Q22.0151-37.9981 15.2312-31.2649L12.2109-34.3111Q19.6365-41.5824 30.7992-46.6267Q41.9619-51.671 54.9743-51.671Q60.9836-51.671 66.779-50.0159Q72.5743-48.3608 77.583-45.9787Q82.5917-43.5966 89.9164-39.5692Q102.584-32.5921 111.348-29.599Q120.112-26.6059 131.024-28.5314Q141.937-30.4569 154.424-40.6351L157.077-37.2349Z"/>
  </g>
  <g id="Ultralight-L" transform="matrix(1 0 0 1 475.975 1556)">
   <path d="M83.7366-90.1355Q103.441-90.1355 120.102-82.733Q136.763-75.3304 146.489-62.7338Q156.214-50.1371 156.214-35.2697Q156.214-20.4023 146.489-7.80564Q136.763 4.79099 120.102 12.1936Q103.441 19.5961 83.7366 19.5961Q64.0319 19.5961 47.371 12.1936Q30.7102 4.79099 20.9845-7.80564Q11.2588-20.4023 11.2588-35.2697Q11.2588-50.1371 20.9845-62.7338Q30.7102-75.3304 47.371-82.733Q64.0319-90.1355 83.7366-90.1355ZM83.7366-87.1211Q69.287-87.1211 56.464-82.9272Q50.8346-81.1519 44.5939-78.0838Q38.5685-74.9535 34.2579-71.62Q29.6256-68.0392 25.8519-63.9378Q22.054-59.4905 19.6172-55.1176Q16.9513-50.4352 15.6123-45.441Q14.2732-40.4468 14.2732-35.2697Q14.2732-30.0926 15.6123-25.0984Q16.9513-20.1042 19.6172-15.4218Q22.054-11.0489 25.8519-6.60158Q29.6256-2.50017 34.2579 1.08062Q38.5685 4.4141 44.5939 7.54443Q50.8346 10.6125 56.464 12.3878Q69.287 16.5817 83.7366 16.5817Q98.2666 16.5817 111.09 12.3878Q116.54 10.705 122.96 7.54443Q129.034 4.29742 133.215 1.08062Q137.984-2.46995 141.621-6.60158Q145.419-10.882 147.936-15.4218Q150.522-20.1907 151.861-25.1386Q153.2-30.0866 153.2-35.2697Q153.2-40.4528 151.861-45.4008Q150.522-50.3487 147.936-55.1176Q145.419-59.6574 141.621-63.9378Q137.984-68.0695 133.215-71.62Q129.034-74.8368 122.96-78.0838Q116.54-81.2444 111.09-82.9272Q98.2666-87.1211 83.7366-87.1211ZM155.8-37.3225Q142.385-26.5486 130.526-24.5865Q118.667-22.6243 109.155-25.9064Q99.6421-29.1885 86.4031-36.4705Q79.1913-40.3488 74.5711-42.6126Q69.9509-44.8765 64.7094-46.4135Q59.4679-47.9505 54.2606-47.9505Q42.073-47.9505 31.6747-43.3687Q21.2763-38.7869 14.3923-32.1664L12.2359-34.2986Q19.2984-41.1942 30.3359-46.1259Q41.3734-51.0575 54.2606-51.0575Q60.1573-51.0575 65.865-49.4149Q71.5727-47.7724 76.5376-45.4091Q81.5025-43.0457 88.8146-39.0308Q101.557-32.0161 110.403-28.9792Q119.248-25.9423 130.286-27.7989Q141.323-29.6556 153.923-39.7462L155.8-37.3225Z"/>
  </g>
  <g id="Black-M" transform="matrix(1 0 0 1 2861.07 1126)">
   <path d="M72.3346-85.2278Q89.4992-85.2278 104.115-78.577Q118.73-71.9261 127.338-60.483Q135.946-49.04 135.946-35.2606Q135.946-21.4813 127.338-10.0382Q118.73 1.40479 104.115 8.05566Q89.4992 14.7065 72.3346 14.7065Q55.1699 14.7065 40.5546 8.05566Q25.9392 1.40479 17.3309-10.0382Q8.72266-21.4813 8.72266-35.2606Q8.72266-49.04 17.3309-60.483Q25.9392-71.9261 40.5546-78.577Q55.1699-85.2278 72.3346-85.2278ZM72.3346-67.9718Q62.1995-67.9718 53.4663-65.0849Q49.4475-63.8907 45.434-61.7619Q41.384-59.6694 38.5232-57.4888Q35.6415-55.2977 33.0506-52.5198Q30.766-49.8562 29.2031-47.0316Q27.443-43.9474 26.7108-41.2422Q25.9787-38.5369 25.9787-35.2606Q25.9787-31.9843 26.7108-29.2791Q27.443-26.5739 29.2031-23.4897Q30.766-20.6651 33.0506-18.0015Q35.6415-15.2236 38.5232-13.0325Q41.384-10.8519 45.434-8.75934Q49.4475-6.63057 53.4663-5.43636Q62.1995-2.54951 72.3346-2.54951Q82.4177-2.54951 91.2652-5.43636Q95.1749-6.63577 99.2975-8.75934Q103.192-10.8258 106.146-13.0325Q109.401-15.478 111.619-18.0015Q114.074-20.717 115.528-23.4897Q117.226-26.5739 117.958-29.2817Q118.69-31.9896 118.69-35.2606Q118.69-38.5317 117.958-41.2396Q117.226-43.9474 115.528-47.0316Q114.074-49.8043 111.619-52.5198Q109.401-55.0433 106.146-57.4888Q103.192-59.6955 99.2975-61.7619Q95.1749-63.8855 91.2652-65.0849Q82.4177-67.9718 72.3346-67.9718ZM135.074-35.3544Q120.911-23.1433 109.037-20.4591Q97.1633-17.775 88.472-20.6566Q79.7807-23.5381 68.675-30.0384Q64.0332-32.728 61.2268-34.2051Q58.4204-35.6823 55.3907-36.687Q52.361-37.6917 49.5675-37.6917Q38.924-37.6917 31.3072-33.0164Q23.6904-28.3412 19.1785-21.7527L10.9444-34.6324Q17.3309-44.154 27.2943-49.5197Q37.2576-54.8854 49.5675-54.8854Q56.3375-54.8854 62.1705-53.3461Q68.0035-51.8067 72.4841-49.6754Q76.9648-47.5441 82.9252-44.0811Q91.7674-39.0188 97.4997-37.243Q103.232-35.4672 110.628-37.8736Q118.024-40.2799 127.412-49.48L135.074-35.3544Z"/>
  </g>
  <g id="Heavy-M" transform="matrix(1 0 0 1 2565.48 1126)">
   <path d="M71.2051-84.0984Q88.0858-84.0984 102.437-77.5879Q116.788-71.0774 125.238-59.8866Q133.688-48.6958 133.688-35.2606Q133.688-21.8255 125.238-10.6347Q116.788 0.556107 102.437 7.0666Q88.0858 13.5771 71.2051 13.5771Q54.3244 13.5771 39.9732 7.0666Q25.6219 0.556107 17.1723-10.6347Q8.72266-21.8255 8.72266-35.2606Q8.72266-48.6958 17.1723-59.8866Q25.6219-71.0774 39.9732-77.5879Q54.3244-84.0984 71.2051-84.0984ZM71.2051-69.1012Q60.9336-69.1012 51.9926-66.1541Q47.893-64.9298 43.7866-62.7677Q39.5781-60.584 36.7053-58.3842Q33.7577-56.1439 31.0756-53.2717Q28.6737-50.474 27.0846-47.5797Q25.2777-44.4051 24.4987-41.5261Q23.7198-38.6472 23.7198-35.2606Q23.7198-31.8741 24.4987-28.9951Q25.2777-26.1162 27.0846-22.9416Q28.6737-20.0472 31.0756-17.2496Q33.7577-14.3774 36.7053-12.137Q39.5781-9.93727 43.7866-7.75362Q47.893-5.59152 51.9926-4.36718Q60.9336-1.42006 71.2051-1.42006Q81.4517-1.42006 90.4799-4.36718Q94.5014-5.60384 98.6859-7.75362Q102.683-9.86297 105.705-12.137Q109.014-14.6293 111.335-17.2496Q113.867-20.069 115.388-22.9416Q117.133-26.1194 117.912-29.0045Q118.69-31.8896 118.69-35.2606Q118.69-38.6317 117.912-41.5168Q117.133-44.4019 115.388-47.5797Q113.867-50.4523 111.335-53.2717Q109.014-55.8919 105.705-58.3842Q102.683-60.6583 98.6859-62.7677Q94.5014-64.9175 90.4799-66.1541Q81.4517-69.1012 71.2051-69.1012ZM132.971-35.6192Q119.331-23.9792 107.832-21.4688Q96.3337-18.9584 87.8344-21.7915Q79.335-24.6247 68.3665-30.9981Q63.6152-33.7241 60.7021-35.2414Q57.789-36.7586 54.6296-37.7883Q51.4702-38.818 48.5101-38.818Q38.0744-38.818 30.4044-34.32Q22.7344-29.822 18.1296-23.4643L10.5735-34.6157Q17.1102-43.5297 26.8665-48.6445Q36.6228-53.7592 48.5101-53.7592Q54.8741-53.7592 60.4625-52.2701Q66.0509-50.7811 70.426-48.7018Q74.8012-46.6224 80.7045-43.23Q89.7141-38.1177 95.6287-36.2499Q101.543-34.3821 109.086-36.6295Q116.629-38.8768 125.991-47.839L132.971-35.6192Z"/>
  </g>
  <g id="Bold-M" transform="matrix(1 0 0 1 2270.04 1126)">
   <path d="M69.9417-82.8349Q86.5047-82.8349 100.561-76.4815Q114.616-70.128 122.889-59.2194Q131.161-48.3107 131.161-35.2606Q131.161-22.2106 122.889-11.3019Q114.616-0.393262 100.561 5.96019Q86.5047 12.3136 69.9417 12.3136Q53.3786 12.3136 39.3228 5.96019Q25.267-0.393262 16.9948-11.3019Q8.72266-22.2106 8.72266-35.2606Q8.72266-48.3107 16.9948-59.2194Q25.267-70.128 39.3228-76.4815Q53.3786-82.8349 69.9417-82.8349ZM69.9417-70.3647Q59.5175-70.3647 50.3441-67.3501Q46.1541-66.0921 41.9438-63.8927Q37.558-61.6071 34.6717-59.386Q31.6504-57.0905 28.8664-54.1128Q26.3331-51.1652 24.7148-48.1928Q22.8555-44.917 22.0242-41.8438Q21.1929-38.7705 21.1929-35.2606Q21.1929-31.7508 22.0242-28.6775Q22.8555-25.6042 24.7148-22.3285Q26.3331-19.356 28.8664-16.4084Q31.6504-13.4307 34.6717-11.1353Q37.558-8.91418 41.9438-6.62857Q46.1541-4.4292 50.3441-3.17115Q59.5175-0.156615 69.9417-0.156615Q80.371-0.156615 89.6016-3.17115Q93.748-4.44946 98.0019-6.62857Q102.115-8.78588 105.212-11.1353Q108.58-13.68 111.017-16.4084Q113.636-19.3441 115.231-22.3285Q117.028-25.611 117.859-28.6944Q118.69-31.7778 118.69-35.2606Q118.69-38.7435 117.859-41.8269Q117.028-44.9103 115.231-48.1928Q113.636-51.1772 111.017-54.1128Q108.58-56.8413 105.212-59.386Q102.115-61.7354 98.0019-63.8927Q93.748-66.0718 89.6016-67.3501Q80.371-70.3647 69.9417-70.3647ZM130.618-35.9155Q117.564-24.9143 106.485-22.5982Q95.4057-20.2821 87.1211-23.0611Q78.8365-25.8402 68.0215-32.0716Q63.1477-34.8385 60.1152-36.4005Q57.0827-37.9626 53.7782-39.0202Q50.4737-40.0778 47.3272-40.0778Q37.1239-40.0778 29.3945-35.7781Q21.665-31.4784 16.9563-25.3789L10.1585-34.5971Q16.8632-42.8314 26.388-47.6654Q35.9127-52.4993 47.3272-52.4993Q53.2371-52.4993 58.5518-51.0666Q63.8666-49.6339 68.1237-47.6126Q72.3809-45.5914 78.2204-42.2778Q87.4172-37.1097 93.5358-35.139Q99.6545-33.1683 107.361-35.2377Q115.067-37.3072 124.401-46.0033L130.618-35.9155Z"/>
  </g>
  <g id="Semibold-M" transform="matrix(1 0 0 1 1974.2 1126)">
   <path d="M69.0707-81.9639Q85.4147-81.9639 99.2669-75.7187Q113.119-69.4735 121.269-58.7594Q129.419-48.0453 129.419-35.2606Q129.419-22.476 121.269-11.7619Q113.119-1.04775 99.2669 5.19744Q85.4147 11.4426 69.0707 11.4426Q52.7266 11.4426 38.8745 5.19744Q25.0223-1.04775 16.8725-11.7619Q8.72266-22.476 8.72266-35.2606Q8.72266-48.0453 16.8725-58.7594Q25.0223-69.4735 38.8745-75.7187Q52.7266-81.9639 69.0707-81.9639ZM69.0707-71.2357Q58.5413-71.2357 49.2076-68.1747Q44.9552-66.8934 40.6733-64.6683Q36.1653-62.3124 33.2698-60.0765Q30.1977-57.7431 27.3433-54.6927Q24.7196-51.6417 23.081-48.6154Q21.1856-45.27 20.3182-42.0628Q19.4509-38.8555 19.4509-35.2606Q19.4509-31.6657 20.3182-28.4585Q21.1856-25.2513 23.081-21.9059Q24.7196-18.8795 27.3433-15.8286Q30.1977-12.7781 33.2698-10.4448Q36.1653-8.20886 40.6733-5.85297Q44.9552-3.62791 49.2076-2.34662Q58.5413 0.7144 69.0707 0.7144Q79.626 0.7144 88.996-2.34662Q93.2286-3.65365 97.5303-5.85297Q101.722-8.04335 104.872-10.4448Q108.281-13.0255 110.798-15.8286Q113.476-18.8443 115.123-21.9059Q116.956-25.2605 117.823-28.4806Q118.69-31.7007 118.69-35.2606Q118.69-38.8206 117.823-42.0407Q116.956-45.2608 115.123-48.6154Q113.476-51.6769 110.798-54.6927Q108.281-57.4958 104.872-60.0765Q101.722-62.4779 97.5303-64.6683Q93.2286-66.8676 88.996-68.1747Q79.626-71.2357 69.0707-71.2357ZM128.995-36.1197Q116.345-25.559 105.556-23.3768Q94.766-21.1947 86.6294-23.9364Q78.4928-26.6781 67.7836-32.8117Q62.8253-35.6067 59.7106-37.1997Q56.5958-38.7926 53.1913-39.8695Q49.7867-40.9464 46.5117-40.9464Q36.4686-40.9464 28.6982-36.7834Q20.9278-32.6204 16.1475-26.6988L9.8725-34.5842Q16.693-42.35 26.0581-46.9904Q35.4232-51.6307 46.5117-51.6307Q52.1086-51.6307 57.2346-50.2368Q62.3607-48.843 66.5365-46.8618Q70.7124-44.8806 76.5078-41.6215Q85.8337-36.4147 92.093-34.3731Q98.3523-32.3315 106.172-34.2783Q113.991-36.2252 123.305-44.7378L128.995-36.1197Z"/>
  </g>
  <g id="Medium-M" transform="matrix(1 0 0 1 1678.15 1126)">
   <path d="M68.4102-81.3035Q84.5882-81.3035 98.2859-75.1404Q111.984-68.9773 120.041-58.4106Q128.098-47.844 128.098-35.2606Q128.098-22.6773 120.041-12.1107Q111.984-1.54401 98.2859 4.61909Q84.5882 10.7822 68.4102 10.7822Q52.2322 10.7822 38.5345 4.61909Q24.8368-1.54401 16.7797-12.1107Q8.72266-22.6773 8.72266-35.2606Q8.72266-47.844 16.7797-58.4106Q24.8368-68.9773 38.5345-75.1404Q52.2322-81.3035 68.4102-81.3035ZM68.4102-71.8961Q57.801-71.8961 48.3459-68.7999Q44.0462-67.501 39.7101-65.2564Q35.1093-62.8472 32.2068-60.6002Q29.0961-58.238 26.1885-55.1324Q23.4961-52.0031 21.8422-48.9359Q19.9195-45.5376 19.0247-42.2288Q18.13-38.92 18.13-35.2606Q18.13-31.6013 19.0247-28.2925Q19.9195-24.9837 21.8422-21.5854Q23.4961-18.5182 26.1885-15.3889Q29.0961-12.2833 32.2068-9.92113Q35.1093-7.67406 39.7101-5.26488Q44.0462-3.02033 48.3459-1.72142Q57.801 1.37484 68.4102 1.37484Q79.0612 1.37484 88.5369-1.72142Q92.8348-3.05022 97.1727-5.26488Q101.425-7.48033 104.614-9.92113Q108.054-12.5292 110.632-15.3889Q113.355-18.4654 115.041-21.5854Q116.901-24.9948 117.796-28.3185Q118.69-31.6422 118.69-35.2606Q118.69-38.8791 117.796-42.2028Q116.901-45.5265 115.041-48.9359Q113.355-52.0559 110.632-55.1324Q108.054-57.9921 104.614-60.6002Q101.425-63.041 97.1727-65.2564Q92.8348-67.4711 88.5369-68.7999Q79.0612-71.8961 68.4102-71.8961ZM127.765-36.2746Q115.421-26.0478 104.851-23.9672Q94.2809-21.8867 86.2566-24.6001Q78.2322-27.3135 67.6033-33.3729Q62.5809-36.1892 59.4038-37.8056Q56.2267-39.4219 52.7462-40.5135Q49.2658-41.605 45.8934-41.605Q35.9718-41.605 28.1703-37.5456Q20.3688-33.4862 15.5341-27.6997L9.6556-34.5745Q16.5639-41.985 25.8079-46.4786Q35.052-50.9722 45.8934-50.9722Q51.2529-50.9722 56.2359-49.6077Q61.2189-48.2433 65.3331-46.2924Q69.4472-44.3416 75.2093-41.1238Q84.633-35.8878 90.999-33.7924Q97.365-31.6969 105.27-33.5508Q113.175-35.4047 122.474-43.7782L127.765-36.2746Z"/>
  </g>
  <g id="Regular-M" transform="matrix(1 0 0 1 1382.3 1126)">
   <path d="M67.5488-80.442Q83.5102-80.442 97.0065-74.386Q110.503-68.33 118.439-57.9557Q126.375-47.5814 126.375-35.2606Q126.375-22.9399 118.439-12.5656Q110.503-2.19131 97.0065 3.86472Q83.5102 9.92075 67.5488 9.92075Q51.5873 9.92075 38.0911 3.86472Q24.5948-2.19131 16.6587-12.5656Q8.72266-22.9399 8.72266-35.2606Q8.72266-47.5814 16.6587-57.9557Q24.5948-68.33 38.0911-74.386Q51.5873-80.442 67.5488-80.442ZM67.5488-72.7576Q56.8355-72.7576 47.2219-69.6153Q42.8606-68.2934 38.4536-66.0235Q33.7319-63.5448 30.8202-61.2831Q27.6593-58.8834 24.6822-55.7059Q21.9003-52.4743 20.2264-49.3539Q18.2679-45.8867 17.3375-42.4454Q16.4071-39.0041 16.4071-35.2606Q16.4071-31.5172 17.3375-28.0759Q18.2679-24.6346 20.2264-21.1674Q21.9003-18.047 24.6822-14.8154Q27.6593-11.6379 30.8202-9.23814Q33.7319-6.9765 38.4536-4.49781Q42.8606-2.22784 47.2219-0.905947Q56.8355 2.23628 67.5488 2.23628Q78.3244 2.23628 87.938-0.905947Q92.3211-2.26315 96.7063-4.49781Q101.037-6.74595 104.277-9.23814Q107.758-11.8819 110.415-14.8154Q113.197-17.9712 114.933-21.1674Q116.83-24.6481 117.76-28.1071Q118.69-31.566 118.69-35.2606Q118.69-38.9553 117.76-42.4142Q116.83-45.8732 114.933-49.3539Q113.197-52.5501 110.415-55.7059Q107.758-58.6394 104.277-61.2831Q101.037-63.7753 96.7063-66.0235Q92.3211-68.2581 87.938-69.6153Q78.3244-72.7576 67.5488-72.7576ZM126.161-36.4766Q114.216-26.6854 103.932-24.7373Q93.6482-22.7892 85.7702-25.4657Q77.8923-28.1422 67.368-34.1048Q62.2622-36.949 59.0036-38.5959Q55.7451-40.2428 52.1657-41.3534Q48.5863-42.464 45.0869-42.464Q35.3238-42.464 27.4817-38.5398Q19.6396-34.6157 14.7342-29.0051L9.3727-34.5618Q16.3955-41.5088 25.4817-45.811Q34.5678-50.1132 45.0869-50.1132Q50.1367-50.1132 54.9332-48.7871Q59.7296-47.461 63.7633-45.5498Q67.797-43.6386 73.5156-40.4746Q83.0669-35.2005 89.572-33.0349Q96.0771-30.8693 104.094-32.6019Q112.11-34.3345 121.39-42.5266L126.161-36.4766Z"/>
  </g>
  <g id="Light-M" transform="matrix(1 0 0 1 1086.41 1126)">
   <path d="M66.7202-79.6135Q82.4663-79.6135 95.7803-73.6569Q109.094-67.7003 116.906-57.5166Q124.718-47.3329 124.718-35.2606Q124.718-23.1884 116.906-13.0047Q109.094-2.821 95.7803 3.13561Q82.4663 9.09221 66.7202 9.09221Q50.9742 9.09221 37.6602 3.13561Q24.3462-2.821 16.5345-13.0047Q8.72266-23.1884 8.72266-35.2606Q8.72266-47.3329 16.5345-57.5166Q24.3462-67.7003 37.6602-73.6569Q50.9742-79.6135 66.7202-79.6135ZM66.7202-73.5861Q55.8578-73.5861 46.1448-70.4107Q41.7835-69.0723 37.2439-66.7692Q32.5388-64.307 29.4946-61.946Q26.2011-59.4302 23.2405-56.2527Q20.4089-52.9549 18.6687-49.7516Q16.6772-46.2346 15.7136-42.6608Q14.7501-39.087 14.7501-35.2606Q14.7501-31.4343 15.7136-27.8605Q16.6772-24.2866 18.6687-20.7697Q20.4089-17.5664 23.2405-14.2686Q26.2011-11.0911 29.4946-8.57531Q32.5388-6.21424 37.2439-3.75212Q41.7835-1.44902 46.1448-0.110552Q55.8578 3.06482 66.7202 3.06482Q77.645 3.06482 87.358-0.110552Q91.6914-1.45119 96.2589-3.75212Q100.706-6.08313 103.946-8.57531Q107.493-11.2522 110.2-14.2686Q113.032-17.474 114.834-20.7697Q116.763-24.3167 117.727-27.8916Q118.69-31.4666 118.69-35.2606Q118.69-39.0547 117.727-42.6297Q116.763-46.2046 114.834-49.7516Q113.032-53.0473 110.2-56.2527Q107.493-59.269 103.946-61.946Q100.706-64.4382 96.2589-66.7692Q91.6914-69.0701 87.358-70.4107Q77.645-73.5861 66.7202-73.5861ZM124.471-36.5926Q113.006-27.2488 103.062-25.4333Q93.1179-23.6177 85.3974-26.2528Q77.6769-28.8879 67.2354-34.7511Q61.9804-37.645 58.6225-39.325Q55.2646-41.0051 51.536-42.1405Q47.8075-43.276 44.1424-43.276Q34.4786-43.276 26.5703-39.4678Q18.6619-35.6596 13.6239-30.1982L9.40584-34.5452Q15.9481-40.9951 24.8685-45.1482Q33.789-49.3012 44.1424-49.3012Q49.0431-49.3012 53.7235-47.9917Q58.4039-46.6822 62.3797-44.7959Q66.3554-42.9095 72.0573-39.7621Q81.7081-34.4383 88.3209-32.2147Q94.9337-29.9911 103.116-31.6325Q111.298-33.274 120.728-41.35L124.471-36.5926Z"/>
  </g>
  <g id="Thin-M" transform="matrix(1 0 0 1 790.798 1126)">
   <path d="M65.6244-78.5177Q81.0856-78.5177 94.1585-72.6926Q107.231-66.8675 114.879-56.9358Q122.526-47.0041 122.526-35.2606Q122.526-23.5172 114.879-13.5855Q107.231-3.65381 94.1585 2.1713Q81.0856 7.99641 65.6244 7.99641Q50.1633 7.99641 37.0904 2.1713Q24.0175-3.65381 16.3701-13.5855Q8.72266-23.5172 8.72266-35.2606Q8.72266-47.0041 16.3701-56.9358Q24.0175-66.8675 37.0904-72.6926Q50.1633-78.5177 65.6244-78.5177ZM65.6244-74.6819Q54.5648-74.6819 44.7203-71.4627Q40.3589-70.1023 35.644-67.7554Q30.9609-65.3152 27.7413-62.8226Q24.2725-60.1535 21.3338-56.9759Q18.4365-53.5904 16.6086-50.2776Q14.5732-46.6949 13.5658-42.9457Q12.5584-39.1965 12.5584-35.2606Q12.5584-31.3247 13.5658-27.5756Q14.5732-23.8264 16.6086-20.2437Q18.4365-16.9308 21.3338-13.5454Q24.2725-10.3678 27.7413-7.69867Q30.9609-5.2061 35.644-2.7659Q40.3589-0.418961 44.7203 0.941422Q54.5648 4.16062 65.6244 4.16062Q76.7464 4.16062 86.5909 0.941422Q90.8586-0.377297 95.6671-2.7659Q100.268-5.20648 103.508-7.69867Q107.142-10.4194 109.915-13.5454Q112.812-16.8166 114.703-20.2437Q116.676-23.8784 117.683-27.6067Q118.69-31.3351 118.69-35.2606Q118.69-39.1862 117.683-42.9146Q116.676-46.6429 114.703-50.2776Q112.812-53.7047 109.915-56.9759Q107.142-60.1019 103.508-62.8226Q100.268-65.3148 95.6671-67.7554Q90.8586-70.144 86.5909-71.4627Q76.7464-74.6819 65.6244-74.6819ZM122.235-36.746Q111.407-27.9939 101.912-26.3537Q92.4166-24.7136 84.9043-27.2938Q77.392-29.8741 67.0601-35.6058Q61.6079-38.5655 58.1184-40.2893Q54.629-42.0132 50.7032-43.1815Q46.7775-44.3499 42.8932-44.3499Q33.3609-44.3499 25.3649-40.6951Q17.3689-37.0403 12.1556-31.7761L9.44967-34.5233Q15.3564-40.3157 24.0576-44.2715Q32.7589-48.2273 42.8932-48.2273Q47.5966-48.2273 52.1236-46.9397Q56.6507-45.6522 60.5497-43.7987Q64.4487-41.9452 70.1287-38.8197Q79.9109-33.4301 86.6662-31.1298Q93.4215-28.8295 101.823-30.3504Q110.224-31.8714 119.851-39.794L122.235-36.746Z"/>
  </g>
  <g id="Ultralight-M" transform="matrix(1 0 0 1 494.648 1126)">
   <path d="M65.0632-77.9564Q80.3784-77.9564 93.3278-72.1987Q106.277-66.4409 113.84-56.6383Q121.404-46.8357 121.404-35.2606Q121.404-23.6855 113.84-13.883Q106.277-4.08037 93.3278 1.67738Q80.3784 7.43514 65.0632 7.43514Q49.748 7.43514 36.7986 1.67738Q23.8491-4.08037 16.2859-13.883Q8.72266-23.6855 8.72266-35.2606Q8.72266-46.8357 16.2859-56.6383Q23.8491-66.4409 36.7986-72.1987Q49.748-77.9564 65.0632-77.9564ZM65.0632-75.2432Q53.9025-75.2432 43.9906-72.0015Q39.6293-70.6299 34.8246-68.2605Q30.1526-65.8316 26.8433-63.2716Q23.2847-60.5239 20.3572-57.3464Q17.4262-53.916 15.5534-50.547Q13.4956-46.9306 12.4657-43.0916Q11.4359-39.2527 11.4359-35.2606Q11.4359-31.2686 12.4657-27.4296Q13.4956-23.5907 15.5534-19.9743Q17.4262-16.6053 20.3572-13.1749Q23.2847-9.99739 26.8433-7.24966Q30.1526-4.68974 34.8246-2.26076Q39.6293 0.10863 43.9906 1.48024Q53.9025 4.72189 65.0632 4.72189Q76.2862 4.72189 86.198 1.48024Q90.432 0.172744 95.3641-2.26076Q100.043-4.75747 103.283-7.24966Q106.963-9.99287 109.769-13.1749Q112.7-16.4798 114.635-19.9743Q116.631-23.6539 117.661-27.4608Q118.69-31.2677 118.69-35.2606Q118.69-39.2536 117.661-43.0605Q116.631-46.8674 114.635-50.547Q112.7-54.0415 109.769-57.3464Q106.963-60.5284 103.283-63.2716Q100.043-65.7638 95.3641-68.2605Q90.432-70.694 86.198-72.0015Q76.2862-75.2432 65.0632-75.2432ZM121.09-36.8246Q110.587-28.3756 101.322-26.8252Q92.0574-25.2748 84.6517-27.8271Q77.2461-30.3793 66.9703-36.0436Q61.417-39.0369 57.8602-40.7833Q54.3035-42.5296 50.2767-43.7147Q46.2499-44.8999 42.2533-44.8999Q32.7884-44.8999 24.7475-41.3237Q16.7066-37.7475 11.4035-32.5844L9.47212-34.5121Q15.0533-39.9678 23.6423-43.8225Q32.2313-47.6773 42.2533-47.6773Q46.8557-47.6773 51.3042-46.4009Q55.7526-45.1246 59.6124-43.2879Q63.4721-41.4513 69.1409-38.337Q78.9905-32.9138 85.8187-30.5742Q92.647-28.2346 101.161-29.6938Q109.674-31.1529 119.402-38.997L121.09-36.8246Z"/>
  </g>
  <g id="Black-S" transform="matrix(1 0 0 1 2876.42 696)">
   <path d="M56.9824-74.707Q70.5078-74.707 82.0312-69.458Q93.5547-64.209 100.342-55.1758Q107.129-46.1426 107.129-35.2539Q107.129-24.3652 100.342-15.332Q93.5547-6.29883 82.0312-1.0498Q70.5078 4.19922 56.9824 4.19922Q43.457 4.19922 31.9336-1.0498Q20.4102-6.29883 13.623-15.332Q6.83594-24.3652 6.83594-35.2539Q6.83594-46.1426 13.623-55.1758Q20.4102-64.209 31.9336-69.458Q43.457-74.707 56.9824-74.707ZM56.9824-60.5957Q49.0723-60.5957 42.2852-58.3496Q39.1602-57.4219 36.0352-55.7617Q32.9102-54.1504 30.6641-52.4414Q28.418-50.7324 26.416-48.584Q24.6582-46.5332 23.4375-44.3359Q22.0703-41.9434 21.5088-39.8682Q20.9473-37.793 20.9473-35.2539Q20.9473-32.7148 21.5088-30.6396Q22.0703-28.5645 23.4375-26.1719Q24.6582-23.9746 26.416-21.9238Q28.418-19.7754 30.6641-18.0664Q32.9102-16.3574 36.0352-14.7461Q39.1602-13.0859 42.2852-12.1582Q49.0723-9.91211 56.9824-9.91211Q64.8438-9.91211 71.7285-12.1582Q74.7559-13.0859 77.9785-14.7461Q81.0059-16.3574 83.3008-18.0664Q85.8398-19.9707 87.5488-21.9238Q89.4531-24.0234 90.5762-26.1719Q91.8945-28.5645 92.4561-30.6396Q93.0176-32.7148 93.0176-35.2539Q93.0176-37.793 92.4561-39.8682Q91.8945-41.9434 90.5762-44.3359Q89.4531-46.4844 87.5488-48.584Q85.8398-50.5371 83.3008-52.4414Q81.0059-54.1504 77.9785-55.7617Q74.7559-57.4219 71.7285-58.3496Q64.8438-60.5957 56.9824-60.5957ZM106.396-35.2539Q95.166-25.5371 85.7666-23.3887Q76.3672-21.2402 69.5068-23.5107Q62.6465-25.7812 53.9062-30.9082Q50.293-33.0078 48.1201-34.1553Q45.9473-35.3027 43.6035-36.084Q41.2598-36.8652 39.1113-36.8652Q30.7129-36.8652 24.7559-33.1543Q18.7988-29.4434 15.2832-24.2188L8.69141-34.7656Q13.623-42.3828 21.4844-46.6553Q29.3457-50.9277 39.1113-50.9277Q44.5312-50.9277 49.1699-49.707Q53.8086-48.4863 57.3486-46.8018Q60.8887-45.1172 65.5762-42.3828Q72.4609-38.4277 76.9043-37.0605Q81.3477-35.6934 87.1094-37.6221Q92.8711-39.5508 100.244-46.8262L106.396-35.2539Z"/>
  </g>
  <g id="Heavy-S" transform="matrix(1 0 0 1 2580.57 696)">
   <path d="M56.1224-73.847Q69.4325-73.847 80.7534-68.7053Q92.0742-63.5637 98.7416-54.7218Q105.409-45.88 105.409-35.2539Q105.409-24.6278 98.7416-15.786Q92.0742-6.94414 80.7534-1.80247Q69.4325 3.33921 56.1224 3.33921Q42.8123 3.33921 31.4915-1.80247Q20.1706-6.94414 13.5033-15.786Q6.83594-24.6278 6.83594-35.2539Q6.83594-45.88 13.5033-54.7218Q20.1706-63.5637 31.4915-68.7053Q42.8123-73.847 56.1224-73.847ZM56.1224-61.4557Q48.1146-61.4557 41.1625-59.1623Q37.9684-58.2109 34.7809-56.5265Q31.5182-54.8351 29.2788-53.1225Q26.9933-51.3862 24.9113-49.1571Q23.0595-47.0002 21.8248-44.7538Q20.4219-42.2903 19.8245-40.0835Q19.2272-37.8767 19.2272-35.2539Q19.2272-32.6311 19.8245-30.4243Q20.4219-28.2175 21.8248-25.754Q23.0595-23.5076 24.9113-21.3507Q26.9933-19.1216 29.2788-17.3853Q31.5182-15.6727 34.7809-13.9813Q37.9684-12.2969 41.1625-11.3455Q48.1146-9.0521 56.1224-9.0521Q64.1044-9.0521 71.1311-11.3455Q74.2604-12.3072 77.5127-13.9813Q80.6135-15.6187 82.966-17.3853Q85.5421-19.3254 87.3335-21.3507Q89.2973-23.5328 90.4688-25.754Q91.823-28.2181 92.4203-30.4301Q93.0176-32.6421 93.0176-35.2539Q93.0176-37.8657 92.4203-40.0777Q91.823-42.2897 90.4688-44.7538Q89.2973-46.975 87.3335-49.1571Q85.5421-51.1824 82.966-53.1225Q80.6135-54.8891 77.5127-56.5265Q74.2604-58.2006 71.1311-59.1623Q64.1044-61.4557 56.1224-61.4557ZM104.814-35.4656Q93.9694-26.18 84.8475-24.1632Q75.7255-22.1463 69.0092-24.3808Q62.2929-26.6152 53.6594-31.6463Q49.9715-33.7708 47.7201-34.9483Q45.4687-36.1258 43.0331-36.9252Q40.5975-37.7246 38.3277-37.7246Q30.0943-37.7246 24.1002-34.1505Q18.1062-30.5763 14.5281-25.53L8.36996-34.7535Q13.4914-41.9146 21.1969-45.9915Q28.9024-50.0683 38.3277-50.0683Q43.4195-50.0683 47.8638-48.8886Q52.3081-47.7088 55.7654-46.0655Q59.2226-44.4221 63.8634-41.746Q70.8786-37.7545 75.4642-36.3161Q80.0498-34.8776 85.9155-36.682Q91.7812-38.4864 99.1136-45.5731L104.814-35.4656Z"/>
  </g>
  <g id="Bold-S" transform="matrix(1 0 0 1 2284.82 696)">
   <path d="M55.1604-72.885Q68.2296-72.885 79.3239-67.8634Q90.4181-62.8418 96.9515-54.214Q103.485-45.5862 103.485-35.2539Q103.485-24.9216 96.9515-16.2938Q90.4181-7.66602 79.3239-2.64443Q68.2296 2.37716 55.1604 2.37716Q42.0911 2.37716 30.9969-2.64443Q19.9026-7.66602 13.3693-16.2938Q6.83594-24.9216 6.83594-35.2539Q6.83594-45.5862 13.3693-54.214Q19.9026-62.8418 30.9969-67.8634Q42.0911-72.885 55.1604-72.885ZM55.1604-62.4178Q47.0433-62.4178 39.9067-60.0714Q36.6352-59.0936 33.3779-57.382Q29.9612-55.6011 27.7292-53.8844Q25.3996-52.1176 23.2281-49.7983Q21.2711-47.5226 20.0208-45.2213Q18.5778-42.6784 17.9405-40.3243Q17.3031-37.9703 17.3031-35.2539Q17.3031-32.5375 17.9405-30.1835Q18.5778-27.8295 20.0208-25.2865Q21.2711-22.9852 23.2281-20.7095Q25.3996-18.3902 27.7292-16.6234Q29.9612-14.9067 33.3779-13.1258Q36.6352-11.4142 39.9067-10.4364Q47.0433-8.09005 55.1604-8.09005Q63.2774-8.09005 70.4628-10.4364Q73.7061-11.4361 76.9917-13.1258Q80.1745-14.7924 82.5915-16.6234Q85.2089-18.6035 87.0927-20.7095Q89.1229-22.9839 90.3487-25.2865Q91.7429-27.8307 92.3802-30.1957Q93.0176-32.5606 93.0176-35.2539Q93.0176-37.9472 92.3802-40.3121Q91.7429-42.6771 90.3487-45.2213Q89.1229-47.5239 87.0927-49.7983Q85.2089-51.9043 82.5915-53.8844Q80.1745-55.7155 76.9917-57.382Q73.7061-59.0718 70.4628-60.0714Q63.2774-62.4178 55.1604-62.4178ZM103.043-35.7024Q92.6308-26.8992 83.8193-25.0296Q75.0077-23.16 68.4525-25.354Q61.8974-27.5481 53.3833-32.472Q49.6119-34.6243 47.2727-35.8353Q44.9334-37.0464 42.395-37.8662Q39.8566-38.686 37.4512-38.686Q29.4022-38.686 23.3668-35.2648Q17.3314-31.8436 13.6834-26.9968L8.01038-34.7399Q13.3442-41.3908 20.8753-45.2489Q28.4064-49.107 37.4512-49.107Q42.1759-49.107 46.4028-47.973Q50.6296-46.839 53.9943-45.2418Q57.3589-43.6446 61.9475-41.0336Q69.1085-37.0014 73.8532-35.4833Q78.5979-33.9651 84.5799-35.6304Q90.562-37.2957 97.849-44.1715L103.043-35.7024Z"/>
  </g>
  <g id="Semibold-S" transform="matrix(1 0 0 1 1988.77 696)">
   <path d="M54.4971-72.2217Q67.4003-72.2217 78.3384-67.2829Q89.2764-62.3441 95.7174-53.8639Q102.158-45.3837 102.158-35.2539Q102.158-25.1241 95.7174-16.6439Q89.2764-8.16367 78.3384-3.22487Q67.4003 1.71393 54.4971 1.71393Q41.5939 1.71393 30.6559-3.22487Q19.7179-8.16367 13.2769-16.6439Q6.83594-25.1241 6.83594-35.2539Q6.83594-45.3837 13.2769-53.8639Q19.7179-62.3441 30.6559-67.2829Q41.5939-72.2217 54.4971-72.2217ZM54.4971-63.081Q46.3048-63.081 39.041-60.6982Q35.7162-59.7021 32.4106-57.9718Q28.8878-56.1292 26.661-54.4097Q24.3009-52.6218 22.0676-50.2403Q20.0382-47.8828 18.7771-45.5435Q17.3065-42.9459 16.6416-40.4904Q15.9767-38.0348 15.9767-35.2539Q15.9767-32.473 16.6416-30.0174Q17.3065-27.5619 18.7771-24.9643Q20.0382-22.6251 22.0676-20.2676Q24.3009-17.886 26.661-16.0982Q28.8878-14.3787 32.4106-12.536Q35.7162-10.8057 39.041-9.80962Q46.3048-7.42682 54.4971-7.42682Q62.7072-7.42682 70.0021-9.80962Q73.3239-10.8355 76.6325-12.536Q79.8719-14.2227 82.3333-16.0982Q84.9793-18.1059 86.9266-20.2676Q89.0027-22.6055 90.2659-24.9643Q91.6877-27.5637 92.3526-30.0341Q93.0176-32.5045 93.0176-35.2539Q93.0176-38.0033 92.3526-40.4737Q91.6877-42.9441 90.2659-45.5435Q89.0027-47.9023 86.9266-50.2403Q84.9793-52.402 82.3333-54.4097Q79.8719-56.2851 76.6325-57.9718Q73.3239-59.6723 70.0021-60.6982Q62.7072-63.081 54.4971-63.081ZM101.822-35.8656Q91.708-27.3949 83.1104-25.6268Q74.5129-23.8587 68.0688-26.025Q61.6247-28.1912 53.1929-33.0412Q49.3641-35.2127 46.9642-36.4469Q44.5644-37.6811 41.9551-38.5149Q39.3458-39.3488 36.8469-39.3488Q28.9252-39.3488 22.8612-36.0331Q16.7973-32.7174 13.1011-28.008L7.76249-34.7306Q13.2427-41.0297 20.6536-44.737Q28.0645-48.4442 36.8469-48.4442Q41.3186-48.4442 45.3955-47.3418Q49.4725-46.2394 52.7733-44.674Q56.0741-43.1086 60.6266-40.5425Q67.8882-36.4823 72.7426-34.9091Q77.5969-33.336 83.6592-34.9054Q89.7215-36.4748 96.9772-43.2052L101.822-35.8656Z"/>
  </g>
  <g id="Medium-S" transform="matrix(1 0 0 1 1692.56 696)">
   <path d="M53.9942-71.7189Q66.7715-71.7189 77.5911-66.8428Q88.4107-61.9668 94.7816-53.5985Q101.153-45.2301 101.153-35.2539Q101.153-25.2777 94.7816-16.9094Q88.4107-8.54102 77.5911-3.66499Q66.7715 1.21104 53.9942 1.21104Q41.217 1.21104 30.3974-3.66499Q19.5778-8.54102 13.2069-16.9094Q6.83594-25.2777 6.83594-35.2539Q6.83594-45.2301 13.2069-53.5985Q19.5778-61.9668 30.3974-66.8428Q41.217-71.7189 53.9942-71.7189ZM53.9942-63.5839Q45.7448-63.5839 38.3845-61.1734Q35.0193-60.1635 31.6772-58.419Q28.0739-56.5296 25.8509-54.8079Q23.4679-53.0041 21.1878-50.5754Q19.1033-48.1558 17.8341-45.7879Q16.3426-43.1487 15.6568-40.6163Q14.9709-38.0838 14.9709-35.2539Q14.9709-32.424 15.6568-29.8916Q16.3426-27.3591 17.8341-24.7199Q19.1033-22.352 21.1878-19.9324Q23.4679-17.5037 25.8509-15.6999Q28.0739-13.9783 31.6772-12.0888Q35.0193-10.3443 38.3845-9.3344Q45.7448-6.92393 53.9942-6.92393Q62.2749-6.92393 69.6528-9.3344Q73.0342-10.3801 76.3601-12.0888Q79.6424-13.7907 82.1375-15.6999Q84.8052-17.7285 86.8007-19.9324Q88.9115-22.3186 90.2032-24.7199Q91.6459-27.3612 92.3317-29.9116Q93.0176-32.462 93.0176-35.2539Q93.0176-38.0458 92.3317-40.5962Q91.6459-43.1466 90.2032-45.7879Q88.9115-48.1892 86.8007-50.5754Q84.8052-52.7793 82.1375-54.8079Q79.6424-56.7171 76.3601-58.419Q73.0342-60.1277 69.6528-61.1734Q62.2749-63.5839 53.9942-63.5839ZM100.896-35.9894Q91.0083-27.7709 82.573-26.0797Q74.1376-24.3886 67.7778-26.5337Q61.4179-28.6788 53.0486-33.4728Q49.1761-35.6588 46.7303-36.9106Q44.2846-38.1624 41.6216-39.0068Q38.9586-39.8513 36.3887-39.8513Q28.5634-39.8513 22.4778-36.6156Q16.3923-33.3798 12.6596-28.7748L7.57453-34.7235Q13.1658-40.756 20.4855-44.3488Q27.8053-47.9417 36.3887-47.9417Q40.6685-47.9417 44.6318-46.8632Q48.5951-45.7847 51.8475-44.2435Q55.0999-42.7022 59.6251-40.1701Q66.9629-36.0886 71.9005-34.4738Q76.838-32.859 82.9611-34.3557Q89.0842-35.8524 96.3161-42.4725L100.896-35.9894Z"/>
  </g>
  <g id="Regular-S" transform="matrix(1 0 0 1 1396.51 696)">
   <path d="M53.3383-71.0629Q65.9514-71.0629 76.6165-66.2688Q87.2816-61.4746 93.5611-53.2522Q99.8407-45.0298 99.8407-35.2539Q99.8407-25.478 93.5611-17.2556Q87.2816-9.0332 76.6165-4.23905Q65.9514 0.555099 53.3383 0.555099Q40.7252 0.555099 30.0601-4.23905Q19.395-9.0332 13.1155-17.2556Q6.83594-25.478 6.83594-35.2539Q6.83594-45.0298 13.1155-53.2522Q19.395-61.4746 30.0601-66.2688Q40.7252-71.0629 53.3383-71.0629ZM53.3383-64.2398Q45.0144-64.2398 37.5283-61.7933Q34.1103-60.7653 30.7206-59.0024Q27.0122-57.0518 24.7944-55.3274Q22.3813-53.5028 20.0401-51.0125Q17.8839-48.512 16.6041-46.1066Q15.0853-43.4133 14.3722-40.7805Q13.659-38.1476 13.659-35.2539Q13.659-32.3602 14.3722-29.7273Q15.0853-27.0945 16.6041-24.4012Q17.8839-21.9958 20.0401-19.4953Q22.3813-17.005 24.7944-15.1804Q27.0122-13.456 30.7206-11.5054Q34.1103-9.7425 37.5283-8.71454Q45.0144-6.26799 53.3383-6.26799Q61.711-6.26799 69.1972-8.71454Q72.6562-9.78618 76.0048-11.5054Q79.3431-13.2273 81.8822-15.1804Q84.578-17.2363 86.6365-19.4953Q88.7927-21.9444 90.1213-24.4012Q91.5913-27.097 92.3044-29.7517Q93.0176-32.4065 93.0176-35.2539Q93.0176-38.1014 92.3044-40.7561Q91.5913-43.4108 90.1213-46.1066Q88.7927-48.5634 86.6365-51.0125Q84.578-53.2715 81.8822-55.3274Q79.3431-57.2805 76.0048-59.0024Q72.6562-60.7216 69.1972-61.7933Q61.711-64.2398 53.3383-64.2398ZM99.689-36.1508Q90.0956-28.2612 81.8719-26.6704Q73.6482-25.0797 67.3982-27.1973Q61.1482-29.3149 52.8603-34.0358Q48.9309-36.2407 46.4253-37.5154Q43.9196-38.7901 41.1865-39.6484Q38.4534-40.5068 35.791-40.5068Q28.0916-40.5068 21.9778-37.3754Q15.864-34.2439 12.0837-29.7749L7.32936-34.7142Q13.0654-40.3988 20.2662-43.8425Q27.4671-47.2862 35.791-47.2862Q39.8206-47.2862 43.6356-46.2389Q47.4507-45.1917 50.6399-43.6819Q53.8292-42.1721 58.3188-39.6844Q65.7561-35.5751 70.8021-33.906Q75.8481-32.2368 82.0505-33.6387Q88.253-35.0406 95.4538-41.5168L99.689-36.1508Z"/>
  </g>
  <g id="Light-S" transform="matrix(1 0 0 1 1100.53 696)">
   <path d="M52.6054-70.33Q65.0279-70.33 75.5317-65.6238Q86.0356-60.9176 92.2052-52.8638Q98.3748-44.8099 98.3748-35.2539Q98.3748-25.6979 92.2052-17.6441Q86.0356-9.59023 75.5317-4.88404Q65.0279-0.177837 52.6054-0.177837Q40.1829-0.177837 29.679-4.88404Q19.1752-9.59023 13.0056-17.6441Q6.83594-25.6979 6.83594-35.2539Q6.83594-44.8099 13.0056-52.8638Q19.1752-60.9176 29.679-65.6238Q40.1829-70.33 52.6054-70.33ZM52.6054-64.9728Q44.1495-64.9728 36.5755-62.4969Q33.1575-61.4543 29.6505-59.662Q25.9568-57.7261 23.6217-55.9138Q21.0913-53.9865 18.7648-51.4963Q16.5647-48.9371 15.2262-46.4584Q13.6781-43.7212 12.9356-40.971Q12.1932-38.2209 12.1932-35.2539Q12.1932-32.2869 12.9356-29.5368Q13.6781-26.7866 15.2262-24.0494Q16.5647-21.5707 18.7648-19.0115Q21.0913-16.5213 23.6217-14.5941Q25.9568-12.7817 29.6505-10.8458Q33.1575-9.05354 36.5755-8.01092Q44.1495-5.53505 52.6054-5.53505Q61.11-5.53505 68.6841-8.01092Q72.0992-9.06791 75.609-10.8458Q79.05-12.6409 81.589-14.5941Q84.3435-16.6793 86.4459-19.0115Q88.6461-21.5046 90.0333-24.0494Q91.5326-26.8039 92.2751-29.5612Q93.0176-32.3185 93.0176-35.2539Q93.0176-38.1893 92.2751-40.9466Q91.5326-43.7039 90.0333-46.4584Q88.6461-49.0032 86.4459-51.4963Q84.3435-53.8285 81.589-55.9138Q79.05-57.8669 75.609-59.662Q72.0992-61.4399 68.6841-62.4969Q61.11-64.9728 52.6054-64.9728ZM98.1939-36.2534Q89.0255-28.7596 81.1023-27.2861Q73.1792-25.8126 67.0684-27.8936Q60.9577-29.9745 52.743-34.6075Q48.6817-36.8564 46.0881-38.1604Q43.4945-39.4644 40.6295-40.3447Q37.7645-41.2251 34.9555-41.2251Q27.344-41.2251 21.1716-38.1962Q14.9991-35.1674 11.1015-30.8303L7.35868-34.6996Q12.6696-39.9444 19.7239-43.2562Q26.7781-46.5679 34.9555-46.5679Q38.8531-46.5679 42.5656-45.5353Q46.278-44.5028 49.4159-43.0149Q52.5538-41.5271 57.0288-39.0541Q64.5541-34.9008 69.6953-33.1804Q74.8366-31.4599 81.1857-32.7812Q87.5347-34.1024 94.8675-40.476L98.1939-36.2534Z"/>
  </g>
  <g id="Thin-S" transform="matrix(1 0 0 1 804.786 696)">
   <path d="M51.636-69.3606Q63.8065-69.3606 74.0971-64.7707Q84.3876-60.1809 90.4119-52.35Q96.4361-44.5191 96.4361-35.2539Q96.4361-25.9887 90.4119-18.1578Q84.3876-10.327 74.0971-5.73708Q63.8065-1.1472 51.636-1.1472Q39.4655-1.1472 29.1749-5.73708Q18.8844-10.327 12.8601-18.1578Q6.83594-25.9887 6.83594-35.2539Q6.83594-44.5191 12.8601-52.35Q18.8844-60.1809 29.1749-64.7707Q39.4655-69.3606 51.636-69.3606ZM51.636-65.9421Q43.0057-65.9421 35.3153-63.4275Q31.8973-62.3655 28.2352-60.5344Q24.5609-58.6179 22.0707-56.6892Q19.3852-54.6263 17.0781-52.1361Q14.8198-49.4994 13.4038-46.9237Q11.8169-44.1283 11.0357-41.2231Q10.2544-38.3178 10.2544-35.2539Q10.2544-32.19 11.0357-29.2847Q11.8169-26.3795 13.4038-23.5841Q14.8198-21.0084 17.0781-18.3718Q19.3852-15.8815 22.0707-13.8186Q24.5609-11.8899 28.2352-9.97338Q31.8973-8.14233 35.3153-7.08032Q43.0057-4.56569 51.636-4.56569Q60.3152-4.56569 68.0056-7.08032Q71.3625-8.11793 75.0856-9.97338Q78.6622-11.8654 81.2013-13.8186Q84.0333-15.9426 86.1939-18.3718Q88.4522-20.923 89.917-23.5841Q91.4551-26.4161 92.2363-29.3091Q93.0176-32.2022 93.0176-35.2539Q93.0176-38.3056 92.2363-41.1987Q91.4551-44.0917 89.917-46.9237Q88.4522-49.5848 86.1939-52.1361Q84.0333-54.5652 81.2013-56.6892Q78.6622-58.6424 75.0856-60.5344Q71.3625-62.3899 68.0056-63.4275Q60.3152-65.9421 51.636-65.9421ZM96.2163-36.3891Q87.6102-29.4188 80.0845-28.1004Q72.5588-26.782 66.6322-28.8145Q60.7056-30.8469 52.5879-35.3636Q48.3521-37.6707 45.6422-39.0134Q42.9323-40.3562 39.8928-41.2656Q36.8533-42.175 33.8504-42.175Q26.3552-42.175 20.1053-39.2819Q13.8553-36.3888 9.80259-32.2262L7.39745-34.6802Q12.1461-39.3434 19.0065-42.4807Q25.8669-45.6179 33.8504-45.6179Q37.5736-45.6179 41.1503-44.6047Q44.727-43.5916 47.7971-42.1328Q50.8671-40.6741 55.3227-38.2204Q62.9643-34.009 68.2316-32.2207Q73.4989-30.4324 80.0418-31.647Q86.5847-32.8617 94.092-39.0995L96.2163-36.3891Z"/>
  </g>
  <g id="Ultralight-S" transform="matrix(1 0 0 1 508.572 696)">
   <path d="M51.1395-68.8641Q63.1809-68.8641 73.3622-64.3338Q83.5436-59.8035 89.4933-52.0868Q95.4431-44.3702 95.4431-35.2539Q95.4431-26.1376 89.4933-18.421Q83.5436-10.7043 73.3622-6.174Q63.1809-1.64371 51.1395-1.64371Q39.0981-1.64371 28.9168-6.174Q18.7354-10.7043 12.7857-18.421Q6.83594-26.1376 6.83594-35.2539Q6.83594-44.3702 12.7857-52.0868Q18.7354-59.8035 28.9168-64.3338Q39.0981-68.8641 51.1395-68.8641ZM51.1395-66.4386Q42.4198-66.4386 34.6698-63.9041Q31.2519-62.8322 27.5103-60.9813Q23.8459-59.0747 21.2763-57.0865Q18.5114-54.954 16.2142-52.4638Q13.9261-49.7873 12.4704-47.162Q10.8636-44.3368 10.0625-41.3522Q9.26141-38.3675 9.26141-35.2539Q9.26141-32.1403 10.0625-29.1556Q10.8636-26.171 12.4704-23.3458Q13.9261-20.7205 16.2142-18.0441Q18.5114-15.5538 21.2763-13.4214Q23.8459-11.4331 27.5103-9.52652Q31.2519-7.67562 34.6698-6.60368Q42.4198-4.06918 51.1395-4.06918Q59.908-4.06918 67.658-6.60368Q70.9852-7.63135 74.8175-9.52652Q78.4636-11.4682 81.0027-13.4214Q83.8744-15.5652 86.0648-18.0441Q88.3529-20.6251 89.8574-23.3458Q91.4154-26.2175 92.2165-29.1801Q93.0176-32.1426 93.0176-35.2539Q93.0176-38.3652 92.2165-41.3278Q91.4154-44.2903 89.8574-47.162Q88.3529-49.8827 86.0648-52.4638Q83.8744-54.9426 81.0027-57.0865Q78.4636-59.0396 74.8175-60.9813Q70.9852-62.8765 67.658-63.9041Q59.908-66.4386 51.1395-66.4386ZM95.2035-36.4586Q86.8853-29.7564 79.5632-28.5174Q72.241-27.2785 66.4088-29.2861Q60.5765-31.2938 52.5085-35.7508Q48.1833-38.0877 45.4138-39.4504Q42.6443-40.813 39.5154-41.7373Q36.3866-42.6616 33.2844-42.6616Q25.8488-42.6616 19.5591-39.838Q13.2694-37.0144 9.13727-32.9412L7.41731-34.6703Q11.878-39.0356 18.6391-42.0835Q25.4002-45.1314 33.2844-45.1314Q36.9182-45.1314 40.4254-44.1281Q43.9326-43.1248 46.9679-41.681Q50.0032-40.2371 54.4489-37.7934Q62.15-33.5522 67.4819-31.7292Q72.8137-29.9061 79.4559-31.0661Q86.0981-32.2261 93.6948-38.3944L95.2035-36.4586Z"/>
  </g>
 </g>
</svg>
