<?xml version="1.0" encoding="UTF-8"?>
<!--Generator: Apple Native CoreSVG 175.5-->
<!DOCTYPE svg
PUBLIC "-//W3C//DTD SVG 1.1//EN"
       "http://www.w3.org/Graphics/SVG/1.1/DTD/svg11.dtd">
<svg version="1.1" xmlns="http://www.w3.org/2000/svg" xmlns:xlink="http://www.w3.org/1999/xlink" width="3300" height="2200">
 <!--glyph: "spicy", point size: 100.0, font version: "17.0d4e2", template writer version: "0"-->
 <g id="Notes">
  <rect height="2200" id="artboard" style="fill:white;opacity:1" width="3300" x="0" y="0"/>
  <line style="fill:none;stroke:black;opacity:1;stroke-width:0.5;" x1="263" x2="3036" y1="292" y2="292"/>
  <text style="stroke:none;fill:black;font-family:SF Pro,SF Pro Display,SF Pro Text,sans-serif;font-weight:bold;" transform="matrix(1 0 0 1 263 322)">Weight/Scale Variations</text>
  <text style="stroke:none;fill:black;font-family:SF Pro,SF Pro Display,SF Pro Text,sans-serif;text-anchor:middle;" transform="matrix(1 0 0 1 559.711 322)">Ultralight</text>
  <text style="stroke:none;fill:black;font-family:SF Pro,SF Pro Display,SF Pro Text,sans-serif;text-anchor:middle;" transform="matrix(1 0 0 1 856.422 322)">Thin</text>
  <text style="stroke:none;fill:black;font-family:SF Pro,SF Pro Display,SF Pro Text,sans-serif;text-anchor:middle;" transform="matrix(1 0 0 1 1153.13 322)">Light</text>
  <text style="stroke:none;fill:black;font-family:SF Pro,SF Pro Display,SF Pro Text,sans-serif;text-anchor:middle;" transform="matrix(1 0 0 1 1449.84 322)">Regular</text>
  <text style="stroke:none;fill:black;font-family:SF Pro,SF Pro Display,SF Pro Text,sans-serif;text-anchor:middle;" transform="matrix(1 0 0 1 1746.56 322)">Medium</text>
  <text style="stroke:none;fill:black;font-family:SF Pro,SF Pro Display,SF Pro Text,sans-serif;text-anchor:middle;" transform="matrix(1 0 0 1 2043.27 322)">Semibold</text>
  <text style="stroke:none;fill:black;font-family:SF Pro,SF Pro Display,SF Pro Text,sans-serif;text-anchor:middle;" transform="matrix(1 0 0 1 2339.98 322)">Bold</text>
  <text style="stroke:none;fill:black;font-family:SF Pro,SF Pro Display,SF Pro Text,sans-serif;text-anchor:middle;" transform="matrix(1 0 0 1 2636.69 322)">Heavy</text>
  <text style="stroke:none;fill:black;font-family:SF Pro,SF Pro Display,SF Pro Text,sans-serif;text-anchor:middle;" transform="matrix(1 0 0 1 2933.4 322)">Black</text>
  <line style="fill:none;stroke:black;opacity:1;stroke-width:0.5;" x1="263" x2="3036" y1="1903" y2="1903"/>
  <g transform="matrix(1 0 0 1 263 1933)">
   <path d="M9.24805 0.830078C13.5547 0.830078 17.1387-2.74414 17.1387-7.05078C17.1387-11.3574 13.5449-14.9316 9.23828-14.9316C4.94141-14.9316 1.36719-11.3574 1.36719-7.05078C1.36719-2.74414 4.95117 0.830078 9.24805 0.830078ZM9.24805-0.654297C5.70312-0.654297 2.87109-3.49609 2.87109-7.05078C2.87109-10.6055 5.69336-13.4473 9.23828-13.4473C12.793-13.4473 15.6348-10.6055 15.6445-7.05078C15.6543-3.49609 12.8027-0.654297 9.24805-0.654297ZM5.83984-7.04102C5.83984-6.61133 6.14258-6.31836 6.5918-6.31836L8.50586-6.31836L8.50586-4.39453C8.50586-3.95508 8.79883-3.65234 9.22852-3.65234C9.67773-3.65234 9.9707-3.95508 9.9707-4.39453L9.9707-6.31836L11.9043-6.31836C12.3438-6.31836 12.6465-6.61133 12.6465-7.04102C12.6465-7.48047 12.3438-7.7832 11.9043-7.7832L9.9707-7.7832L9.9707-9.69727C9.9707-10.1465 9.67773-10.4492 9.22852-10.4492C8.79883-10.4492 8.50586-10.1465 8.50586-9.69727L8.50586-7.7832L6.5918-7.7832C6.14258-7.7832 5.83984-7.48047 5.83984-7.04102Z"/>
  </g>
  <g transform="matrix(1 0 0 1 281.867 1933)">
   <path d="M11.709 2.91016C17.1582 2.91016 21.6699-1.61133 21.6699-7.05078C21.6699-12.5 17.1484-17.0117 11.6992-17.0117C6.25977-17.0117 1.74805-12.5 1.74805-7.05078C1.74805-1.61133 6.26953 2.91016 11.709 2.91016ZM11.709 1.25C7.09961 1.25 3.41797-2.44141 3.41797-7.05078C3.41797-11.6602 7.08984-15.3516 11.6992-15.3516C16.3086-15.3516 20-11.6602 20.0098-7.05078C20.0195-2.44141 16.3184 1.25 11.709 1.25ZM7.39258-7.04102C7.39258-6.5625 7.73438-6.24023 8.23242-6.24023L10.8789-6.24023L10.8789-3.57422C10.8789-3.08594 11.2109-2.75391 11.6895-2.75391C12.1777-2.75391 12.5195-3.08594 12.5195-3.57422L12.5195-6.24023L15.1758-6.24023C15.6641-6.24023 16.0059-6.5625 16.0059-7.04102C16.0059-7.5293 15.6641-7.87109 15.1758-7.87109L12.5195-7.87109L12.5195-10.5176C12.5195-11.0254 12.1777-11.3574 11.6895-11.3574C11.2109-11.3574 10.8789-11.0156 10.8789-10.5176L10.8789-7.87109L8.23242-7.87109C7.73438-7.87109 7.39258-7.5293 7.39258-7.04102Z"/>
  </g>
  <g transform="matrix(1 0 0 1 305.646 1933)">
   <path d="M14.9707 5.66406C21.9336 5.66406 27.6953-0.0976562 27.6953-7.05078C27.6953-14.0137 21.9238-19.7754 14.9609-19.7754C8.00781-19.7754 2.25586-14.0137 2.25586-7.05078C2.25586-0.0976562 8.01758 5.66406 14.9707 5.66406ZM14.9707 3.84766C8.93555 3.84766 4.08203-1.01562 4.08203-7.05078C4.08203-13.0957 8.92578-17.9492 14.9609-17.9492C21.0059-17.9492 25.8594-13.0957 25.8691-7.05078C25.8789-1.01562 21.0156 3.84766 14.9707 3.84766ZM9.45312-7.04102C9.45312-6.52344 9.83398-6.16211 10.3711-6.16211L14.0625-6.16211L14.0625-2.46094C14.0625-1.93359 14.4336-1.55273 14.9512-1.55273C15.4883-1.55273 15.8594-1.92383 15.8594-2.46094L15.8594-6.16211L19.5605-6.16211C20.0879-6.16211 20.4688-6.52344 20.4688-7.04102C20.4688-7.57812 20.0977-7.95898 19.5605-7.95898L15.8594-7.95898L15.8594-11.6504C15.8594-12.1973 15.4883-12.5684 14.9512-12.5684C14.4336-12.5684 14.0625-12.1875 14.0625-11.6504L14.0625-7.95898L10.3711-7.95898C9.82422-7.95898 9.45312-7.57812 9.45312-7.04102Z"/>
  </g>
  <text style="stroke:none;fill:black;font-family:SF Pro,SF Pro Display,SF Pro Text,sans-serif;font-weight:bold;" transform="matrix(1 0 0 1 263 1953)">Design Variations</text>
  <text style="stroke:none;fill:black;font-family:SF Pro,SF Pro Display,SF Pro Text,sans-serif;" transform="matrix(1 0 0 1 263 1971)">Symbols are supported in up to nine weights and three scales.</text>
  <text style="stroke:none;fill:black;font-family:SF Pro,SF Pro Display,SF Pro Text,sans-serif;" transform="matrix(1 0 0 1 263 1989)">For optimal layout with text and other symbols, vertically align</text>
  <text style="stroke:none;fill:black;font-family:SF Pro,SF Pro Display,SF Pro Text,sans-serif;" transform="matrix(1 0 0 1 263 2007)">symbols with the adjacent text.</text>
  <line style="fill:none;stroke:#00AEEF;stroke-width:0.5;opacity:1.0;" x1="776" x2="776" y1="1919" y2="1933"/>
  <g transform="matrix(1 0 0 1 776 1933)">
   <path d="M3.31055 0.15625C3.82812 0.15625 4.08203-0.0390625 4.26758-0.585938L5.52734-4.0332L11.2891-4.0332L12.5488-0.585938C12.7344-0.0390625 12.9883 0.15625 13.4961 0.15625C14.0137 0.15625 14.3457-0.15625 14.3457-0.644531C14.3457-0.810547 14.3164-0.966797 14.2383-1.17188L9.6582-13.3691C9.43359-13.9648 9.0332-14.2676 8.4082-14.2676C7.80273-14.2676 7.39258-13.9746 7.17773-13.3789L2.59766-1.16211C2.51953-0.957031 2.49023-0.800781 2.49023-0.634766C2.49023-0.146484 2.80273 0.15625 3.31055 0.15625ZM6.00586-5.51758L8.37891-12.0898L8.42773-12.0898L10.8008-5.51758Z"/>
  </g>
  <line style="fill:none;stroke:#00AEEF;stroke-width:0.5;opacity:1.0;" x1="793.197" x2="793.197" y1="1919" y2="1933"/>
  <text style="stroke:none;fill:black;font-family:SF Pro,SF Pro Display,SF Pro Text,sans-serif;font-weight:bold;" transform="matrix(1 0 0 1 776 1953)">Margins</text>
  <text style="stroke:none;fill:black;font-family:SF Pro,SF Pro Display,SF Pro Text,sans-serif;" transform="matrix(1 0 0 1 776 1971)">Leading and trailing margins on the left and right side of each symbol</text>
  <text style="stroke:none;fill:black;font-family:SF Pro,SF Pro Display,SF Pro Text,sans-serif;" transform="matrix(1 0 0 1 776 1989)">can be adjusted by modifying the x-location of the margin guidelines.</text>
  <text style="stroke:none;fill:black;font-family:SF Pro,SF Pro Display,SF Pro Text,sans-serif;" transform="matrix(1 0 0 1 776 2007)">Modifications are automatically applied proportionally to all</text>
  <text style="stroke:none;fill:black;font-family:SF Pro,SF Pro Display,SF Pro Text,sans-serif;" transform="matrix(1 0 0 1 776 2025)">scales and weights.</text>
  <g transform="matrix(1 0 0 1 1289 1933)">
   <path d="M2.8418 1.86523L4.54102 3.57422C5.40039 4.44336 6.38672 4.38477 7.31445 3.35938L18.0078-8.42773L17.041-9.4043L6.42578 2.27539C6.07422 2.67578 5.74219 2.77344 5.27344 2.30469L4.10156 1.14258C3.63281 0.683594 3.74023 0.341797 4.14062-0.0195312L15.6152-10.8203L14.6387-11.7871L3.04688-0.898438C2.06055 0.0195312 1.98242 0.996094 2.8418 1.86523ZM9.25781-16.3281C8.83789-15.918 8.80859-15.3418 9.04297-14.9512C9.27734-14.5898 9.73633-14.3555 10.3809-14.5215C11.8457-14.8633 13.3691-14.9219 14.7949-13.9844L14.209-12.5293C13.8672-11.6992 14.043-11.1133 14.5801-10.5664L16.875-8.25195C17.3633-7.76367 17.7734-7.74414 18.3398-7.8418L19.4043-8.03711L20.0684-7.36328L20.0293-6.80664C19.9902-6.30859 20.1172-5.92773 20.6055-5.44922L21.3672-4.70703C21.8457-4.22852 22.4609-4.19922 22.9297-4.66797L25.8398-7.58789C26.3086-8.05664 26.2891-8.65234 25.8105-9.13086L25.0391-9.89258C24.5605-10.3711 24.1895-10.5273 23.7109-10.4883L23.1348-10.4395L22.4902-11.0742L22.7344-12.1973C22.8613-12.7637 22.7051-13.2031 22.1191-13.7891L19.9219-15.9766C16.582-19.2969 12.1484-19.2188 9.25781-16.3281ZM10.752-15.957C13.1836-17.7344 16.4746-17.4316 18.7012-15.2051L21.1328-12.793C21.3672-12.5586 21.4062-12.373 21.3379-12.0312L21.0156-10.5469L22.5195-9.0625L23.5059-9.12109C23.7598-9.13086 23.8379-9.11133 24.0332-8.91602L24.6094-8.33984L22.168-5.89844L21.5918-6.47461C21.3965-6.66992 21.3672-6.74805 21.377-7.01172L21.4453-7.98828L19.9512-9.47266L18.4277-9.21875C18.1055-9.15039 17.959-9.17969 17.7148-9.41406L15.7129-11.416C15.459-11.6504 15.4297-11.8164 15.5859-12.1875L16.4648-14.2773C14.9023-15.7324 12.8711-16.3574 10.8398-15.7617C10.6836-15.7227 10.625-15.8496 10.752-15.957Z"/>
  </g>
  <text style="stroke:none;fill:black;font-family:SF Pro,SF Pro Display,SF Pro Text,sans-serif;font-weight:bold;" transform="matrix(1 0 0 1 1289 1953)">Exporting</text>
  <text style="stroke:none;fill:black;font-family:SF Pro,SF Pro Display,SF Pro Text,sans-serif;" transform="matrix(1 0 0 1 1289 1971)">Symbols should be outlined when exporting to ensure the</text>
  <text style="stroke:none;fill:black;font-family:SF Pro,SF Pro Display,SF Pro Text,sans-serif;" transform="matrix(1 0 0 1 1289 1989)">design is preserved when submitting to Xcode.</text>
  <text id="template-version" style="stroke:none;fill:black;font-family:SF Pro,SF Pro Display,SF Pro Text,sans-serif;text-anchor:end;" transform="matrix(1 0 0 1 3036 1933)">Template v.2.0</text>
  <text style="stroke:none;fill:black;font-family:SF Pro,SF Pro Display,SF Pro Text,sans-serif;text-anchor:end;" transform="matrix(1 0 0 1 3036 1951)">Requires Xcode 13 or greater</text>
  <text id="descriptive-name" style="stroke:none;fill:black;font-family:SF Pro,SF Pro Display,SF Pro Text,sans-serif;text-anchor:end;" transform="matrix(1 0 0 1 3036 1969)">Generated from spicy</text>
  <text style="stroke:none;fill:black;font-family:SF Pro,SF Pro Display,SF Pro Text,sans-serif;text-anchor:end;" transform="matrix(1 0 0 1 3036 1987)">Typeset at 100 points</text>
  <text style="stroke:none;fill:black;font-family:SF Pro,SF Pro Display,SF Pro Text,sans-serif;" transform="matrix(1 0 0 1 263 726)">Small</text>
  <text style="stroke:none;fill:black;font-family:SF Pro,SF Pro Display,SF Pro Text,sans-serif;" transform="matrix(1 0 0 1 263 1156)">Medium</text>
  <text style="stroke:none;fill:black;font-family:SF Pro,SF Pro Display,SF Pro Text,sans-serif;" transform="matrix(1 0 0 1 263 1586)">Large</text>
 </g>
 <g id="Guides">
  <g id="H-reference" style="fill:#27AAE1;stroke:none;" transform="matrix(1 0 0 1 339 696)">
   <path d="M0.993654 0L3.63775 0L29.3281-67.1323L30.0303-67.1323L30.0303-70.459L28.1226-70.459ZM11.6885-24.4799L46.9815-24.4799L46.2315-26.7285L12.4385-26.7285ZM55.1196 0L57.7637 0L30.6382-70.459L29.4326-70.459L29.4326-67.1323Z"/>
  </g>
  <line id="Baseline-S" style="fill:none;stroke:#27AAE1;opacity:1;stroke-width:0.5;" x1="263" x2="3036" y1="696" y2="696"/>
  <line id="Capline-S" style="fill:none;stroke:#27AAE1;opacity:1;stroke-width:0.5;" x1="263" x2="3036" y1="625.541" y2="625.541"/>
  <g id="H-reference" style="fill:#27AAE1;stroke:none;" transform="matrix(1 0 0 1 339 1126)">
   <path d="M0.993654 0L3.63775 0L29.3281-67.1323L30.0303-67.1323L30.0303-70.459L28.1226-70.459ZM11.6885-24.4799L46.9815-24.4799L46.2315-26.7285L12.4385-26.7285ZM55.1196 0L57.7637 0L30.6382-70.459L29.4326-70.459L29.4326-67.1323Z"/>
  </g>
  <line id="Baseline-M" style="fill:none;stroke:#27AAE1;opacity:1;stroke-width:0.5;" x1="263" x2="3036" y1="1126" y2="1126"/>
  <line id="Capline-M" style="fill:none;stroke:#27AAE1;opacity:1;stroke-width:0.5;" x1="263" x2="3036" y1="1055.54" y2="1055.54"/>
  <g id="H-reference" style="fill:#27AAE1;stroke:none;" transform="matrix(1 0 0 1 339 1556)">
   <path d="M0.993654 0L3.63775 0L29.3281-67.1323L30.0303-67.1323L30.0303-70.459L28.1226-70.459ZM11.6885-24.4799L46.9815-24.4799L46.2315-26.7285L12.4385-26.7285ZM55.1196 0L57.7637 0L30.6382-70.459L29.4326-70.459L29.4326-67.1323Z"/>
  </g>
  <line id="Baseline-L" style="fill:none;stroke:#27AAE1;opacity:1;stroke-width:0.5;" x1="263" x2="3036" y1="1556" y2="1556"/>
  <line id="Capline-L" style="fill:none;stroke:#27AAE1;opacity:1;stroke-width:0.5;" x1="263" x2="3036" y1="1485.54" y2="1485.54"/>
  <line id="left-margin" style="fill:none;stroke:#00AEEF;stroke-width:0.5;opacity:1.0;" x1="1387.12" x2="1387.12" y1="1030.79" y2="1150.12"/>
  <line id="right-margin" style="fill:none;stroke:#00AEEF;stroke-width:0.5;opacity:1.0;" x1="1512.56" x2="1512.56" y1="1030.79" y2="1150.12"/>
 </g>
 <g id="Symbols">
  <g id="Black-L" transform="matrix(1 0 0 1 2846.75 1556)">
   <path d="M15.9874-7.40038Q18.0402-9.53355 21.1303-10.805Q24.2204-12.0765 27.9061-11.9749Q31.5917-11.8734 35.274-9.92393Q36.8307-9.49307 37.9283-9.13456Q39.0259-8.77604 41.0669-8.05901Q44.0815-7.08545 46.3934-6.55846Q48.7054-6.03147 50.6152-6.11189Q56.546-6.37516 61.3175-10.7551Q66.089-15.1351 69.661-21.3173Q73.2329-27.4995 78.1682-37.8162Q82.8393-47.6189 85.3907-52.1808Q89.36-58.9792 96.5711-65.2511Q103.782-71.5229 113.595-73.6464Q123.409-75.7699 134-70.083Q145.396-63.9136 149.333-53.8844Q153.269-43.8553 152.717-35.1052Q152.165-26.3552 150.44-20.2585Q148.071-11.8077 139.741 2.80585Q131.411 17.4194 115.105 29.9932Q98.7993 42.567 75.5234 41.8653Q49.8069 41.1635 34.3532 31.7451Q18.8996 22.3268 14.6297 10.5293Q10.3598-1.26823 15.9874-7.40038ZM31.0027 6.12419Q30.9807 5.58504 31.2114 5.94826Q31.4421 6.31148 32.2759 7.29942Q34.7766 10.3275 39.1828 13.3006Q43.589 16.2736 52.7975 18.8729Q62.0061 21.4721 76.0787 21.8742Q92.8882 22.2984 104.85 12.7677Q116.812 3.23706 123.089-8.02262Q129.366-19.2823 131.062-25.6727Q133.161-32.875 132.579-40.5976Q131.998-48.3201 124.399-52.3716Q119.916-54.7851 115.875-53.8416Q111.834-52.8982 108.609-49.7791Q105.383-46.66 102.883-42.1853Q100.989-38.8 97.2458-30.9112Q91.2583-18.0153 85.8232-9.13695Q80.3882-0.258626 71.7587 6.58Q63.1293 13.4186 51.4482 13.8791Q45.8628 14.1204 40.4201 12.68Q34.9773 11.2396 30.3121 9.22152Q28.7181 8.3953 27.4323 7.84763Q27.9215 8.00084 29.1591 7.36556Q30.3966 6.73027 31.0027 6.12419ZM94.0931-63.0815Q95.8327-68.3807 97.5866-70.5148Q99.3042-72.7292 101.877-73.8657Q104.449-75.0021 107.322-74.7829Q115.099-74.4832 122.26-76.1208Q129.42-77.7584 130.385-83.1025Q131.167-87.1379 130.831-89.5213Q130.494-91.9047 129.405-92.9722Q128.315-94.0396 126.568-94.4417Q125.961-94.5221 125.157-94.2335Q124.353-93.9448 123.358-93.4987Q121.26-92.5413 119.576-92.1248Q117.891-91.7083 115.911-92.3441Q113.93-92.9798 112.06-95.3475Q109.728-98.0588 109.388-100.978Q109.049-103.898 110.342-106.299Q111.635-108.699 114.025-109.876Q119.244-111.316 123.381-111.656Q127.518-111.996 132.404-110.285Q137.29-108.575 142.706-103.758Q146.521-100.382 147.95-94.0116Q149.379-87.6415 149.328-81.3993Q149.277-75.1571 148.677-67.5334L148.458-65.1801Q148.378-64.4927 148.878-63.1585Q149.379-61.8244 150.205-60.0332L150.344-59.7555L156.389-46.6641Q157.843-43.317 156.747-39.9369Q155.651-36.5568 152.581-34.5836Q149.227-32.5079 145.916-31.7587Q142.605-31.0096 140.055-32.9608Q138.864-33.7937 137.888-36.0848Q136.913-38.3759 135.736-41.8838Q135.37-43.003 135.11-43.6764Q134.85-44.3499 134.507-45.1388Q134.068-45.044 133.702-44.9708Q133.336-44.8975 132.743-44.7147Q129.805-43.7793 127.397-43.5198Q124.989-43.2604 123.243-44.5318Q121.139-46.1393 120.342-47.7325Q119.545-49.3256 119.18-51.3285Q118.894-52.6592 118.598-53.3284Q118.302-53.9976 117.512-54.3633Q116.744-54.707 112.095-54.1881Q107.446-53.6692 102.994-52.9674Q100.166-52.4485 97.747-53.8224Q95.3281-55.1963 94.2721-57.7942Q93.2161-60.3921 94.0931-63.0815Z"/>
  </g>
  <g id="Heavy-L" transform="matrix(1 0 0 1 2551.55 1556)">
   <path d="M15.6377-7.06538Q17.3928-8.89359 20.0287-10.0255Q22.6646-11.1574 25.8336-11.1754Q29.0026-11.1934 32.2128-9.69236Q33.6429-9.3442 34.8917-8.9411Q36.1405-8.538 38.2995-7.76108Q41.7927-6.5588 44.4343-5.9138Q47.076-5.26879 49.3339-5.35653Q55.6566-5.63358 60.6906-10.1852Q65.7246-14.7368 69.426-21.1076Q73.1274-27.4785 78.1535-38.0191Q82.7647-47.6809 85.2365-52.1046Q89.0939-58.7278 96.0424-64.7894Q102.991-70.8511 112.426-72.9012Q121.861-74.9512 132.019-69.4956Q142.988-63.5502 146.78-53.8537Q150.573-44.1573 150.028-35.6665Q149.483-27.1757 147.8-21.226Q145.466-12.9009 137.269 1.48136Q129.072 15.8636 113.061 28.224Q97.049 40.5844 74.2209 39.9038Q49.238 39.2231 34.1665 30.1962Q19.0951 21.1694 14.7664 9.90747Q10.4377-1.35445 15.6377-7.06538ZM28.6291 4.61794Q28.5567 4.39582 28.827 5.01941Q29.0974 5.64301 29.9855 6.84027Q32.4974 10.1978 37.1851 13.4842Q41.8728 16.7706 51.2523 19.4954Q60.6318 22.2202 74.7065 22.6296Q91.9364 23.0675 104.192 13.3303Q116.448 3.59316 122.869-7.88767Q129.29-19.3685 131.041-25.905Q133.21-33.3597 132.544-41.5893Q131.879-49.819 123.706-54.1789Q118.824-56.8026 114.387-55.7715Q109.951-54.7404 106.445-51.3973Q102.94-48.0543 100.362-43.4676Q98.4484-40.0491 94.6409-32.032Q88.6957-19.2627 83.39-10.5629Q78.0843-1.86308 69.7105 4.80757Q61.3367 11.4782 50.0548 11.9176Q44.5922 12.1589 39.253 10.7161Q33.9139 9.27339 29.0677 7.20744Q27.286 6.32353 26.1371 5.88613Q26.4347 5.99152 27.3202 5.52012Q28.2056 5.04872 28.6291 4.61794ZM94.389-63.1061Q96.0231-68.1107 97.6375-70.0914Q99.2138-72.1087 101.554-73.1396Q103.895-74.1705 106.514-73.9724Q114.207-73.6865 121.375-75.3721Q128.543-77.0577 129.544-82.5646Q130.335-86.6611 129.912-89.1465Q129.49-91.6319 128.293-92.7754Q127.095-93.9189 125.31-94.3283Q124.661-94.4161 123.835-94.1444Q123.009-93.8728 121.923-93.3991Q119.988-92.5261 118.429-92.151Q116.87-91.7758 115.089-92.3271Q113.308-92.8785 111.648-94.9718Q109.549-97.4226 109.23-100.043Q108.912-102.663 110.05-104.806Q111.188-106.949 113.303-108.006Q118.256-109.376 122.163-109.691Q126.069-110.006 130.665-108.376Q135.26-106.746 140.369-102.202Q143.939-99.0356 145.277-92.9581Q146.614-86.8805 146.553-80.8917Q146.491-74.903 145.919-67.5778L145.721-65.3989Q145.64-64.6181 146.131-63.2863Q146.622-61.9546 147.491-60.0617L147.616-59.8189L153.461-47.1484Q154.767-44.1389 153.78-41.0941Q152.793-38.0492 150.034-36.2733Q146.947-34.3665 143.917-33.6591Q140.887-32.9517 138.619-34.6772Q137.575-35.4055 136.694-37.4937Q135.813-39.5819 134.749-42.7522Q134.319-44.0996 133.968-44.9727Q133.617-45.8458 133.186-46.5537Q132.709-46.5442 132.192-46.4429Q131.675-46.3417 130.933-46.1085Q128.214-45.2567 126.058-45.0146Q123.903-44.7726 122.366-45.8899Q120.52-47.2945 119.801-48.7481Q119.081-50.2017 118.71-52.0762Q118.383-53.4931 118.012-54.2585Q117.641-55.024 116.722-55.4612Q115.86-55.8553 111.27-55.3639Q106.68-54.8726 102.253-54.1773Q99.7491-53.7152 97.616-54.9267Q95.4828-56.1382 94.5469-58.4293Q93.6111-60.7204 94.389-63.1061Z"/>
  </g>
  <g id="Bold-L" transform="matrix(1 0 0 1 2256.52 1556)">
   <path d="M15.2465-6.69064Q16.6686-8.17771 18.7964-9.1535Q20.9243-10.1293 23.5153-10.281Q26.1063-10.4327 28.7884-9.43331Q30.0769-9.17767 31.4948-8.7247Q32.9127-8.27172 35.2039-7.42781Q39.2323-5.96968 42.2428-5.19265Q45.2533-4.41561 47.9005-4.51154Q54.6617-4.80402 59.9894-9.54761Q65.317-14.2912 69.1632-20.8731Q73.0093-27.455 78.1371-38.2461Q82.6814-47.7504 85.064-52.0195Q88.7961-58.4465 95.451-64.2731Q102.106-70.0996 111.118-72.0675Q120.13-74.0354 129.802-68.8385Q140.293-63.1436 143.925-53.8194Q147.557-44.4951 147.02-36.2944Q146.483-28.0937 144.847-22.3082Q142.552-14.1238 134.504-0.000284831Q126.456 14.1232 110.773 26.2449Q95.0909 38.3666 72.764 37.7095Q48.6015 37.0525 33.9577 28.4636Q19.3139 19.8747 14.9194 9.2119Q10.5249-1.4509 15.2465-6.69064ZM25.9739 2.93298Q25.8451 3.0655 26.1598 3.98036Q26.4745 4.89522 27.4233 6.32665Q29.9477 10.0528 34.9503 13.6897Q39.9529 17.3265 49.5236 20.1918Q59.0944 23.057 73.1714 23.4746Q90.8716 23.9279 103.457 13.9597Q116.042 3.99152 122.623-7.73672Q129.204-19.465 131.018-26.1648Q133.264-33.9018 132.505-42.6988Q131.745-51.4958 122.931-56.2007Q117.602-59.0595 112.723-57.9303Q107.844-56.8011 104.025-53.2076Q100.207-49.614 97.5428-44.902Q95.6063-41.4464 91.727-33.2858Q85.8289-20.6581 80.668-12.158Q75.5072-3.65789 67.4193 2.82485Q59.3314 9.3076 48.4962 9.72339Q43.1708 9.96465 37.9476 8.51925Q32.7243 7.07385 27.6757 4.95441Q25.684 4.00594 24.6883 3.6919Q24.7716 3.7438 25.2631 3.45573Q25.7547 3.16767 25.9739 2.93298ZM94.72-63.1337Q96.2361-67.8087 97.6944-69.6179Q99.1127-71.4145 101.193-72.3274Q103.274-73.2402 105.61-73.0657Q113.208-72.7952 120.384-74.5346Q127.561-76.2739 128.604-81.9628Q129.403-86.1277 128.885-88.7273Q128.367-91.3269 127.049-92.5554Q125.73-93.7838 123.903-94.2015Q123.207-94.2974 122.356-94.0448Q121.506-93.7922 120.318-93.2876Q118.565-92.5091 117.146-92.1802Q115.727-91.8513 114.169-92.3082Q112.612-92.7651 111.188-94.5515Q109.349-96.7109 109.053-98.9959Q108.758-101.281 109.723-103.136Q110.688-104.992 112.495-105.914Q117.152-107.206 120.8-107.493Q124.449-107.781 128.72-106.241Q132.99-104.7 137.755-100.461Q141.051-97.53 142.286-91.7795Q143.522-86.0291 143.448-80.3239Q143.375-74.6187 142.834-67.6274L142.659-65.6437Q142.579-64.7583 143.058-63.4292Q143.537-62.1001 144.455-60.0936L144.564-59.8899L150.185-47.6901Q151.326-45.0583 150.461-42.3886Q149.596-39.7188 147.184-38.1635Q144.397-36.4455 141.681-35.7849Q138.965-35.1242 137.013-36.5973Q136.133-37.2085 135.358-39.0698Q134.583-40.9311 133.645-43.7236Q133.143-45.3263 132.69-46.4227Q132.237-47.5191 131.709-48.1365Q131.189-48.2223 130.503-48.0898Q129.817-47.9572 128.908-47.6676Q126.434-46.9093 124.561-46.6868Q122.688-46.4643 121.385-47.4091Q119.829-48.5868 119.196-49.8843Q118.563-51.1817 118.185-52.9127Q117.81-54.4259 117.356-55.299Q116.901-56.1721 115.838-56.6893Q114.872-57.1397 110.348-56.6792Q105.824-56.2187 101.423-55.5307Q99.2828-55.1322 97.4693-56.1621Q95.6558-57.192 94.8544-59.1398Q94.0529-61.0876 94.72-63.1337Z"/>
  </g>
  <g id="Semibold-L" transform="matrix(1 0 0 1 1960.96 1556)">
   <path d="M14.9767-6.43229Q16.1694-7.68418 17.9469-8.55236Q19.7245-9.42053 21.9171-9.66443Q24.1097-9.90834 26.4277-9.25473Q27.6185-9.06287 29.153-8.57551Q30.6875-8.08815 33.0697-7.19805Q37.4672-5.56353 40.732-4.69549Q43.9968-3.82744 46.9123-3.92902Q53.9758-4.23212 59.5059-9.10807Q65.036-13.984 68.982-20.7114Q72.928-27.4388 78.1259-38.4027Q82.6239-47.7982 84.9451-51.9607Q88.5908-58.2526 95.0433-63.9171Q101.496-69.5815 110.216-71.4928Q118.937-73.4041 128.274-68.3856Q138.436-62.8633 141.957-53.7957Q145.479-44.728 144.947-36.7273Q144.414-28.7265 142.811-23.0543Q140.544-14.9669 132.598-1.02172Q124.652 12.9234 109.197 24.8805Q93.7411 36.8376 71.7595 36.1968Q48.1628 35.5561 33.8137 27.2691Q19.4647 18.9821 15.0249 8.73238Q10.5851-1.51739 14.9767-6.43229ZM24.1434 1.77137Q23.9758 2.14839 24.321 3.26405Q24.6663 4.3797 25.657 5.97256Q28.19 9.9528 33.4097 13.8313Q38.6294 17.7098 48.3319 20.6718Q58.0345 23.6339 72.1132 24.0571Q90.1375 24.5211 102.949 14.3936Q115.761 4.26614 122.454-7.63266Q129.146-19.5315 131.001-26.3439Q133.302-34.2755 132.477-43.4636Q131.653-52.6518 122.397-57.5945Q116.76-60.6153 111.575-59.4186Q106.391-58.2218 102.357-54.4555Q98.3225-50.6892 95.5991-45.8909Q93.6469-42.4097 89.7181-34.1501Q83.8526-21.6201 78.7916-13.2576Q73.7305-4.89523 65.8398 1.45798Q57.949 7.81119 47.4217 8.21071Q42.191 8.45197 37.0476 7.00473Q31.9041 5.55749 26.7161 3.40118Q24.5795 2.40822 23.6896 2.17921Q23.625 2.19424 23.845 2.03256Q24.065 1.87088 24.1434 1.77137ZM94.9483-63.1526Q96.3829-67.6005 97.7336-69.2915Q99.043-70.9359 100.945-71.7674Q102.846-72.5989 104.987-72.4407Q112.519-72.1808 119.702-73.9572Q126.884-75.7335 127.955-81.5479Q128.761-85.7599 128.177-88.4382Q127.593-91.1165 126.191-92.4036Q124.789-93.6907 122.934-94.114Q122.205-94.2156 121.337-93.9761Q120.469-93.7366 119.212-93.2108Q117.584-92.4973 116.261-92.2004Q114.939-91.9034 113.535-92.2952Q112.132-92.6869 110.871-94.2618Q109.21-96.2202 108.932-98.2742Q108.653-100.328 109.498-101.985Q110.343-103.642 111.938-104.472Q116.39-105.71 119.861-105.978Q123.332-106.247 127.379-104.768Q131.425-103.29 135.952-99.2613Q139.059-96.492 140.225-90.9671Q141.39-85.4422 141.308-79.9325Q141.226-74.4228 140.706-67.6616L140.548-65.8124Q140.468-64.855 140.939-63.5278Q141.411-62.2005 142.361-60.1156L142.46-59.9388L147.927-48.0635Q148.954-45.6922 148.173-43.281Q147.392-40.8698 145.219-39.4666Q142.639-37.8788 140.139-37.2504Q137.64-36.6219 135.906-37.921Q135.139-38.4515 134.437-40.1563Q133.735-41.8612 132.884-44.3933Q132.333-46.1721 131.809-47.4224Q131.285-48.6727 130.69-49.2276Q130.141-49.3792 129.339-49.2251Q128.536-49.071 127.512-48.7425Q125.207-48.0486 123.529-47.8396Q121.85-47.6305 120.709-48.4564Q119.352-49.4777 118.779-50.6675Q118.205-51.8574 117.823-53.4894Q117.416-55.069 116.903-56.0163Q116.391-56.9637 115.228-57.536Q114.19-58.0253 109.712-57.586Q105.233-57.1468 100.851-56.4637Q98.9613-56.109 97.3682-57.0137Q95.7751-57.9184 95.0663-59.6296Q94.3575-61.3407 94.9483-63.1526Z"/>
  </g>
  <g id="Medium-L" transform="matrix(1 0 0 1 1665.13 1556)">
   <path d="M14.7722-6.2364Q15.7908-7.30997 17.3028-8.09654Q18.8147-8.88311 20.7052-9.19692Q22.5957-9.51072 24.6377-9.11931Q25.7545-8.97581 27.3774-8.46239Q29.0003-7.94896 31.4515-7.02384Q36.1289-5.25558 39.5864-4.31852Q43.044-3.38147 46.1631-3.48732Q53.4558-3.79849 59.1394-8.7748Q64.823-13.7511 68.8446-20.5888Q72.8663-27.4265 78.1173-38.5213Q82.5803-47.8345 84.8549-51.9162Q88.4352-58.1056 94.7341-63.6471Q101.033-69.1887 109.532-71.057Q118.032-72.9254 127.115-68.0421Q137.028-62.6508 140.465-53.7777Q143.902-44.9046 143.374-37.0555Q142.846-29.2063 141.268-23.62Q139.02-15.6061 131.153-1.79621Q123.285 12.0137 108.001 23.846Q92.7175 35.6783 70.9979 35.0499Q47.8301 34.4214 33.7045 26.3634Q19.579 18.3054 15.1048 8.36878Q10.6306-1.56781 14.7722-6.2364ZM22.7554 0.890598Q22.5584 1.45299 22.9268 2.7209Q23.2952 3.98882 24.3177 5.70407Q26.8573 9.87698 32.2415 13.9387Q37.6258 18.0004 47.4284 21.0358Q57.2309 24.0713 71.3108 24.4988Q89.5809 24.9708 102.565 14.7226Q115.549 4.47437 122.325-7.55375Q129.101-19.5819 130.989-26.4797Q133.33-34.5589 132.457-44.0436Q131.583-53.5283 121.991-58.6513Q116.121-61.7951 110.705-60.5471Q105.29-59.299 101.092-55.4018Q96.8938-51.5045 94.1253-46.6407Q92.1612-43.1401 88.1949-34.8055Q82.3541-22.3495 77.3687-14.0914Q72.3833-5.83342 64.6421 0.42156Q56.9008 6.67654 46.607 7.06372Q41.448 7.30498 36.3651 5.85636Q31.2823 4.40773 25.9885 2.22346Q23.7421 1.19675 22.9322 1.03223Q22.7556 1.0193 22.7697 0.953449Q22.7839 0.887604 22.7554 0.890598ZM95.1213-63.167Q96.4943-67.4426 97.7634-69.0439Q98.9901-70.573 100.756-71.3428Q102.522-72.1126 104.514-71.9667Q111.997-71.715 119.184-73.5194Q126.371-75.3238 127.464-81.2333Q128.274-85.4811 127.64-88.2191Q127.006-90.9571 125.541-92.2886Q124.075-93.6202 122.198-94.0477Q121.445-94.1535 120.564-93.924Q119.684-93.6945 118.373-93.1526Q116.84-92.4885 115.59-92.2157Q114.341-91.9429 113.055-92.2853Q111.768-92.6277 110.63-94.0421Q109.106-95.8482 108.839-97.727Q108.573-99.6058 109.327-101.112Q110.082-102.619 111.516-103.378Q115.812-104.576 119.149-104.829Q122.485-105.083 126.362-103.652Q130.238-102.221 134.586-98.3514Q137.55-95.7049 138.661-90.351Q139.773-84.9972 139.685-79.6357Q139.597-74.2742 139.094-67.6876L138.948-65.9404Q138.867-64.9283 139.333-63.6025Q139.798-62.2766 140.774-60.1323L140.865-59.9758L146.214-48.3467Q147.155-46.1728 146.438-43.9576Q145.721-41.7425 143.729-40.4546Q141.305-38.9656 138.97-38.3616Q136.635-37.7576 135.067-38.9247Q134.386-39.394 133.739-40.9802Q133.092-42.5664 132.307-44.9011Q131.718-46.8133 131.141-48.1804Q130.564-49.5475 129.918-50.055Q129.347-50.2565 128.456-50.086Q127.565-49.9155 126.453-49.5575Q124.277-48.9125 122.746-48.7136Q121.215-48.5148 120.196-49.2505Q118.991-50.1531 118.462-51.2614Q117.934-52.3697 117.548-53.9266Q117.116-55.5566 116.56-56.5602Q116.005-57.5638 114.766-58.1779Q113.673-58.6967 109.229-58.2736Q104.785-57.8504 100.417-57.1711Q98.7176-56.8497 97.2916-57.6595Q95.8655-58.4692 95.227-60.0009Q94.5885-61.5327 95.1213-63.167Z"/>
  </g>
  <g id="Regular-L" transform="matrix(1 0 0 1 1369.57 1556)">
   <path d="M14.5055-5.98089Q15.2971-6.82187 16.4626-7.502Q17.6281-8.18214 19.1245-8.58711Q20.6209-8.99209 22.3029-8.94269Q23.3231-8.86227 25.0613-8.31484Q26.7995-7.76741 29.3409-6.79661Q34.3832-4.8539 38.0922-3.82683Q41.8013-2.79976 45.1858-2.9112Q52.7774-3.23288 58.6612-8.3401Q64.5451-13.4473 68.6654-20.4289Q72.7858-27.4105 78.1061-38.6761Q82.5235-47.8819 84.7373-51.8581Q88.2322-57.9138 94.3309-63.295Q100.43-68.6763 108.641-70.4886Q116.851-72.301 125.603-67.5941Q135.191-62.3736 138.518-53.7543Q141.846-45.135 141.323-37.4836Q140.801-29.8322 139.254-24.3578Q137.034-16.4399 129.267-2.80642Q121.501 10.8271 106.442 22.4966Q91.3825 34.1661 70.0045 33.5538Q47.3961 32.9414 33.5621 25.182Q19.7281 17.4226 15.2091 7.89453Q10.6901-1.63357 14.5055-5.98089ZM20.9451-0.25824Q20.7096 0.545959 21.1082 2.01246Q21.5069 3.47896 22.5707 5.35388Q25.1189 9.77808 30.7178 14.0788Q36.3168 18.3795 46.2497 21.5106Q56.1827 24.6418 70.2642 25.0749Q88.8549 25.5575 102.063 15.1517Q115.272 4.74597 122.157-7.45083Q129.043-19.6476 130.973-26.6568Q133.367-34.9285 132.43-44.8Q131.492-54.6715 121.463-60.0297Q115.288-63.3338 109.571-62.019Q103.853-60.7041 99.4418-56.636Q95.0302-52.568 92.2029-47.6187Q90.2234-44.0929 86.2081-35.6603Q80.3995-23.3009 75.5128-15.179Q70.6262-7.05716 63.0799-0.930291Q55.5336 5.19658 45.5443 5.56766Q40.4789 5.80892 35.475 4.35848Q30.4712 2.90804 25.0394 0.687301Q22.6498-0.383415 21.9444-0.463835Q21.6216-0.513239 21.3672-0.454086Q21.1128-0.394933 20.9451-0.25824ZM95.347-63.1858Q96.6395-67.2367 97.8021-68.7211Q98.9212-70.0997 100.51-70.789Q102.099-71.4784 103.898-71.3485Q111.316-71.1073 118.509-72.9483Q125.702-74.7893 126.822-80.823Q127.639-85.1174 126.939-87.9332Q126.24-90.749 124.692-92.1386Q123.145-93.5281 121.239-93.9612Q120.453-94.0726 119.556-93.8561Q118.659-93.6395 117.279-93.0766Q115.869-92.4769 114.716-92.2356Q113.562-91.9943 112.428-92.2724Q111.293-92.5504 110.317-93.7556Q108.969-95.3629 108.719-97.0133Q108.468-98.6636 109.105-99.9739Q109.741-101.284 110.965-101.952Q115.059-103.096 118.22-103.331Q121.38-103.566 125.035-102.196Q128.69-100.826 132.803-97.1645Q135.58-94.6783 136.622-89.5475Q137.664-84.4167 137.568-79.2485Q137.472-74.0804 136.99-67.7215L136.86-66.1073Q136.78-65.024 137.237-63.6999Q137.695-62.3759 138.704-60.154L138.784-60.0242L143.981-48.716Q144.809-46.7997 144.175-44.8402Q143.542-42.8808 141.786-41.7434Q139.567-40.3831 137.446-39.811Q135.325-39.2389 133.972-40.2338Q133.403-40.6233 132.828-42.0548Q132.253-43.4863 131.554-45.5635Q130.917-47.6497 130.27-49.1691Q129.623-50.6884 128.911-51.1341Q128.31-51.4007 127.304-51.2088Q126.298-51.0169 125.073-50.6206Q123.063-50.0393 121.725-49.8537Q120.386-49.6682 119.527-50.2863Q118.519-51.0342 118.05-52.036Q117.58-53.0379 117.19-54.4969Q116.726-56.1926 116.113-57.2697Q115.5-58.3467 114.163-59.0153Q112.999-59.5725 108.6-59.1704Q104.201-58.7683 99.8518-58.0939Q98.3996-57.8159 97.1916-58.5018Q95.9835-59.1877 95.4366-60.4853Q94.8897-61.783 95.347-63.1858Z"/>
  </g>
  <g id="Light-L" transform="matrix(1 0 0 1 1073.78 1556)">
   <path d="M14.2837-5.20462Q15.0198-5.97166 16.0652-6.57786Q17.1106-7.18407 18.4684-7.54284Q19.8262-7.90161 21.3603-7.87069Q22.2696-7.79027 23.9893-7.25208Q25.7091-6.71389 27.9916-5.83551Q33.1633-3.83735 36.974-2.77332Q40.7847-1.70928 44.3171-1.8392Q52.1675-2.16088 58.2269-7.38823Q64.2863-12.6156 68.4898-19.7081Q72.6934-26.8005 78.0692-38.2141Q82.5789-47.5862 84.6264-51.2482Q88.0473-57.1745 93.9705-62.4079Q99.8936-67.6413 107.846-69.4074Q115.798-71.1735 124.254-66.633Q133.564-61.5604 136.79-53.1721Q140.016-44.7838 139.494-37.3172Q138.971-29.8506 137.461-24.4687Q135.259-16.6247 127.585-3.15759Q119.911 10.3096 105.056 21.8405Q90.1996 33.3714 69.1174 32.7775Q46.9341 32.1837 33.3865 24.6645Q19.839 17.1454 15.3108 7.9777Q10.7825-1.18998 14.2837-5.20462ZM19.3371-0.720309Q19.0091 0.0838906 19.3339 1.63356Q19.6586 3.18324 20.6855 5.16905Q23.1228 9.83353 28.8234 14.4207Q34.524 19.0079 44.6972 22.3516Q54.8704 25.6953 69.34 26.1469Q88.2265 26.6295 101.638 16.0851Q115.05 5.54073 122.037-6.83166Q129.024-19.204 130.955-26.2687Q133.386-34.7252 132.393-44.9202Q131.4-55.1151 121.001-60.6951Q114.549-64.1471 108.563-62.7675Q102.578-61.388 97.9816-57.172Q93.3852-52.9561 90.5025-47.9329Q88.5415-44.4625 84.4338-35.8451Q78.6621-23.5966 73.8586-15.5949Q69.0551-7.59316 61.6844-1.57719Q54.3137 4.43878 44.6016 4.79138Q39.7766 5.03264 34.9298 3.62841Q30.083 2.22418 24.5773 0.0219225Q21.8181-1.15969 21.0758-1.24011Q20.5127-1.27103 20.0827-1.12871Q19.6526-0.986381 19.3371-0.720309ZM95.3285-62.7607Q96.5286-66.5898 97.6173-68.0002Q98.5885-69.1941 99.9741-69.791Q101.36-70.3879 102.937-70.2766Q110.558-70.0353 118.084-72.0149Q125.61-73.9946 126.822-80.5088Q127.694-85.062 126.865-88.1181Q126.036-91.1741 124.286-92.7208Q122.535-94.2674 120.5-94.719Q119.677-94.8489 118.724-94.6231Q117.771-94.3973 116.336-93.8344Q115.093-93.3086 113.995-93.0673Q112.897-92.8261 111.901-93.0302Q110.905-93.2343 110.113-94.1992Q108.969-95.5662 108.737-96.9301Q108.505-98.294 108.994-99.3548Q109.482-100.416 110.429-100.954Q114.375-102.061 117.406-102.268Q120.438-102.475 123.899-101.152Q127.36-99.8278 131.288-96.3327Q133.898-93.9944 134.866-88.993Q135.834-83.9916 135.729-78.9066Q135.624-73.8216 135.142-67.5551L135.03-66.0334Q134.95-64.7837 135.417-63.4134Q135.884-62.0432 136.967-59.5995L137.047-59.4882L142.225-48.1985Q142.924-46.5779 142.392-44.9604Q141.86-43.3429 140.4-42.3903Q138.439-41.1779 136.54-40.6242Q134.641-40.0706 133.583-40.8437Q133.107-41.1778 132.597-42.4799Q132.087-43.782 131.499-45.5635Q130.769-47.9824 130.048-49.6404Q129.327-51.2983 128.43-51.818Q127.663-52.1954 126.537-51.9851Q125.411-51.7747 123.982-51.286Q122.213-50.7416 121.059-50.5653Q119.906-50.389 119.157-50.8962Q118.316-51.5148 117.902-52.4427Q117.487-53.3705 117.153-54.6448Q116.652-56.4883 115.938-57.704Q115.223-58.9196 113.664-59.6992Q112.334-60.3488 107.806-59.9467Q103.277-59.5446 98.7798-58.8517Q97.6603-58.6476 96.7387-59.1671Q95.8172-59.6867 95.3997-60.6794Q94.9822-61.6721 95.3285-62.7607Z"/>
  </g>
  <g id="Thin-L" transform="matrix(1 0 0 1 778.292 1556)">
   <path d="M13.9904-4.17793Q14.6531-4.84719 15.5397-5.35562Q16.4262-5.86404 17.6006-6.1617Q18.7751-6.45936 20.1136-6.45289Q20.8762-6.37247 22.5715-5.8465Q24.2668-5.32053 26.2071-4.56437Q31.5499-2.49288 35.4951-1.37996Q39.4403-0.267029 43.1682-0.421393Q51.3608-0.743073 57.6524-6.12932Q63.9441-11.5156 68.2576-18.7547Q72.5712-25.9939 78.0203-37.6029Q82.6523-47.195 84.4798-50.4415Q87.8029-56.1967 93.4938-61.2345Q99.1847-66.2724 106.795-67.9774Q114.405-69.6824 122.47-65.3618Q131.413-60.4848 134.505-52.4021Q137.596-44.3194 137.074-37.0972Q136.551-29.8751 135.09-24.6154Q132.912-16.8692 125.361-3.62205Q117.809 9.62511 103.222 20.9727Q88.6351 32.3202 67.944 31.7508Q46.3229 31.1814 33.1543 23.9801Q19.9857 16.7787 15.4452 8.0877Q10.9047-0.603304 13.9904-4.17793ZM17.2103-1.33143Q16.7602-0.527232 16.9872 1.13244Q17.2141 2.79212 18.1921 4.9246Q20.4827 9.90687 26.3178 14.8729Q32.1528 19.839 42.6438 23.4639Q53.1349 27.0887 68.1178 27.5647Q87.3954 28.0473 101.076 17.3196Q114.757 6.59186 121.878-6.01275Q129-18.6174 130.93-25.7553Q133.41-34.4563 132.344-45.079Q131.278-55.7018 120.39-61.5751Q113.571-65.2226 107.231-63.7575Q100.891-62.2924 96.0505-57.8809Q91.2096-53.4694 88.2535-48.3485Q86.317-44.9514 82.0871-36.0896Q76.3643-23.9877 71.6708-16.1449Q66.9773-8.30206 59.8389-2.43276Q52.7004 3.43654 43.3549 3.7647Q38.8477 4.00596 34.2087 2.66284Q29.5697 1.31972 23.9662-0.858094Q20.7181-2.18638 19.9268-2.2668Q19.046-2.27327 18.3837-2.02094Q17.7215-1.76862 17.2103-1.33143ZM95.3041-62.1985Q96.3819-65.7343 97.3729-67.0469Q98.1485-67.9963 99.2652-68.471Q100.382-68.9456 101.666-68.8587Q109.556-68.6175 117.522-70.7805Q125.487-72.9434 126.822-80.0933Q127.768-84.9886 126.768-88.3625Q125.768-91.7364 123.748-93.4908Q121.728-95.2452 119.522-95.7212Q118.65-95.8756 117.624-95.6376Q116.598-95.3995 115.09-94.8366Q114.066-94.4086 113.042-94.1673Q112.017-93.9261 111.204-94.0324Q110.392-94.1387 109.844-94.7859Q108.969-95.8351 108.761-96.8201Q108.554-97.8051 108.847-98.5359Q109.14-99.2667 109.72-99.6337Q113.471-100.692 116.331-100.863Q119.191-101.033 122.395-99.7705Q125.6-98.5078 129.283-95.2327Q131.674-93.09 132.544-88.2597Q133.414-83.4293 133.297-78.4544Q133.18-73.4794 132.697-67.3351L132.61-65.9356Q132.53-64.4659 133.009-63.0345Q133.488-61.6032 134.669-58.8662L134.749-58.7793L139.903-47.514Q140.43-46.2845 140.033-45.1193Q139.635-43.954 138.567-43.2459Q136.948-42.229 135.342-41.6998Q133.737-41.1706 133.07-41.6504Q132.716-41.9111 132.291-43.0421Q131.867-44.1731 131.426-45.5635Q130.573-48.4224 129.755-50.2637Q128.936-52.105 127.795-52.7225Q126.808-53.2465 125.523-53.0118Q124.238-52.777 122.54-52.166Q121.089-51.6705 120.179-51.5065Q119.27-51.3424 118.668-51.7029Q118.047-52.1503 117.706-52.9804Q117.365-53.8106 117.104-54.8404Q116.554-56.8795 115.705-58.2785Q114.856-59.6774 113.004-60.6036Q111.454-61.3754 106.754-60.9733Q102.055-60.5712 97.362-59.8539Q96.6825-59.7476 96.1398-60.0472Q95.5972-60.3467 95.3508-60.9361Q95.1044-61.5255 95.3041-62.1985Z"/>
  </g>
  <g id="Ultralight-L" transform="matrix(1 0 0 1 482.207 1556)">
   <path d="M13.8401-3.65207Q14.4653-4.27125 15.2705-4.72959Q16.0756-5.18793 17.1561-5.45429Q18.2367-5.72065 19.475-5.72669Q20.1625-5.64627 21.8453-5.12657Q23.5281-4.60686 25.2931-3.9133Q30.7236-1.80425 34.7376-0.666284Q38.7516 0.471684 42.5797 0.304799Q50.9476-0.0168804 57.3582-5.48451Q63.7688-10.9521 68.1387-18.2664Q72.5085-25.5807 77.9952-37.2899Q82.6898-46.9947 84.4047-50.0283Q87.6777-55.6958 93.2497-60.6335Q98.8216-65.5712 106.256-67.2449Q113.691-68.9186 121.556-64.7108Q130.311-59.9339 133.334-52.0077Q136.357-44.0815 135.834-36.9845Q135.311-29.8876 133.876-24.6905Q131.711-16.9944 124.221-3.85994Q116.732 9.27453 102.283 20.5282Q87.8338 31.7819 67.343 31.225Q46.0099 30.6681 33.0354 23.6295Q20.0608 16.5909 15.5141 8.14405Q10.9673-0.30281 13.8401-3.65207ZM16.1211-1.64445Q15.6083-0.840246 15.7852 0.875772Q15.9621 2.59179 16.915 4.79939Q19.1305 9.94443 25.0344 15.1046Q30.9383 20.2647 41.5921 24.0335Q52.2459 27.8024 67.4918 28.2909Q86.9697 28.7735 100.788 17.9518Q114.606 7.13025 121.797-5.59331Q128.988-18.3169 130.918-25.4924Q133.423-34.3186 132.319-45.1604Q131.215-56.0023 120.077-62.0259Q113.07-65.7735 106.549-64.2646Q100.027-62.7557 95.0614-58.244Q90.0953-53.7324 87.1016-48.5613Q85.1776-45.2018 80.8851-36.2148Q75.1874-24.188 70.5502-16.4266Q65.9131-8.66516 58.8935-2.87098Q51.874 2.9232 42.7164 3.23884Q38.3719 3.48009 33.8393 2.16828Q29.3068 0.856459 23.6532-1.30883Q20.1547-2.71224 19.3384-2.79266Q18.2948-2.78661 17.5136-2.47795Q16.7324-2.16928 16.1211-1.64445ZM95.2916-61.9105Q96.3068-65.296 97.2477-66.5586Q97.9231-67.3828 98.9021-67.7948Q99.881-68.2069 101.015-68.1326Q109.043-67.8913 117.234-70.1482Q125.425-72.4051 126.822-79.8804Q127.805-84.9511 126.718-88.4877Q125.63-92.0243 123.472-93.8852Q121.315-95.746 119.021-96.2346Q118.124-96.4014 117.061-96.1572Q115.997-95.9129 114.451-95.3499Q113.54-94.972 112.553-94.7308Q111.566-94.4895 110.847-94.5457Q110.129-94.602 109.707-95.0863Q108.969-95.9728 108.774-96.7637Q108.579-97.5547 108.772-98.1164Q108.965-98.6782 109.357-98.9576Q113.008-99.9909 115.78-100.143Q118.552-100.294 121.625-99.0631Q124.698-97.8317 128.257-94.6693Q130.534-92.6267 131.355-87.884Q132.175-83.1414 132.051-78.2227Q131.928-73.3041 131.445-67.2224L131.371-65.8855Q131.29-64.3031 131.776-62.8405Q132.261-61.3778 133.492-58.4906L133.572-58.4162L138.713-47.1634Q139.153-46.1343 138.825-45.2006Q138.496-44.267 137.628-43.6841Q136.184-42.7674 134.729-42.2507Q133.273-41.734 132.807-42.0636Q132.516-42.2867 132.135-43.3301Q131.754-44.3734 131.388-45.5635Q130.473-48.6478 129.605-50.583Q128.736-52.5182 127.469-53.1857Q126.369-53.7849 125.003-53.5376Q123.637-53.2903 121.801-52.6167Q120.513-52.1463 119.729-51.9885Q118.945-51.8307 118.418-52.1161Q117.91-52.4759 117.606-53.2559Q117.302-54.0359 117.079-54.9405Q116.504-57.0798 115.586-58.5727Q114.669-60.0656 112.666-61.0669Q111.003-61.9013 106.216-61.4992Q101.429-61.0971 96.6359-60.3673Q96.1817-60.311 95.8331-60.4979Q95.4845-60.6848 95.3257-61.0675Q95.167-61.4503 95.2916-61.9105Z"/>
  </g>
  <g id="Black-M" transform="matrix(1 0 0 1 2865.29 1126)">
   <path d="M12.6112-13.6928Q14.4385-15.5824 17.182-16.6622Q19.9255-17.742 23.1778-17.5449Q26.4301-17.3478 29.6383-15.4584Q30.9154-15.0535 31.6295-14.8172Q32.3436-14.5809 33.7354-14.1083Q35.7036-13.5317 37.246-13.2123Q38.7884-12.8929 40.0193-12.9552Q44.3654-13.1473 47.8962-16.434Q51.427-19.7207 54.1114-24.386Q56.7958-29.0512 60.5602-36.9018Q64.262-44.6741 66.2505-48.2202Q69.3968-53.5938 75.1494-58.5832Q80.902-63.5726 88.7416-65.2652Q96.5813-66.9577 105.06-62.4097Q114.161-57.4878 117.299-49.5105Q120.438-41.5332 120.004-34.5942Q119.571-27.6552 118.21-22.8371Q116.352-16.207 109.815-4.74313Q103.278 6.72074 90.462 16.5984Q77.6457 26.4761 59.3285 25.9206Q38.9192 25.3651 26.7156 17.8136Q14.512 10.2621 11.2513 0.78444Q7.99062-8.6932 12.6112-13.6928ZM25.5117-2.05381Q25.5065-2.74398 25.626-2.65804Q25.7455-2.5721 26.3323-1.94886Q28.2223 0.195736 31.4286 2.32731Q34.635 4.45889 41.7041 6.43711Q48.7732 8.41533 59.8061 8.72686Q72.5686 9.04359 81.6523 1.7901Q90.7361-5.46338 95.5103-14.0564Q100.285-22.6494 101.551-27.4938Q103.13-32.9197 102.733-38.5769Q102.335-44.2341 96.8157-47.1834Q93.5911-48.9229 90.7091-48.2453Q87.8272-47.5677 85.5061-45.2934Q83.185-43.019 81.2951-39.6233Q79.8516-37.048 76.9752-30.9836Q72.3128-20.9215 68.019-13.9306Q63.7253-6.93962 56.8798-1.53483Q50.0343 3.86995 40.7357 4.23857Q36.3848 4.42549 32.1325 3.32734Q27.8803 2.2292 24.3962 0.713053Q23.1968 0.0847982 22.0703-0.434277Q22.5323-0.268197 23.7339-0.872917Q24.9355-1.47764 25.5117-2.05381ZM72.6372-56.6418Q74.0442-60.925 75.4979-62.6849Q76.8996-64.5072 79.023-65.4469Q81.1464-66.3866 83.5137-66.2049Q89.6817-65.9608 95.3357-67.2355Q100.99-68.5101 101.737-72.6741Q102.355-75.836 102.124-77.6766Q101.893-79.5172 101.073-80.3324Q100.252-81.1476 98.8868-81.4591Q98.4402-81.5214 97.8172-81.28Q97.1941-81.0386 96.4827-80.7166Q94.7747-79.9275 93.3807-79.5693Q91.9868-79.2111 90.3281-79.751Q88.6694-80.2909 87.1016-82.2793Q85.1651-84.522 84.8899-86.9439Q84.6148-89.3658 85.6998-91.3619Q86.7848-93.3581 88.7784-94.3289Q92.9993-95.4919 96.3583-95.7671Q99.7174-96.0422 103.686-94.6638Q107.656-93.2854 112.053-89.376Q115.163-86.6296 116.323-81.4871Q117.483-76.3447 117.45-71.319Q117.416-66.2934 116.928-60.1619L116.746-58.2202Q116.684-57.7114 117.084-56.66Q117.483-55.6086 118.112-54.2327L118.231-53.9939L123.08-43.4961Q124.29-40.7134 123.381-37.9229Q122.473-35.1324 119.929-33.497Q117.188-31.7942 114.457-31.1841Q111.726-30.5741 109.608-32.2043Q108.59-32.9207 107.775-34.826Q106.96-36.7313 105.99-39.6386Q105.73-40.4227 105.582-40.8201Q105.434-41.2174 105.179-41.9234Q104.816-41.8144 104.621-41.7755Q104.426-41.7365 104.026-41.6067Q101.643-40.8228 99.6239-40.6099Q97.6044-40.397 96.1093-41.4769Q94.3131-42.8526 93.6486-44.1816Q92.984-45.5106 92.7244-47.1097Q92.5271-48.117 92.3271-48.5999Q92.1272-49.0828 91.5508-49.3425Q90.9797-49.5969 87.2831-49.1712Q83.5865-48.7455 80.0663-48.1899Q77.7094-47.7642 75.6873-48.9116Q73.6652-50.0589 72.7878-52.2315Q71.9104-54.4042 72.6372-56.6418Z"/>
  </g>
  <g id="Heavy-M" transform="matrix(1 0 0 1 2569.85 1126)">
   <path d="M12.317-13.5321Q13.8652-15.1394 16.1905-16.0987Q18.5158-17.058 21.2928-16.9876Q24.0698-16.9173 26.8483-15.4623Q28.0254-15.1382 28.8913-14.8564Q29.7572-14.5745 31.3199-14.0235Q33.7282-13.2353 35.5711-12.8084Q37.414-12.3815 38.9533-12.447Q43.6269-12.6526 47.3767-16.0813Q51.1264-19.51 53.9195-24.3359Q56.7125-29.1617 60.5538-37.1995Q64.1772-44.7983 66.1236-48.2768Q69.1763-53.5069 74.71-58.3225Q80.2436-63.1382 87.7692-64.7689Q95.2948-66.3996 103.412-62.0419Q112.156-57.3072 115.176-49.6055Q118.196-41.9038 117.769-35.1786Q117.342-28.4534 116.015-23.7591Q114.186-17.236 107.76-5.96248Q101.334 5.31102 88.7611 15.0099Q76.1887 24.7087 58.2459 24.1699Q38.4623 23.631 26.5708 16.4106Q14.6793 9.19022 11.3631 0.158724Q8.04698-8.87277 12.317-13.5321ZM23.5368-3.42702Q23.5022-3.80727 23.6763-3.48466Q23.8504-3.16206 24.4982-2.35801Q26.423 0.0570695 29.8827 2.4334Q33.3424 4.80973 40.527 6.86501Q47.7116 8.92029 58.6632 9.235Q71.773 9.5652 81.1007 2.13961Q90.4283-5.28599 95.3211-14.0575Q100.214-22.829 101.535-27.8042Q103.173-33.4371 102.706-39.5206Q102.239-45.6041 96.2375-48.8073Q92.6821-50.7205 89.471-49.9711Q86.26-49.2217 83.7049-46.7602Q81.1498-44.2987 79.1964-40.8094Q77.7292-38.1897 74.8099-32.0396Q70.1808-22.0774 65.9957-15.2352Q61.8107-8.39294 55.1773-3.12854Q48.544 2.13586 39.5761 2.48782Q35.2935 2.67474 31.1088 1.56434Q26.924 0.453949 23.279-1.11291Q21.9755-1.77375 20.9908-2.18503Q21.3171-2.06966 22.2122-2.53204Q23.1074-2.99441 23.5368-3.42702ZM72.9305-56.7571Q74.2542-60.8 75.5873-62.426Q76.8827-64.0951 78.8228-64.9515Q80.7629-65.8079 82.9304-65.6428Q88.9717-65.4123 94.5618-66.7041Q100.152-67.9959 100.915-72.2157Q101.529-75.3818 101.242-77.2706Q100.955-79.1593 100.073-80.015Q99.1905-80.8707 97.8161-81.1854Q97.3363-81.2509 96.7037-81.0281Q96.0711-80.8054 95.2827-80.4565Q93.6977-79.734 92.4143-79.4162Q91.131-79.0984 89.6377-79.5717Q88.1444-80.045 86.7431-81.8167Q84.9899-83.8564 84.7314-86.047Q84.4729-88.2376 85.4381-90.0358Q86.4034-91.834 88.1874-92.7151Q92.1807-93.8178 95.3423-94.0747Q98.5039-94.3316 102.231-93.0218Q105.957-91.712 110.094-88.0334Q113-85.4607 114.087-80.5764Q115.174-75.692 115.132-70.8963Q115.09-66.1006 114.629-60.241L114.464-58.45Q114.401-57.8855 114.789-56.8464Q115.177-55.8073 115.832-54.3797L115.937-54.171L120.595-44.0806Q121.688-41.5645 120.864-39.0283Q120.041-36.4921 117.736-35.0099Q115.201-33.4403 112.697-32.8672Q110.193-32.294 108.288-33.7512Q107.394-34.3772 106.658-36.112Q105.921-37.8468 105.037-40.4875Q104.734-41.4233 104.513-41.986Q104.291-42.5487 103.992-43.1597Q103.626-43.1102 103.31-43.0479Q102.993-42.9855 102.491-42.8263Q100.271-42.1161 98.4582-41.9183Q96.6458-41.7205 95.3314-42.6734Q93.7525-43.8786 93.1515-45.0871Q92.5504-46.2956 92.2734-47.809Q92.0427-48.8687 91.7916-49.4159Q91.5404-49.9631 90.8854-50.2688Q90.2587-50.5527 86.6475-50.1539Q83.0364-49.7551 79.5717-49.2099Q77.4607-48.8238 75.6564-49.8482Q73.8521-50.8725 73.0644-52.8107Q72.2767-54.7489 72.9305-56.7571Z"/>
  </g>
  <g id="Bold-M" transform="matrix(1 0 0 1 2274.56 1126)">
   <path d="M11.9878-13.3523Q13.2239-14.6439 15.0814-15.4683Q16.9388-16.2928 19.1841-16.3642Q21.4294-16.4357 23.7272-15.4666Q24.7926-15.233 25.8282-14.9002Q26.8639-14.5674 28.6179-13.9287Q31.5184-12.9036 33.6974-12.3566Q35.8765-11.8095 37.7608-11.8786Q42.8009-12.0993 46.7955-15.6868Q50.7901-19.2743 53.7047-24.2798Q56.6193-29.2853 60.5467-37.5324Q64.0824-44.9372 65.9816-48.3401Q68.9296-53.4095 74.2184-58.0309Q79.5072-62.6523 86.6815-64.2138Q93.8557-65.7753 101.569-61.6305Q109.913-57.1052 112.8-49.7119Q115.687-42.3185 115.268-35.8324Q114.849-29.3463 113.559-24.7904Q111.764-18.387 105.461-7.3265Q99.158 3.73405 86.8584 13.2328Q74.5588 22.7316 57.0348 22.2114Q37.9511 21.6911 26.4088 14.8412Q14.8665 7.99119 11.4883-0.54123Q8.11001-9.07365 11.9878-13.3523ZM21.3275-4.96315Q21.26-4.99671 21.4953-4.40936Q21.7305-3.82201 22.4465-2.8157Q24.4102-0.0980486 28.1533 2.55208Q31.8964 5.2022 39.2102 7.34368Q46.524 9.48516 57.3847 9.80343Q70.8831 10.1487 80.4836 2.53058Q90.0841-5.08755 95.1096-14.0587Q100.135-23.0299 101.516-28.1514Q103.222-34.0159 102.676-40.5763Q102.13-47.1367 95.5907-50.6238Q91.6653-52.7313 88.086-51.9016Q84.5067-51.0719 81.6899-48.401Q78.8731-45.7301 76.8487-42.1361Q75.355-39.4668 72.3877-33.2208Q67.7958-23.3704 63.7323-16.6946Q59.6688-10.0187 53.2728-4.91133Q46.8768 0.19603 38.2789 0.529353Q34.0729 0.716267 29.9636-0.407828Q25.8544-1.53192 22.0293-3.15551Q20.6093-3.85281 19.7833-4.1435Q19.9577-4.08486 20.51-4.38801Q21.0623-4.69115 21.3275-4.96315ZM73.2586-56.8862Q74.489-60.6602 75.6873-62.1363Q76.8638-63.6341 78.5989-64.3973Q80.334-65.1605 82.2778-65.0141Q88.1774-64.7986 93.696-66.1096Q99.2145-67.4206 99.9959-71.703Q100.605-74.8737 100.256-76.8163Q99.9061-78.7589 98.9544-79.66Q98.0027-80.5611 96.6185-80.8793Q96.1013-80.9484 95.458-80.7464Q94.8147-80.5445 93.9404-80.1654Q92.4929-79.5175 91.3333-79.2449Q90.1737-78.9724 88.8654-79.3711Q87.557-79.7698 86.3422-81.2993Q84.794-83.1118 84.5541-85.0436Q84.3142-86.9755 85.1454-88.5523Q85.9766-90.129 87.5264-90.9099Q91.2651-91.9451 94.2058-92.1816Q97.1464-92.4181 100.602-91.185Q104.058-89.952 107.902-86.5315Q110.58-84.1531 111.585-79.5575Q112.59-74.9619 112.539-70.4234Q112.487-65.8849 112.056-60.3295L111.91-58.7071Q111.848-58.0804 112.222-57.055Q112.597-56.0296 113.281-54.5441L113.372-54.3692L117.814-44.7345Q118.777-42.5166 118.048-40.2649Q117.32-38.0132 115.283-36.7022Q112.979-35.2818 110.729-34.7499Q108.479-34.2179 106.811-35.4816Q106.056-36.0065 105.407-37.5505Q104.759-39.0946 103.971-41.4371Q103.62-42.5425 103.317-43.2903Q103.013-44.038 102.663-44.5426Q102.296-44.5598 101.843-44.4712Q101.39-44.3827 100.773-44.1906Q98.7351-43.5629 97.1542-43.382Q95.5733-43.201 94.4613-44.012Q93.1255-45.0264 92.5954-46.1001Q92.0653-47.1737 91.7688-48.5911Q91.5009-49.7095 91.1925-50.3287Q90.8841-50.9478 90.1411-51.3051Q89.4521-51.6218 85.9366-51.2532Q82.4211-50.8845 79.0183-50.3508Q77.1825-50.0092 75.6219-50.8959Q74.0612-51.7827 73.3738-53.4586Q72.6864-55.1345 73.2586-56.8862Z"/>
  </g>
  <g id="Semibold-M" transform="matrix(1 0 0 1 1978.83 1126)">
   <path d="M11.7609-13.2283Q12.7818-14.3023 14.3167-15.0338Q15.8517-15.7652 17.7304-15.9345Q19.6092-16.1037 21.5756-15.4696Q22.5639-15.2984 23.7166-14.9304Q24.8693-14.5624 26.7552-13.8633Q29.995-12.675 32.4058-12.0451Q34.8165-11.4152 36.9387-11.4867Q42.2314-11.7178 46.3949-15.4148Q50.5583-19.1118 53.5567-24.2411Q56.5551-29.3705 60.5417-37.762Q64.017-45.033 65.8838-48.3837Q68.7596-53.3425 73.8796-57.8299Q78.9995-62.3173 85.9316-63.8311Q92.8636-65.3448 100.299-61.3469Q108.367-56.966 111.162-49.7851Q113.958-42.6043 113.544-36.2831Q113.13-29.9619 111.866-25.5013Q110.094-19.1806 103.876-8.26684Q97.6582 2.6469 85.5467 12.0078Q73.4352 21.3686 56.1998 20.8612Q37.5988 20.3538 26.2972 13.7592Q14.9955 7.16458 11.5745-1.02377Q8.15347-9.21213 11.7609-13.2283ZM19.8045-6.02215Q19.7143-5.8167 19.9917-5.04684Q20.2691-4.27697 21.0321-3.13122Q23.0226-0.204986 26.9611 2.63389Q30.8995 5.47277 38.3024 7.67367Q45.7054 9.87457 56.5033 10.1953Q70.2697 10.551 80.0582 2.80011Q89.8468-4.95074 94.9637-14.0596Q100.081-23.1684 101.503-28.3908Q103.256-34.415 102.656-41.3041Q102.056-48.1932 95.1448-51.8761Q90.9644-54.1176 87.1312-53.2325Q83.2981-52.3474 80.3009-49.5322Q77.3036-46.7169 75.2303-43.0508Q73.7182-40.3473 70.7178-34.0351Q66.1517-24.2619 62.172-17.7007Q58.1923-11.1395 51.9599-6.14038Q45.7275-1.14128 37.3847-0.820803Q33.2313-0.633889 29.1741-1.76743Q25.1169-2.90097 21.1677-4.56367Q19.6674-5.2861 18.9508-5.49365Q19.0206-5.47413 19.3365-5.6675Q19.6524-5.86087 19.8045-6.02215ZM73.4847-56.9752Q74.651-60.5639 75.7563-61.9365Q76.8507-63.3163 78.4445-64.0152Q80.0383-64.7142 81.8279-64.5806Q87.6299-64.3756 93.0991-65.6998Q98.5684-67.024 99.362-71.3494Q99.9686-74.5234 99.5757-76.5031Q99.1828-78.4829 98.1833-79.4152Q97.1838-80.3476 95.7928-80.6683Q95.25-80.7398 94.5993-80.5522Q93.9486-80.3646 93.0149-79.9648Q91.6623-79.3682 90.588-79.1269Q89.5137-78.8855 88.3329-79.2328Q87.1521-79.5801 86.0658-80.9426Q84.6589-82.5984 84.4319-84.3519Q84.2049-86.1054 84.9437-87.5295Q85.6825-88.9536 87.0707-89.6653Q90.6338-90.6541 93.4222-90.8765Q96.2106-91.0989 99.4795-89.9188Q102.748-88.7386 106.392-85.4961Q108.912-83.2517 109.861-78.8551Q110.809-74.4586 110.751-70.0974Q110.693-65.7362 110.283-60.3906L110.15-58.8843Q110.087-58.2147 110.453-57.1988Q110.818-56.1828 111.522-54.6575L111.603-54.5058L115.898-45.1853Q116.77-43.1729 116.107-41.1174Q115.444-39.0618 113.592-37.8689Q111.447-36.5512 109.372-36.0478Q107.297-35.5443 105.793-36.6746Q105.133-37.1297 104.545-38.5423Q103.957-39.9548 103.236-42.0918Q102.853-43.3142 102.492-44.1894Q102.132-45.0647 101.747-45.496Q101.379-45.5591 100.832-45.4525Q100.285-45.3459 99.5894-45.1311Q97.6765-44.5603 96.2552-44.391Q94.834-44.2217 93.8614-44.9347Q92.6932-45.8177 92.212-46.7984Q91.7309-47.7791 91.421-49.1304Q91.1274-50.2892 90.7795-50.9579Q90.4315-51.6267 89.6279-52.0194Q88.896-52.3588 85.4465-52.011Q81.997-51.6632 78.6368-51.1374Q76.9907-50.8264 75.598-51.6183Q74.2054-52.4102 73.5871-53.9053Q72.9689-55.4003 73.4847-56.9752Z"/>
  </g>
  <g id="Medium-M" transform="matrix(1 0 0 1 1682.87 1126)">
   <path d="M11.5888-13.1343Q12.4465-14.0433 13.7369-14.7043Q15.0274-15.3652 16.6282-15.6086Q18.229-15.852 19.9441-15.4719Q20.874-15.3479 22.1154-14.9533Q23.3568-14.5587 25.3427-13.8137Q28.8399-12.5016 31.4263-11.8089Q34.0128-11.1162 36.3154-11.1896Q41.7996-11.4285 46.0911-15.2086Q50.3825-18.9886 53.4445-24.2118Q56.5064-29.4351 60.538-37.936Q63.9674-45.1056 65.8096-48.4168Q68.6307-53.2916 73.6226-57.6774Q78.6146-62.0633 85.3629-63.5409Q92.1113-65.0185 99.3356-61.1319Q107.194-56.8604 109.921-49.8407Q112.647-42.8211 112.237-36.6249Q111.827-30.4286 110.582-26.0404Q108.828-19.7823 102.675-8.97985Q96.521 1.82258 84.5521 11.0789Q72.5832 20.3351 55.5668 19.8375Q37.3316 19.3398 26.2125 12.9388Q15.0934 6.53782 11.6399-1.38966Q8.18642-9.31713 11.5888-13.1343ZM18.6496-6.82512Q18.5423-6.43846 18.8516-5.5302Q19.1609-4.62195 19.9597-3.37047Q21.9705-0.286071 26.0571 2.69593Q30.1437 5.67793 37.6141 7.92389Q45.0846 10.1698 55.835 10.4924Q69.8045 10.856 79.7357 3.00449Q89.6669-4.84701 94.8531-14.0602Q100.039-23.2734 101.494-28.5723Q103.281-34.7175 102.64-41.8559Q101.999-48.9943 94.8067-52.8256Q90.4329-55.1687 86.4073-54.2416Q82.3816-53.3145 79.2476-50.3899Q76.1135-47.4652 74.0031-43.7443Q72.4771-41.0149 69.4517-34.6525Q64.905-24.9378 60.9888-18.4635Q57.0727-11.9893 50.9643-7.07229Q44.856-2.15528 36.7066-1.84455Q32.5932-1.65763 28.5755-2.79834Q24.5578-3.93904 20.5145-5.6314Q18.9532-6.37288 18.3196-6.5174Q18.31-6.52753 18.4467-6.63766Q18.5834-6.7478 18.6496-6.82512ZM73.6562-57.0427Q74.7737-60.4908 75.8085-61.7851Q76.8408-63.0753 78.3275-63.7256Q79.8141-64.3758 81.4868-64.252Q87.2147-64.0548 92.6466-65.389Q98.0784-66.7233 98.8814-71.0814Q99.4856-74.2578 99.06-76.2657Q98.6344-78.2736 97.5987-79.2296Q96.5629-80.1857 95.1667-80.5083Q94.6044-80.5817 93.9482-80.4049Q93.2919-80.2282 92.3132-79.8127Q91.0325-79.2551 90.0229-79.0373Q89.0133-78.8196 87.9292-79.1279Q86.8451-79.4363 85.8562-80.6721Q84.5565-82.2092 84.3392-83.8275Q84.1219-85.4457 84.7907-86.7541Q85.4594-88.0624 86.7251-88.7217Q90.1552-89.6752 92.8281-89.8869Q95.5011-90.0987 98.6282-88.9586Q101.755-87.8186 105.246-84.7111Q107.648-82.5682 108.553-78.3226Q109.459-74.0769 109.396-69.8502Q109.333-65.6234 108.939-60.4368L108.815-59.0187Q108.753-58.3166 109.111-57.3078Q109.47-56.299 110.189-54.7434L110.262-54.6093L114.444-45.5271Q115.249-43.6706 114.635-41.7638Q114.021-39.8569 112.31-38.7536Q110.286-37.5138 108.343-37.0319Q106.401-36.55 105.021-37.5791Q104.434-37.9814 103.892-39.2942Q103.349-40.6071 102.679-42.5882Q102.27-43.8992 101.867-44.8712Q101.464-45.8432 101.052-46.2189Q100.683-46.3168 100.065-46.1965Q99.4472-46.0762 98.6915-45.8443Q96.8738-45.3166 95.5736-45.1561Q94.2734-44.9956 93.4065-45.6344Q92.3654-46.4177 91.9214-47.3279Q91.4773-48.2381 91.1573-49.5392Q90.8441-50.7287 90.4663-51.4351Q90.0884-52.1414 89.2388-52.5611Q88.4744-52.9177 85.0749-52.5856Q81.6753-52.2536 78.3476-51.7338Q76.8453-51.446 75.58-52.166Q74.3147-52.8859 73.7489-54.2439Q73.183-55.6019 73.6562-57.0427Z"/>
  </g>
  <g id="Regular-M" transform="matrix(1 0 0 1 1387.12 1126)">
   <path d="M11.3644-13.0117Q12.0093-13.7054 12.9807-14.2745Q13.9522-14.8435 15.1905-15.1836Q16.4288-15.5237 17.8161-15.4749Q18.6697-15.4126 20.0269-14.9832Q21.3841-14.5538 23.5005-13.749Q27.3332-12.2755 30.1489-11.5009Q32.9645-10.7262 35.5024-10.802Q41.2364-11.0512 45.6948-14.9396Q50.1532-18.8279 53.298-24.1736Q56.4429-29.5193 60.5332-38.1631Q63.9028-45.2004 65.7128-48.46Q68.4625-53.2253 73.2875-57.4786Q78.1125-61.732 84.6213-63.1624Q91.1301-64.5928 98.0792-60.8514Q105.665-56.7226 108.301-49.9132Q110.937-43.1038 110.532-37.0706Q110.127-31.0374 108.908-26.7436Q107.177-20.5671 101.107-9.90986Q95.0377 0.747374 83.2548 9.86724Q71.4719 18.9871 54.741 18.5022Q36.9831 18.0172 26.1021 11.8688Q15.221 5.7203 11.7252-1.8669Q8.2294-9.4541 11.3644-13.0117ZM17.1433-7.87249Q17.0135-7.24944 17.3645-6.16068Q17.7155-5.07191 18.5608-3.68253Q20.5982-0.391833 24.878 2.77685Q29.1578 5.94552 36.7163 8.25025Q44.2749 10.555 54.9632 10.88Q69.1977 11.2538 79.315 3.27106Q89.4322-4.71171 94.7089-14.061Q99.9855-23.4103 101.481-28.809Q103.315-35.1122 102.62-42.5757Q101.925-50.0393 94.3657-54.0641Q89.7396-56.5397 85.4629-55.5579Q81.1863-54.5761 77.8738-51.5086Q74.5613-48.4412 72.4024-44.6489Q70.8583-41.8857 67.8002-35.4579Q63.2789-25.8194 59.4456-19.4586Q55.6123-13.0978 49.6658-8.28783Q43.7193-3.47789 35.8222-3.17987Q31.7609-2.99295 27.7947-4.143Q23.8285-5.29305 19.6624-7.02408Q18.0217-7.79041 17.4963-7.85272Q17.3831-7.90153 17.2861-7.90309Q17.189-7.90466 17.1433-7.87249ZM73.8799-57.1307Q74.9339-60.3955 75.8767-61.5876Q76.828-62.761 78.1748-63.3477Q79.5216-63.9344 81.0419-63.8233Q86.6732-63.6364 92.0563-64.9837Q97.4394-66.331 98.2545-70.7318Q98.8557-73.9114 98.3874-75.956Q97.9191-78.0006 96.8361-78.9876Q95.753-79.9746 94.3502-80.2996Q93.7624-80.3754 93.0989-80.2129Q92.4353-80.0504 91.398-79.6142Q90.2111-79.1075 89.2858-78.9206Q88.3606-78.7336 87.4026-78.9912Q86.4447-79.2487 85.5828-80.3193Q84.4229-81.7015 84.2183-83.1434Q84.0137-84.5852 84.5911-85.7426Q85.1685-86.8999 86.2744-87.4908Q89.5309-88.3984 92.0532-88.5962Q94.5755-88.794 97.5179-87.7063Q100.46-86.6185 103.752-83.6871Q105.998-81.6767 106.848-77.6279Q107.697-73.5791 107.628-69.5277Q107.559-65.4764 107.185-60.4972L107.074-59.194Q107.012-58.4494 107.361-57.45Q107.71-56.4505 108.45-54.8555L108.512-54.7444L112.548-45.973Q113.264-44.3198 112.715-42.6069Q112.166-40.894 110.638-39.9075Q108.771-38.7693 107.001-38.3156Q105.232-37.8618 104.015-38.759Q103.521-39.0923 103.039-40.2751Q102.557-41.4578 101.952-43.2356Q101.511-44.6624 101.052-45.7605Q100.593-46.8586 100.147-47.1618Q99.7758-47.3051 99.0651-47.167Q98.3543-47.0289 97.5205-46.7745Q95.8268-46.303 94.6845-46.154Q93.5422-46.005 92.8133-46.5471Q91.9379-47.2002 91.5422-48.0185Q91.1466-48.8368 90.8132-50.0725Q90.4747-51.302 90.0578-52.0574Q89.6409-52.8128 88.7313-53.2677Q87.9245-53.6467 84.5901-53.3351Q81.2558-53.0236 77.9703-52.5117Q76.6556-52.2541 75.5564-52.8803Q74.4572-53.5065 73.9598-54.6857Q73.4624-55.8648 73.8799-57.1307Z"/>
  </g>
  <g id="Light-M" transform="matrix(1 0 0 1 1091.24 1126)">
   <path d="M11.1656-12.3158Q11.7607-12.9431 12.6244-13.4459Q13.4882-13.9487 14.6022-14.2474Q15.7163-14.546 16.971-14.5138Q17.7252-14.4515 19.0658-14.0304Q20.4065-13.6093 22.2908-12.8874Q26.2395-11.3641 29.1463-10.5563Q32.0531-9.74856 34.7235-9.84093Q40.6896-10.0901 45.3054-14.0862Q49.9212-18.0822 53.1406-23.5274Q56.36-28.9725 60.5-37.7488Q63.9525-44.9352 65.6133-47.9131Q68.2968-52.5624 72.9644-56.6832Q77.6319-60.804 83.9087-62.193Q90.1855-63.582 96.8695-59.9897Q104.207-55.9935 106.751-49.3912Q109.296-42.789 108.891-36.9215Q108.486-31.054 107.3-26.843Q105.586-20.7328 99.5993-10.2247Q93.6126 0.283393 82.012 9.27898Q70.4114 18.2746 53.9456 17.8062Q36.5688 17.3378 25.9446 11.4048Q15.3204 5.47174 11.8163-1.79233Q8.31225-9.0564 11.1656-12.3158ZM15.7017-8.28675Q15.489-7.66371 15.7737-6.50038Q16.0584-5.33704 16.8706-3.84824Q18.8085-0.342121 23.1795 3.0834Q27.5504 6.50893 35.3244 9.00422Q43.0984 11.4995 54.1347 11.8411Q68.6343 12.2149 78.9338 4.10788Q89.2333-3.99917 94.6011-13.5059Q99.969-23.0126 101.464-28.4611Q103.331-34.9299 102.587-42.6834Q101.842-50.437 93.9514-54.6607Q89.0768-57.2688 84.5598-56.229Q80.0429-55.1892 76.5647-51.9892Q73.0865-48.7891 70.8779-44.9306Q69.3503-42.2171 66.2094-35.6236Q61.7213-26.0845 57.9625-19.8314Q54.2038-13.5783 48.4147-8.8678Q42.6257-4.15729 34.9771-3.87584Q31.1312-3.68892 27.3059-4.79754Q23.4805-5.90616 19.2481-7.62063Q17.276-8.48638 16.7175-8.54869Q16.3889-8.58093 16.1344-8.50793Q15.8799-8.43492 15.7017-8.28675ZM73.8633-56.7496Q74.8344-59.8155 75.711-60.9413Q76.5297-61.949 77.6942-62.4529Q78.8588-62.9568 80.1802-62.8622Q85.9938-62.6753 91.6751-64.1469Q97.3565-65.6185 98.2545-70.4501Q98.9054-73.8617 98.3211-76.1217Q97.7368-78.3817 96.4715-79.5095Q95.2062-80.6374 93.6873-80.979Q93.0664-81.0713 92.3532-80.9005Q91.6399-80.7298 90.5529-80.2936Q89.5151-79.8532 88.6396-79.6662Q87.764-79.4793 86.9304-79.6706Q86.0967-79.8618 85.4005-80.717Q84.4229-81.8838 84.2349-83.0688Q84.0469-84.2538 84.4917-85.1875Q84.9365-86.1211 85.7939-86.596Q88.9178-87.4704 91.3241-87.6434Q93.7304-87.8163 96.4988-86.77Q99.2671-85.7237 102.393-82.9414Q104.49-81.0636 105.273-77.1308Q106.056-73.198 105.979-69.2212Q105.902-65.2444 105.528-60.348L105.433-59.1277Q105.371-58.234 105.729-57.1931Q106.087-56.1522 106.892-54.3584L106.954-54.2639L110.974-45.509Q111.574-44.1209 111.116-42.7146Q110.658-41.3082 109.395-40.4874Q107.76-39.4819 106.189-39.0447Q104.619-38.6074 103.667-39.3058Q103.256-39.5894 102.832-40.6562Q102.408-41.723 101.903-43.2356Q101.378-44.9607 100.853-46.183Q100.328-47.4054 99.7157-47.7749Q99.1959-48.0176 98.3774-47.8629Q97.5589-47.7083 96.5428-47.371Q95.0645-46.9327 94.088-46.792Q93.1114-46.6513 92.4818-47.0939Q91.7556-47.6311 91.4097-48.3831Q91.0637-49.1351 90.7801-50.2051Q90.4084-51.5671 89.9004-52.4468Q89.3923-53.3265 88.2839-53.8808Q87.3279-54.3426 83.8776-54.0311Q80.4273-53.7196 77.0092-53.1911Q75.9928-52.9998 75.1504-53.4769Q74.3081-53.9539 73.9267-54.8597Q73.5453-55.7654 73.8633-56.7496Z"/>
  </g>
  <g id="Thin-M" transform="matrix(1 0 0 1 795.626 1126)">
   <path d="M10.9026-11.3953Q11.432-11.935 12.1532-12.3501Q12.8745-12.7652 13.8242-13.0091Q14.7739-13.253 15.8533-13.2426Q16.476-13.1803 17.7947-12.7702Q19.1134-12.3601 20.6909-11.7477Q24.7931-10.1588 27.8204-9.30713Q30.8477-8.4555 33.6935-8.56979Q39.9664-8.81901 44.7904-12.9575Q49.6144-17.096 52.9324-22.6726Q56.2504-28.2493 60.4562-37.2009Q64.0183-44.5846 65.4818-47.1899Q68.0776-51.6858 72.537-55.6312Q76.9964-59.5767 82.9663-60.9109Q88.9363-62.2451 95.2696-58.8501Q102.278-55.0292 104.702-48.7009Q107.127-42.3726 106.722-36.7242Q106.317-31.0759 105.175-26.9745Q103.482-20.952 97.6049-10.6411Q91.7278-0.330258 80.3683 8.50096Q69.0088 17.3322 52.8936 16.8857Q36.0209 16.4393 25.7364 10.7911Q15.4519 5.14299 11.9369-1.69371Q8.42183-8.53041 10.9026-11.3953ZM13.795-8.83466Q13.4727-8.21161 13.6698-6.94966Q13.8668-5.6877 14.6351-4.0674Q16.4416-0.276372 20.9331 3.48885Q25.4245 7.25408 33.4834 10.0014Q41.5423 12.7487 53.0389 13.1122Q67.8892 13.4861 78.4298 5.21464Q88.9703-3.05678 94.4587-12.7717Q99.947-22.4867 101.442-28.0008Q103.353-34.6888 102.543-42.8259Q101.733-50.9629 93.4035-55.4496Q88.2001-58.2331 83.3654-57.1166Q78.5307-56.0001 74.8333-52.6247Q71.1359-49.2494 68.8616-45.3032Q67.356-42.6554 64.1054-35.8428Q59.6612-26.4352 56.001-20.3245Q52.3409-14.2139 46.7601-9.63487Q41.1792-5.05585 33.8594-4.79631Q30.2984-4.6094 26.6593-5.66323Q23.0203-6.71706 18.7002-8.40961Q16.2898-9.40686 15.6874-9.46917Q15.0739-9.47949 14.6112-9.30786Q14.1485-9.13624 13.795-8.83466ZM73.8414-56.2455Q74.7029-59.0484 75.4919-60.0866Q76.1352-60.8751 77.0587-61.2694Q77.9822-61.6637 79.0406-61.5911Q85.0952-61.4042 91.1711-63.0401Q97.2469-64.6761 98.2545-70.0775Q98.9712-73.7959 98.2335-76.3408Q97.4958-78.8858 95.9894-80.1999Q94.483-81.514 92.8107-81.8775Q92.146-81.9918 91.367-81.8101Q90.588-81.6283 89.4351-81.1922Q88.5946-80.8394 87.7848-80.6525Q86.9751-80.4655 86.3058-80.5691Q85.6365-80.6727 85.1594-81.243Q84.4229-82.1249 84.2568-82.9702Q84.0907-83.8155 84.3602-84.4533Q84.6296-85.091 85.1583-85.4125Q88.1069-86.2431 90.3598-86.3832Q92.6127-86.5233 95.1509-85.5318Q97.6892-84.5402 100.596-81.9552Q102.496-80.2527 103.191-76.4733Q103.887-72.6939 103.798-68.8157Q103.71-64.9376 103.336-60.1508L103.264-59.04Q103.201-57.9491 103.57-56.8534Q103.939-55.7577 104.832-53.7009L104.894-53.6283L108.892-44.8953Q109.338-43.8579 109.001-42.857Q108.664-41.8561 107.751-41.2545Q106.423-40.4243 105.115-40.009Q103.808-39.5937 103.206-40.029Q102.906-40.2469 102.558-41.1603Q102.21-42.0736 101.837-43.2356Q101.203-45.3551 100.59-46.7419Q99.9772-48.1287 99.1459-48.5858Q98.4288-48.96 97.4679-48.7834Q96.5069-48.6068 95.2497-48.16Q94.0564-47.7655 93.299-47.6358Q92.5416-47.506 92.0435-47.8171Q91.5145-48.2009 91.2343-48.8652Q90.9541-49.5296 90.7363-50.3804Q90.3208-51.9178 89.6922-52.9619Q89.0636-54.0059 87.6921-54.6917Q86.5389-55.2631 82.9352-54.9516Q79.3315-54.6401 75.7381-54.0896Q75.1161-53.9861 74.6135-54.2659Q74.1109-54.5457 73.8828-55.0898Q73.6548-55.6339 73.8414-56.2455Z"/>
  </g>
  <g id="Ultralight-M" transform="matrix(1 0 0 1 499.477 1126)">
   <path d="M10.7679-10.9238Q11.2636-11.4186 11.9119-11.7889Q12.5602-12.1591 13.4257-12.3749Q14.2912-12.5907 15.2808-12.5916Q15.8361-12.5293 17.1436-12.1247Q18.4511-11.7202 19.8715-11.164Q24.0522-9.54136 27.1413-8.66729Q30.2303-7.79321 33.1659-7.91872Q39.5959-8.16794 44.5266-12.3794Q49.4573-16.5908 52.8258-22.2348Q56.1943-27.8788 60.4337-36.9203Q64.0519-44.405 65.4145-46.8195Q67.9654-51.2368 72.3181-55.0924Q76.6708-58.9481 82.4837-60.2542Q88.2965-61.5603 94.4502-58.2663Q101.29-54.5353 103.653-48.3473Q106.015-42.1593 105.61-36.6232Q105.205-31.0871 104.086-27.0419Q102.404-21.0642 96.5834-10.8544Q90.7624-0.644567 79.5264 8.10246Q68.2903 16.8495 52.3548 16.4143Q35.7403 15.979 25.6298 10.4768Q15.5193 4.97461 11.9986-1.64319Q8.47796-8.261 10.7679-10.9238ZM12.8184-9.11529Q12.44-8.49224 12.5922-7.17977Q12.7443-5.86731 13.4902-4.17965Q15.2293-0.242696 19.7825 3.69652Q24.3357 7.63574 32.5405 10.5122Q40.7453 13.3886 52.4776 13.7633Q67.5075 14.1371 78.1716 5.78152Q88.8356-2.57409 94.3857-12.3957Q99.9358-22.2173 101.431-27.7651Q103.364-34.5653 102.521-42.8988Q101.677-51.2324 93.1229-55.8538Q87.7511-58.727 82.7536-57.5712Q77.7561-56.4154 73.9465-52.9503Q70.1369-49.4851 67.8289-45.494Q66.3345-42.8799 63.0278-35.955Q58.606-26.6148 54.9964-20.5771Q51.3868-14.5394 45.9126-10.0278Q40.4383-5.51609 33.2869-5.26778Q29.8719-5.08086 26.3282-6.10663Q22.7845-7.1324 18.4196-8.81372Q15.7847-9.87833 15.1598-9.94063Q14.4004-9.93973 13.8311-9.71759Q13.2617-9.49545 12.8184-9.11529ZM73.8302-55.9873Q74.6356-58.6555 75.3796-59.6488Q75.9331-60.3251 76.7331-60.6633Q77.5332-61.0014 78.4569-60.94Q84.635-60.7531 90.9129-62.4733Q97.1908-64.1934 98.2545-69.8867Q99.0049-73.7622 98.1886-76.4531Q97.3723-79.144 95.7424-80.5535Q94.1125-81.963 92.3617-82.3378Q91.6745-82.4633 90.8618-82.2759Q90.0492-82.0886 88.8627-81.6524Q88.1231-81.3445 87.347-81.1576Q86.5709-80.9707 85.9858-81.0294Q85.4007-81.0881 85.0359-81.5124Q84.4229-82.2483 84.268-82.9197Q84.1131-83.591 84.2928-84.0772Q84.4725-84.5634 84.8328-84.8063Q87.6915-85.6145 89.8659-85.7377Q92.0402-85.861 94.4606-84.8975Q96.881-83.9341 99.6756-81.45Q101.474-79.8373 102.125-76.1365Q102.775-72.4357 102.682-68.6081Q102.588-64.7804 102.214-60.0498L102.152-58.9951Q102.09-57.8032 102.464-56.6794Q102.839-55.5557 103.777-53.3642L103.839-53.3028L107.826-44.581Q108.193-43.7232 107.918-42.93Q107.642-42.1368 106.909-41.6474Q105.738-40.907 104.565-40.5029Q103.392-40.0988 102.971-40.3995Q102.726-40.5837 102.418-41.4185Q102.109-42.2532 101.803-43.2356Q101.113-45.5572 100.455-47.0281Q99.7976-48.4991 98.854-49.0011Q98.0359-49.4427 97.002-49.2549Q95.9681-49.0671 94.5874-48.5641Q93.54-48.1921 92.8949-48.0679Q92.2497-47.9438 91.819-48.1876Q91.391-48.4928 91.1445-49.1122Q90.898-49.7316 90.7138-50.4702Q90.2759-52.0974 89.5855-53.2257Q88.8952-54.3539 87.3891-55.107Q86.1348-55.7346 82.4525-55.4231Q78.7702-55.1115 75.087-54.5499Q74.6671-54.4912 74.3385-54.67Q74.0098-54.8487 73.8604-55.2076Q73.711-55.5665 73.8302-55.9873Z"/>
  </g>
  <g id="Black-S" transform="matrix(1 0 0 1 2879.69 696)">
   <path d="M9.96094-18.3594Q11.4746-19.9219 13.7451-20.8008Q16.0156-21.6797 18.7012-21.4844Q21.3867-21.2891 24.0234-19.6777Q25.0488-19.3359 25.5615-19.165Q26.0742-18.9941 27.0996-18.6523Q28.5156-18.2617 29.6387-18.042Q30.7617-17.8223 31.6406-17.8711Q34.9609-18.0176 37.6709-20.5566Q40.3809-23.0957 42.4561-26.709Q44.5312-30.3223 47.4609-36.4258Q50.3906-42.5781 51.9531-45.3613Q54.4434-49.6094 59.0088-53.5645Q63.5742-57.5195 69.7998-58.8623Q76.0254-60.2051 82.7637-56.5918Q89.9902-52.6855 92.4805-46.3623Q94.9707-40.0391 94.6289-34.5459Q94.2871-29.0527 93.2129-25.2441Q91.748-20.0195 86.5967-10.9863Q81.4453-1.95312 71.3379 5.83496Q61.2305 13.623 46.7773 13.1836Q30.6152 12.7441 20.9717 6.73828Q11.3281 0.732422 8.78906-6.81152Q6.25-14.3555 9.96094-18.3594ZM20.5078-8.83789Q20.5078-9.47266 20.5811-9.47266Q20.6543-9.47266 21.0938-9.0332Q22.5586-7.42188 25-5.81055Q27.4414-4.19922 32.959-2.66113Q38.4766-1.12305 47.168-0.878906Q57.0801-0.634766 64.1357-6.27441Q71.1914-11.9141 74.9023-18.6035Q78.6133-25.293 79.5898-29.0527Q80.8105-33.252 80.5176-37.5732Q80.2246-41.8945 76.0254-44.1406Q73.584-45.459 71.4111-44.9463Q69.2383-44.4336 67.4805-42.7002Q65.7227-40.9668 64.2578-38.3301Q63.1348-36.3281 60.8887-31.5918Q57.2266-23.6816 53.833-18.1641Q50.4395-12.6465 45.0195-8.37402Q39.5996-4.10156 32.2266-3.80859Q28.8086-3.66211 25.4639-4.5166Q22.1191-5.37109 19.4336-6.54297Q18.5059-7.03125 17.5781-7.4707Q17.9688-7.32422 18.9941-7.83691Q20.0195-8.34961 20.5078-8.83789ZM56.8359-51.9531Q57.959-55.3711 59.1309-56.7871Q60.2539-58.252 61.9629-59.0088Q63.6719-59.7656 65.5762-59.6191Q70.459-59.4238 74.9268-60.4248Q79.3945-61.4258 79.9805-64.6973Q80.4688-67.1875 80.2979-68.6279Q80.127-70.0684 79.4922-70.7031Q78.8574-71.3379 77.7832-71.582Q77.4414-71.6309 76.9531-71.4355Q76.4648-71.2402 75.9277-70.9961Q74.5605-70.3613 73.4375-70.0684Q72.3145-69.7754 70.9717-70.2148Q69.6289-70.6543 68.3594-72.2656Q66.7969-74.0723 66.5771-76.0254Q66.3574-77.9785 67.2363-79.5898Q68.1152-81.2012 69.7266-81.9824Q73.0957-82.9102 75.7812-83.1299Q78.4668-83.3496 81.6406-82.251Q84.8145-81.1523 88.3301-78.0273Q90.8203-75.8301 91.748-71.7285Q92.6758-67.627 92.6514-63.623Q92.627-59.6191 92.2363-54.7363L92.0898-53.1738Q92.041-52.7832 92.3584-51.9531Q92.6758-51.123 93.1641-50.0488L93.2617-49.8535L97.1191-41.5039Q98.0957-39.2578 97.3633-37.0117Q96.6309-34.7656 94.5801-33.4473Q92.3828-32.0801 90.1855-31.5918Q87.9883-31.1035 86.2793-32.4219Q85.4492-33.0078 84.79-34.5459Q84.1309-36.084 83.3496-38.4277Q83.1543-39.0137 83.0566-39.2822Q82.959-39.5508 82.7637-40.1367Q82.4707-40.0391 82.3486-40.0146Q82.2266-39.9902 81.9336-39.8926Q80.0293-39.2578 78.3936-39.0869Q76.7578-38.916 75.5371-39.7949Q74.0723-40.918 73.5352-41.9922Q72.998-43.0664 72.8027-44.3359Q72.6562-45.1172 72.5098-45.4834Q72.3633-45.8496 71.9238-46.0449Q71.4844-46.2402 68.5547-45.8984Q65.625-45.5566 62.8418-45.1172Q60.9375-44.7754 59.3018-45.7031Q57.666-46.6309 56.958-48.3887Q56.25-50.1465 56.8359-51.9531Z"/>
  </g>
  <g id="Heavy-S" transform="matrix(1 0 0 1 2583.96 696)">
   <path d="M9.73471-18.3109Q11.0161-19.6405 12.9427-20.4248Q14.8693-21.209 17.1643-21.1275Q19.4593-21.0459 21.7454-19.8039Q22.698-19.5312 23.3427-19.3203Q23.9873-19.1094 25.1885-18.6899Q26.966-18.1247 28.3344-17.8173Q29.7028-17.5099 30.8285-17.5594Q34.3993-17.7174 37.2764-20.3641Q40.1534-23.0108 42.312-26.7487Q44.4706-30.4866 47.4597-36.7333Q50.3118-42.7182 51.8573-45.4796Q54.276-49.6197 58.6743-53.4432Q63.0726-57.2666 69.0593-58.5618Q75.0459-59.8569 81.5094-56.3874Q88.4619-52.6243 90.8623-46.5103Q93.2628-40.3963 92.9268-35.0648Q92.5907-29.7332 91.5408-26.0198Q90.0996-20.8783 85.0319-11.9889Q79.9642-3.0994 70.0421 4.55161Q60.12 12.2026 45.9531 11.7753Q30.2774 11.348 20.868 5.59776Q11.4585-0.152457 8.87306-7.35616Q6.2876-14.5599 9.73471-18.3109ZM19.0031-9.9593Q18.9885-10.329 19.117-10.1362Q19.2454-9.9433 19.7413-9.36192Q21.2486-7.54681 23.895-5.75899Q26.5414-3.97118 32.1302-2.39155Q37.719-0.811914 46.2964-0.567167Q56.4718-0.311503 63.7127-6.08246Q70.9537-11.8534 74.7544-18.6754Q78.5551-25.4974 79.5777-29.3627Q80.8457-33.7177 80.4991-38.3665Q80.1524-43.0153 75.5839-45.4531Q72.8914-46.9031 70.4677-46.3364Q68.0441-45.7697 66.1074-43.8932Q64.1706-42.0166 62.6579-39.3084Q61.5124-37.2621 59.2402-32.4736Q55.6024-24.6363 52.2922-19.2321Q48.982-13.8279 43.7234-9.66283Q38.4649-5.49772 31.3429-5.21688Q27.9559-5.07039 24.6509-5.94066Q21.3459-6.81092 18.5311-8.02828Q17.5567-8.53172 16.7545-8.87899Q17.0566-8.77799 17.84-9.17848Q18.6234-9.57898 19.0031-9.9593ZM57.0888-52.1005Q58.1512-55.3383 59.2285-56.6482Q60.2776-58.0033 61.8531-58.6995Q63.4287-59.3957 65.1874-59.2613Q69.9386-59.0775 74.3136-60.0773Q78.6886-61.077 79.2775-64.3413Q79.7561-66.8054 79.5522-68.2595Q79.3482-69.7136 78.6837-70.365Q78.0192-71.0164 76.9523-71.2612Q76.5862-71.3106 76.0961-71.1323Q75.606-70.954 75.0095-70.6868Q73.7284-70.1005 72.6936-69.8421Q71.6588-69.5837 70.4416-69.9747Q69.2244-70.3656 68.0761-71.8192Q66.6471-73.4797 66.4395-75.2679Q66.2319-77.056 67.0253-78.5267Q67.8187-79.9973 69.2826-80.7167Q72.474-81.5971 75.0055-81.8044Q77.537-82.0117 80.5259-80.9664Q83.5147-79.9212 86.8284-76.9745Q89.1634-74.9088 90.0368-71.0132Q90.9103-67.1175 90.8798-63.3007Q90.8493-59.4839 90.4817-54.8231L90.3474-53.3788Q90.2986-52.9597 90.6047-52.1454Q90.9109-51.3311 91.4131-50.2381L91.4992-50.0664L95.1947-42.0631Q96.0864-40.0111 95.4149-37.9433Q94.7434-35.8755 92.8637-34.6669Q90.8132-33.3968 88.7845-32.9379Q86.7559-32.4791 85.1949-33.6749Q84.46-34.1899 83.8606-35.597Q83.2611-37.004 82.5411-39.1537Q82.3198-39.8312 82.1678-40.2253Q82.0159-40.6194 81.803-41.1156Q81.5276-41.0562 81.3152-41.0139Q81.1027-40.9715 80.7455-40.8593Q78.9528-40.2834 77.4729-40.1243Q75.993-39.9653 74.9142-40.7483Q73.6162-41.7404 73.127-42.72Q72.6378-43.6996 72.4212-44.917Q72.2505-45.7261 72.0719-46.1314Q71.8932-46.5368 71.4119-46.7588Q70.944-46.9686 68.1022-46.6499Q65.2605-46.3311 62.5416-45.9026Q60.8095-45.5863 59.3272-46.4279Q57.8449-47.2695 57.1988-48.8617Q56.5526-50.454 57.0888-52.1005Z"/>
  </g>
  <g id="Bold-S" transform="matrix(1 0 0 1 2288.35 696)">
   <path d="M9.48165-18.2566Q10.5032-19.3257 12.0451-20.0041Q13.5871-20.6826 15.4451-20.7282Q17.3031-20.7738 19.1972-19.945Q20.0684-19.7497 20.8605-19.494Q21.6527-19.2383 23.0507-18.732Q25.2326-17.9713 26.8754-17.5659Q28.5182-17.1605 29.9201-17.2106Q33.7711-17.3815 36.835-20.1487Q39.899-22.9158 42.1509-26.7931Q44.4028-30.6705 47.4584-37.0773Q50.2236-42.8749 51.7501-45.6119Q54.0887-49.6312 58.3001-53.3075Q62.5116-56.9837 68.2309-58.2256Q73.9502-59.4675 80.1064-56.1588Q86.7522-52.5558 89.0522-46.6758Q91.3523-40.7959 91.0227-35.6452Q90.6931-30.4944 89.6703-26.8876Q88.2556-21.839 83.2815-13.1104Q78.3075-4.38168 68.5926 3.11601Q58.8777 10.6137 45.0311 10.1999Q29.8995 9.78618 20.752 4.32193Q11.6044-1.14232 8.96703-7.96541Q6.32967-14.7885 9.48165-18.2566ZM17.3198-11.2138Q17.289-11.287 17.4792-10.8784Q17.6694-10.4698 18.2283-9.72965Q19.7831-7.68657 22.6588-5.70133Q25.5345-3.71608 31.2031-2.08997Q36.8717-0.463867 45.3215-0.218442Q55.7913 0.0501131 63.2395-5.86773Q70.6877-11.7856 74.5888-18.7558Q78.4899-25.726 79.5641-29.7093Q80.8851-34.2388 80.4784-39.254Q80.0717-44.2691 75.0899-46.9213Q72.1166-48.5185 69.4124-47.8914Q66.7082-47.2643 64.5713-45.2277Q62.4345-43.191 60.8681-40.4027Q59.6975-38.3069 57.3962-33.4601Q53.7855-25.7042 50.5686-20.4269Q47.3517-15.1496 42.2736-11.1045Q37.1955-7.05952 30.3544-6.79225Q27.002-6.64576 23.7414-7.53367Q20.4808-8.42157 17.5216-9.68981Q16.4949-10.2102 15.8332-10.4544Q16.0362-10.4042 16.5489-10.6792Q17.0616-10.9542 17.3198-11.2138ZM57.3718-52.2654Q58.3663-55.3017 59.3377-56.4929Q60.304-57.7251 61.7303-58.3535Q63.1566-58.9818 64.7525-58.861Q69.3565-58.6901 73.6277-59.6885Q77.8988-60.6869 78.4912-63.943Q78.9589-66.378 78.718-67.8473Q78.4771-69.3167 77.7793-69.9868Q77.0816-70.6569 76.0228-70.9023Q75.6296-70.9524 75.1375-70.7931Q74.6454-70.6337 73.9823-70.3408Q72.7976-69.8088 71.8615-69.5891Q70.9254-69.3693 69.8486-69.706Q68.7718-70.0427 67.7593-71.3199Q66.4795-72.8169 66.2855-74.4205Q66.0914-76.0241 66.7892-77.3373Q67.4869-78.6505 68.786-79.3007Q71.7786-80.1282 74.1378-80.3216Q76.497-80.515 79.2789-79.5295Q82.0608-78.5439 85.1485-75.7967Q87.3098-73.8782 88.1226-70.2129Q88.9353-66.5476 88.898-62.9401Q88.8608-59.3326 88.519-54.9201L88.3982-53.6081Q88.3494-53.1571 88.643-52.3605Q88.9366-51.5638 89.4544-50.4497L89.5277-50.3045L93.042-42.6886Q93.8387-40.8537 93.2354-38.9854Q92.6321-37.1171 90.9437-36.0313Q89.0574-34.8697 87.2173-34.4437Q85.3773-34.0178 83.9818-35.0766Q83.3535-35.5122 82.8209-36.7727Q82.2882-38.0333 81.6368-39.9658Q81.3862-40.7458 81.1735-41.2803Q80.9609-41.8149 80.7283-42.2106Q80.4726-42.1939 80.1591-42.1316Q79.8455-42.0693 79.4164-41.9408Q77.7485-41.4307 76.443-41.2848Q75.1375-41.139 74.2175-41.8149Q73.106-42.6604 72.6704-43.5341Q72.2348-44.4079 71.9945-45.5669Q71.7966-46.4073 71.582-46.8564Q71.3674-47.3055 70.8393-47.5573Q70.3395-47.7835 67.5961-47.4905Q64.8527-47.1975 62.2057-46.7812Q60.6664-46.4934 59.3557-47.2386Q58.0451-47.9839 57.4681-49.3909Q56.8912-50.798 57.3718-52.2654Z"/>
  </g>
  <g id="Semibold-S" transform="matrix(1 0 0 1 1992.39 696)">
   <path d="M9.30719-18.2192Q10.1496-19.1086 11.4263-19.7141Q12.7031-20.3196 14.2599-20.4529Q15.8167-20.5862 17.4404-20.0423Q18.2555-19.9003 19.1494-19.6137Q20.0433-19.3271 21.5769-18.761Q24.0375-17.8656 25.8695-17.3926Q27.7016-16.9196 29.2938-16.9702Q33.338-17.15 36.5308-20.0002Q39.7236-22.8503 42.0398-26.8238Q44.356-30.7972 47.4574-37.3144Q50.1628-42.983 51.6762-45.7031Q53.9596-49.6392 58.0422-53.2139Q62.1248-56.7887 67.6598-57.9939Q73.1948-59.199 79.1391-56.0011Q85.5735-52.5085 87.8043-46.79Q90.0352-41.0714 89.71-36.0453Q89.3849-31.0192 88.3808-27.4858Q86.9843-22.5013 82.0748-13.8835Q77.1653-5.26568 67.5933 2.12631Q58.0213 9.51829 44.3955 9.11389Q29.639 8.70949 20.672 3.44238Q11.7049-1.82473 9.03181-8.38542Q6.35867-14.9461 9.30719-18.2192ZM16.1594-12.0786Q16.1174-11.9474 16.3501-11.3901Q16.5828-10.8327 17.1853-9.98315Q18.7728-7.78293 21.8066-5.66157Q24.8404-3.54021 30.564-1.88207Q36.2875-0.223926 44.6494 0.0219675Q55.3221 0.299409 62.9133-5.71969Q70.5044-11.7388 74.4747-18.8112Q78.445-25.8836 79.5548-29.9484Q80.9122-34.598 80.4641-39.8657Q80.016-45.1335 74.7494-47.9334Q71.5824-49.6321 68.6849-48.9634Q65.7873-48.2947 63.5124-46.1477Q61.2376-44.0007 59.6343-41.1571Q58.4464-39.0272 56.1249-34.1402Q52.5329-26.4403 49.3803-21.2505Q46.2278-16.0607 41.2741-12.0985Q36.3204-8.13622 29.6729-7.8783Q26.3443-7.73182 23.1144-8.63188Q19.8845-9.53194 16.8256-10.8353Q15.7629-11.3674 15.198-11.5404Q15.3327-11.5254 15.6588-11.7138Q15.9849-11.9023 16.1594-12.0786ZM57.5668-52.379Q58.5146-55.2764 59.413-56.3857Q60.3223-57.5334 61.6457-58.1149Q62.9691-58.6965 64.4527-58.5851Q68.9552-58.4231 73.1548-59.4205Q77.3544-60.418 77.9491-63.6684Q78.4094-66.0833 78.1429-67.5632Q77.8765-69.043 77.1559-69.726Q76.4352-70.409 75.382-70.6549Q74.9701-70.7054 74.4766-70.5592Q73.9831-70.413 73.2742-70.1022Q72.1559-69.6077 71.2878-69.4146Q70.4198-69.2215 69.4398-69.5208Q68.4599-69.82 67.5409-70.9757Q66.364-72.3599 66.1793-73.8363Q65.9946-75.3127 66.6264-76.5174Q67.2582-77.7221 68.4436-78.3246Q71.2992-79.1156 73.5396-79.2994Q75.7799-79.4832 78.4192-78.5388Q81.0585-77.5944 83.9905-74.9847Q86.032-73.1678 86.8029-69.6612Q87.5738-66.1547 87.5318-62.6915Q87.4899-59.2283 87.1658-54.987L87.0544-53.7662Q87.0056-53.2932 87.2905-52.5087Q87.5755-51.7242 88.1041-50.5957L88.1685-50.4687L91.5579-43.1199Q92.2891-41.4346 91.7328-39.7038Q91.1765-37.973 89.62-36.9719Q87.8469-35.8851 86.1369-35.4819Q84.4269-35.0786 83.1455-36.0429Q82.5906-36.4238 82.1041-37.5833Q81.6175-38.7428 81.0133-40.5257Q80.7426-41.3763 80.4881-42.0076Q80.2336-42.639 79.9874-42.9655Q79.7453-42.9783 79.3621-42.9022Q78.9789-42.8261 78.5001-42.6863Q76.9183-42.2216 75.733-42.0849Q74.5477-41.9481 73.7371-42.5501Q72.7543-43.2946 72.3556-44.0954Q71.957-44.8962 71.7003-46.015Q71.4837-46.8769 71.2443-47.3561Q71.005-47.8354 70.4446-48.1078Q69.9227-48.3452 67.2472-48.07Q64.5716-47.7948 61.9742-47.3869Q60.5677-47.1187 59.3754-47.7976Q58.1831-48.4764 57.6538-49.7558Q57.1246-51.0351 57.5668-52.379Z"/>
  </g>
  <g id="Medium-S" transform="matrix(1 0 0 1 1696.25 696)">
   <path d="M9.17491-18.1908Q9.88148-18.9441 10.9571-19.4942Q12.0328-20.0444 13.3612-20.2442Q14.6897-20.444 16.1083-20.1161Q16.8809-20.0145 17.8519-19.7045Q18.8229-19.3945 20.4594-18.783Q23.1314-17.7855 25.1069-17.2612Q27.0823-16.737 28.8189-16.7879Q33.0096-16.9745 36.3001-19.8876Q39.5906-22.8007 41.9556-26.847Q44.3205-30.8933 47.4567-37.4942Q50.1167-43.0649 51.6202-45.7723Q53.8617-49.6452 57.8466-53.143Q61.8315-56.6408 67.2268-57.8181Q72.6221-58.9955 78.4057-55.8816Q84.6798-52.4727 86.8581-46.8765Q89.0365-41.2803 88.7147-36.3487Q88.3929-31.4171 87.403-27.9394Q86.0204-23.0035 81.1598-14.4697Q76.2992-5.93596 66.8356 1.37587Q57.372 8.68771 43.9135 8.2904Q29.4415 7.89309 20.6113 2.77547Q11.7812-2.34216 9.08093-8.7039Q6.38065-15.0656 9.17491-18.1908ZM15.2796-12.7343Q15.229-12.4482 15.494-11.7781Q15.759-11.1079 16.3944-10.1754Q18.0068-7.85598 21.1605-5.63142Q24.3141-3.40687 30.0793-1.72443Q35.8445-0.0419922 44.1398 0.204256Q54.9664 0.488435 62.6659-5.60745Q70.3653-11.7033 74.3882-18.8532Q78.411-26.0031 79.5477-30.1296Q80.9328-34.8704 80.4533-40.3296Q79.9738-45.7889 74.4913-48.7009Q71.1774-50.4765 68.1332-49.7763Q65.089-49.076 62.7095-46.8453Q60.33-44.6146 58.6987-41.7292Q57.4977-39.5734 55.161-34.6558Q51.5832-26.9986 48.4794-21.8751Q45.3756-16.7515 40.5162-12.8521Q35.6568-8.95261 29.1562-8.70179Q25.8457-8.5553 22.639-9.46459Q19.4323-10.3739 16.2979-11.7038Q15.2079-12.2448 14.7164-12.3639Q14.7993-12.3755 14.9839-12.4983Q15.1685-12.6211 15.2796-12.7343ZM57.7147-52.4652Q58.627-55.2573 59.4701-56.3045Q60.3361-57.388 61.5815-57.9341Q62.8268-58.4802 64.2254-58.3758Q68.6509-58.2205 72.7963-59.2173Q76.9416-60.2141 77.5381-63.4603Q77.9927-65.8599 77.7069-67.3477Q77.4212-68.8356 76.6831-69.5283Q75.9451-70.221 74.8962-70.4673Q74.4701-70.5182 73.9755-70.3819Q73.4809-70.2456 72.7373-69.9214Q71.6693-69.4552 70.8529-69.2823Q70.0364-69.1095 69.1299-69.3803Q68.2233-69.6512 67.3753-70.7146Q66.2764-72.0134 66.0988-73.3933Q65.9212-74.7733 66.503-75.8957Q67.0848-77.0181 68.184-77.5844Q70.9357-78.3478 73.086-78.5243Q75.2363-78.7009 77.7674-77.7877Q80.2985-76.8745 83.1124-74.369Q85.0631-72.6291 85.8022-69.2429Q86.5414-65.8568 86.4959-62.503Q86.4504-59.1492 86.1399-55.0377L86.0355-53.8861Q85.9867-53.3964 86.2651-52.6211Q86.5435-51.8459 87.0802-50.7063L87.1378-50.5932L90.4326-43.4469Q91.1142-41.8751 90.5935-40.2486Q90.0729-38.622 88.6164-37.6851Q86.9291-36.6551 85.3176-36.269Q83.7062-35.8829 82.5114-36.7756Q82.0122-37.115 81.5606-38.1979Q81.109-39.2808 80.5406-40.9502Q80.2546-41.8543 79.9684-42.5591Q79.6821-43.2639 79.4257-43.5379Q79.1938-43.573 78.7578-43.4865Q78.3217-43.3999 77.8054-43.2516Q76.2888-42.8213 75.1946-42.6915Q74.1005-42.5617 73.3729-43.1076Q72.4876-43.7755 72.1169-44.521Q71.7463-45.2664 71.4772-46.3547Q71.2465-47.2329 70.9883-47.7351Q70.7301-48.2372 70.1453-48.5252Q69.6068-48.7711 66.9826-48.5094Q64.3585-48.2477 61.7987-47.8462Q60.4929-47.5929 59.3903-48.2214Q58.2877-48.8499 57.7946-50.0324Q57.3016-51.2149 57.7147-52.4652Z"/>
  </g>
  <g id="Regular-S" transform="matrix(1 0 0 1 1400.29 696)">
   <path d="M9.00236-18.1538Q9.53176-18.7294 10.3451-19.2074Q11.1585-19.6854 12.189-19.972Q13.2196-20.2585 14.3709-20.2123Q15.0879-20.1634 16.1595-19.8229Q17.2312-19.4824 19.0019-18.8117Q21.9495-17.6809 24.1121-17.0898Q26.2747-16.4988 28.1995-16.5502Q32.5812-16.7455 35.9992-19.7407Q39.4171-22.7359 41.8457-26.8773Q44.2743-31.0187 47.4558-37.7287Q50.0565-43.1718 51.5471-45.8625Q53.7341-49.6531 57.5915-53.0505Q61.4489-56.4479 66.662-57.5889Q71.875-58.73 77.4491-55.7257Q83.5141-52.426 85.624-46.9894Q87.7339-41.5527 87.4165-36.7444Q87.0991-31.9362 86.1277-28.531Q84.7631-23.6585 79.9663-15.2344Q75.1696-6.81024 65.8473 0.39705Q56.525 7.60434 43.2848 7.21628Q29.1838 6.82823 20.5322 1.90558Q11.8807-3.01706 9.14499-9.11929Q6.40933-15.2215 9.00236-18.1538ZM14.1319-13.5896Q14.0702-13.1014 14.3773-12.2841Q14.6844-11.4669 15.3629-10.4261Q17.0076-7.95127 20.3176-5.59211Q23.6277-3.23294 29.4472-1.51881Q35.2668 0.195312 43.475 0.442023Q54.5025 0.734992 62.3432-5.46104Q70.184-11.6571 74.2753-18.908Q78.3666-26.159 79.5384-30.366Q80.9596-35.2256 80.4392-40.9347Q79.9188-46.6437 74.1545-49.7019Q70.6492-51.5779 67.4137-50.8365Q64.1781-50.0951 61.6622-47.7552Q59.1463-45.4153 57.4784-42.4753Q56.2603-40.2858 53.9037-35.3284Q50.3444-27.7267 47.3042-22.6897Q44.264-17.6527 39.5277-13.8351Q34.7913-10.0175 28.4822-9.7759Q25.1953-9.62942 22.0189-10.5507Q18.8425-11.472 15.6096-12.8367Q14.484-13.3892 14.0882-13.438Q14.1036-13.4843 14.1036-13.5215Q14.1036-13.5588 14.1319-13.5896ZM57.9076-52.5776Q58.7736-55.2323 59.5446-56.1986Q60.3541-57.1983 61.4977-57.6981Q62.6413-58.198 63.9289-58.1029Q68.254-57.9564 72.3286-58.9523Q76.4032-59.9481 77.002-63.1887Q77.4491-65.5685 77.1382-67.0667Q76.8272-68.565 76.0665-69.2704Q75.3058-69.9758 74.2624-70.2226Q73.8178-70.274 73.3219-70.1506Q72.8259-70.0272 72.0369-69.6854Q71.0346-69.2563 70.2855-69.1098Q69.5364-68.9633 68.7256-69.1972Q67.9148-69.431 67.1592-70.3742Q66.1621-71.5615 65.9938-72.8156Q65.8255-74.0697 66.342-75.0848Q66.8586-76.0999 67.8454-76.619Q70.4616-77.3463 72.4943-77.5134Q74.5271-77.6804 76.9171-76.8079Q79.3072-75.9354 81.967-73.566Q83.7993-71.9264 84.4971-68.6973Q85.1948-65.4682 85.1447-62.2571Q85.0946-59.0461 84.8016-55.1038L84.7065-54.0425Q84.6577-53.531 84.9275-52.7678Q85.1974-52.0045 85.7448-50.8506L85.7936-50.7556L88.9648-43.8734Q89.5816-42.4496 89.1075-40.9591Q88.6333-39.4685 87.3073-38.6153Q85.7319-37.6593 84.2491-37.2957Q82.7662-36.9321 81.6843-37.7313Q81.2577-38.0166 80.8517-38.9995Q80.4456-39.9825 79.9239-41.5039Q79.6181-42.4779 79.2905-43.2784Q78.9628-44.0789 78.6929-44.2845Q78.4745-44.3488 77.9695-44.2486Q77.4645-44.1483 76.8992-43.989Q75.4677-43.6035 74.4924-43.4827Q73.5172-43.3619 72.8978-43.8348Q72.1397-44.4028 71.8056-45.0761Q71.4715-45.7494 71.1863-46.7979Q70.937-47.6974 70.6543-48.2293Q70.3716-48.7613 69.7548-49.0697Q69.1946-49.3267 66.6375-49.0825Q64.0805-48.8384 61.5697-48.4452Q60.3953-48.2113 59.4097-48.7742Q58.4241-49.337 57.9783-50.3932Q57.5324-51.4494 57.9076-52.5776Z"/>
  </g>
  <g id="Light-S" transform="matrix(1 0 0 1 1104.31 696)">
   <path d="M8.82646-17.5381Q9.31188-18.0551 10.03-18.4745Q10.7481-18.8939 11.6687-19.1438Q12.5892-19.3937 13.6233-19.3621Q14.2523-19.3132 15.3093-18.9801Q16.3663-18.6469 17.9318-18.0494Q20.9821-16.8747 23.2252-16.2543Q25.4684-15.6339 27.5106-15.7Q32.0975-15.8953 35.6547-18.9858Q39.2119-22.0763 41.7064-26.3056Q44.201-30.535 47.4265-37.3623Q50.1005-42.9372 51.4591-45.3787Q53.5875-49.0667 57.3056-52.3469Q61.0238-55.627 66.0316-56.7314Q71.0395-57.8358 76.379-54.9635Q82.2241-51.781 84.2534-46.5276Q86.2826-41.2742 85.9653-36.6125Q85.6479-31.9508 84.7058-28.619Q83.3558-23.8051 78.6324-15.5129Q73.909-7.22068 64.7479-0.123335Q55.5868 6.97401 42.5812 6.60062Q28.8173 6.22722 20.393 1.49514Q11.9686-3.23694 9.22562-9.05333Q6.48263-14.8697 8.82646-17.5381ZM12.8566-13.9561Q12.7216-13.4678 12.9701-12.5846Q13.2185-11.7014 13.8677-10.5727Q15.4245-7.9073 18.8151-5.32092Q22.2058-2.73454 28.2159-0.85184Q34.226 1.03086 42.7421 1.29223Q54.0041 1.5852 62.0061-4.72078Q70.0081-11.0267 74.18-18.417Q78.3519-25.8072 79.5238-30.0581Q80.9743-35.0644 80.4099-41.03Q79.8455-46.9955 73.788-50.2296Q70.0628-52.2229 66.6148-51.4302Q63.1667-50.6375 60.5042-48.1803Q57.8417-45.7231 56.1298-42.7245Q54.9263-40.5789 52.4964-35.475Q48.9664-27.9612 45.9922-23.0195Q43.018-18.0778 38.4209-14.3481Q33.8238-10.6185 27.7346-10.3916Q24.6383-10.2451 21.5865-11.1297Q18.5347-12.0144 15.2431-13.3644Q13.8243-14.0049 13.3992-14.0537Q13.2241-14.0853 13.0848-14.0566Q12.9456-14.0279 12.8566-13.9561ZM57.8929-52.2405Q58.6857-54.7193 59.398-55.6269Q60.0903-56.48 61.0726-56.9066Q62.055-57.3331 63.1666-57.2527Q67.653-57.1062 71.9914-58.212Q76.3299-59.3178 77.002-62.9395Q77.4931-65.5245 77.0795-67.2133Q76.666-68.9021 75.744-69.7322Q74.8221-70.5622 73.6761-70.8236Q73.2022-70.8896 72.6622-70.7589Q72.1222-70.6282 71.2893-70.2865Q70.419-69.9159 69.7138-69.7694Q69.0087-69.6229 68.3078-69.7982Q67.6069-69.9734 66.998-70.726Q66.1621-71.7227 66.0084-72.7496Q65.8548-73.7765 66.2541-74.5937Q66.6533-75.411 67.4203-75.8275Q69.9192-76.5254 71.8494-76.6705Q73.7795-76.8155 76.0156-75.9797Q78.2517-75.1439 80.765-72.9064Q82.4654-71.384 83.1045-68.2576Q83.7436-65.1311 83.6861-61.986Q83.6287-58.8408 83.3357-54.9719L83.2553-53.9838Q83.2065-53.3405 83.4836-52.5406Q83.7608-51.7407 84.3668-50.4109L84.4157-50.3304L87.5723-43.4629Q88.0864-42.2737 87.6929-41.0544Q87.2994-39.835 86.2079-39.1284Q84.8377-38.2897 83.5308-37.9407Q82.2239-37.5917 81.3765-38.215Q81.0232-38.4563 80.6684-39.3367Q80.3137-40.2171 79.88-41.5039Q79.5008-42.7418 79.1145-43.6522Q78.7282-44.5627 78.3118-44.8269Q77.9615-44.9791 77.3612-44.8642Q76.7609-44.7493 76.0343-44.5167Q74.7934-44.1605 73.9647-44.0471Q73.136-43.9336 72.6046-44.3185Q71.9785-44.7839 71.6883-45.3986Q71.3982-46.0132 71.1569-46.9152Q70.8784-47.9319 70.515-48.5738Q70.1517-49.2157 69.359-49.6121Q68.6669-49.9424 66.0072-49.6982Q63.3476-49.4541 60.7195-49.0462Q59.8089-48.871 59.0506-49.3019Q58.2922-49.7328 57.9489-50.5471Q57.6057-51.3615 57.8929-52.2405Z"/>
  </g>
  <g id="Thin-S" transform="matrix(1 0 0 1 808.57 696)">
   <path d="M8.59381-16.7238Q9.02107-17.1633 9.61315-17.5051Q10.2052-17.847 10.9804-18.0484Q11.7556-18.2498 12.6345-18.2376Q13.1473-18.1888 14.1849-17.8653Q15.2225-17.5418 16.5165-17.0413Q19.7025-15.8084 22.0523-15.1492Q24.4021-14.49 26.5994-14.5755Q31.4577-14.7708 35.1991-17.9873Q38.9405-21.2038 41.5223-25.5495Q44.104-29.8952 47.3877-36.8776Q50.1587-42.627 51.3428-44.7389Q53.3936-48.2912 56.9276-51.4163Q60.4616-54.5413 65.198-55.5972Q69.9344-56.6531 74.9638-53.9553Q80.518-50.928 82.4407-45.9169Q84.3633-40.9059 84.0459-36.438Q83.7285-31.9702 82.8252-28.7353Q81.4946-23.999 76.8681-15.8812Q72.2417-7.76353 63.2938-0.811585Q54.346 6.14036 41.6506 5.78635Q28.3326 5.43234 20.2088 0.952292Q12.0849-3.52775 9.33225-8.96609Q6.57956-14.4044 8.59381-16.7238ZM11.1699-14.4408Q10.938-13.9525 11.1089-12.9821Q11.2798-12.0116 11.8902-10.7666Q13.3306-7.84914 16.8279-4.96225Q20.3252-2.07537 26.5873 0.0302837Q32.8495 2.13594 41.7727 2.41669Q53.3449 2.70966 61.5602-3.74171Q69.7755-10.1931 74.054-17.7675Q78.3325-25.3419 79.5044-29.651Q80.9936-34.8511 80.3711-41.156Q79.7486-47.4608 73.3034-50.9275Q69.2873-53.0759 65.5581-52.2154Q61.829-51.3548 58.9726-48.7425Q56.1162-46.1303 54.3462-43.0541Q53.1621-40.9667 50.6353-35.6689Q47.144-28.2714 44.2571-23.4557Q41.3701-18.64 36.9572-15.0267Q32.5443-11.4134 26.7459-11.2058Q23.9016-11.0594 21.0146-11.8955Q18.1275-12.7317 14.7584-14.0623Q12.9519-14.8191 12.488-14.8679Q12.0609-14.8802 11.7374-14.7642Q11.414-14.6483 11.1699-14.4408ZM57.8735-51.7946Q58.5694-54.0407 59.2042-54.8708Q59.7413-55.53 60.5104-55.8597Q61.2795-56.1893 62.1585-56.1282Q66.8581-55.9817 71.5455-57.2329Q76.2329-58.4841 77.002-62.61Q77.5513-65.4663 77.002-67.4072Q76.4527-69.348 75.3175-70.3429Q74.1823-71.3377 72.9006-71.6184Q72.3879-71.7039 71.7898-71.5635Q71.1917-71.4231 70.3006-71.0813Q69.6047-70.7883 68.9577-70.6419Q68.3107-70.4954 67.7553-70.5931Q67.1998-70.6907 66.7847-71.1913Q66.1621-71.936 66.0278-72.6624Q65.8935-73.3888 66.1377-73.9443Q66.3819-74.4998 66.8581-74.7806Q69.2019-75.4397 70.9963-75.5557Q72.7908-75.6717 74.8233-74.8843Q76.8558-74.097 79.1752-72.0339Q80.7012-70.6667 81.2627-67.6759Q81.8242-64.6852 81.7571-61.6273Q81.69-58.5694 81.397-54.7974L81.336-53.9063Q81.2871-53.0884 81.574-52.2401Q81.8609-51.3917 82.5444-49.8293L82.5933-49.7682L85.7305-42.9201Q86.1089-42.0411 85.822-41.1804Q85.5351-40.3197 84.7538-39.8069Q83.6551-39.1233 82.5808-38.7937Q81.5065-38.4641 80.9693-38.8548Q80.713-39.0379 80.4261-39.7826Q80.1392-40.5273 79.8218-41.5039Q79.3457-43.0907 78.8819-44.1466Q78.4181-45.2025 77.8078-45.5442Q77.2829-45.8128 76.5566-45.6785Q75.8303-45.5442 74.8904-45.2147Q73.9016-44.8973 73.2668-44.7935Q72.632-44.6897 72.2169-44.9583Q71.7652-45.288 71.5332-45.8251Q71.3013-46.3622 71.1182-47.0703Q70.8008-48.2421 70.3309-49.0294Q69.8609-49.8167 68.8356-50.3294Q67.9689-50.7566 65.1736-50.5125Q62.3782-50.2683 59.595-49.8411Q59.0334-49.7434 58.5756-49.9998Q58.1177-50.2562 57.9102-50.7507Q57.7026-51.2451 57.8735-51.7946Z"/>
  </g>
  <g id="Ultralight-S" transform="matrix(1 0 0 1 512.356 696)">
   <path d="M8.47465-16.3068Q8.87212-16.7065 9.39965-17.0086Q9.92718-17.3107 10.6279-17.4873Q11.3286-17.6639 12.1281-17.6617Q12.5813-17.6128 13.6089-17.2943Q14.6366-16.9758 15.7916-16.5249Q19.0471-15.2622 21.4515-14.5832Q23.856-13.9042 26.1326-13.9995Q31.13-14.1949 34.9657-17.4759Q38.8015-20.757 41.4279-25.1622Q44.0544-29.5675 47.3678-36.6293Q50.1885-42.4682 51.2832-44.4112Q53.2943-47.894 56.734-50.9396Q60.1736-53.9852 64.771-55.0163Q69.3684-56.0474 74.2389-53.439Q79.6442-50.491 81.5122-45.6041Q83.3802-40.7172 83.0628-36.3487Q82.7455-31.9801 81.862-28.7949Q80.5413-24.0983 75.9645-16.0699Q71.3877-8.04157 62.5491-1.1641Q53.7105 5.71336 41.174 5.36928Q28.0844 5.02521 20.1145 0.67425Q12.1445-3.67671 9.38686-8.9214Q6.62921-14.1661 8.47465-16.3068ZM10.306-14.689Q10.0244-14.2008 10.1556-13.1856Q10.2868-12.1705 10.8773-10.8659Q12.2582-7.81935 15.8101-4.77855Q19.362-1.73775 25.7532 0.482103Q32.1444 2.70195 41.2762 2.99264Q53.0073 3.28561 61.3318-3.24024Q69.6563-9.7661 73.9894-17.4348Q78.3226-25.1036 79.4945-29.4425Q81.0036-34.7419 80.3512-41.2205Q79.6989-47.6991 73.0551-51.285Q68.8901-53.5129 65.017-52.6175Q61.1438-51.7222 58.1881-49.0305Q55.2324-46.3388 53.4326-43.2229Q52.2584-41.1653 49.682-35.7682Q46.2106-28.4303 43.3683-23.6791Q40.526-18.928 36.2075-15.3742Q31.8889-11.8205 26.2394-11.6229Q23.5242-11.4764 20.7216-12.2878Q17.919-13.0992 14.5102-14.4198Q12.505-15.2362 12.0213-15.285Q11.465-15.2873 11.0473-15.1267Q10.6295-14.966 10.306-14.689ZM57.8636-51.5662Q58.5098-53.6932 59.1049-54.4835Q59.5626-55.0435 60.2224-55.3234Q60.8823-55.6034 61.6421-55.5523Q66.451-55.4058 71.3171-56.7315Q76.1833-58.0571 77.002-62.4411Q77.581-65.4365 76.9623-67.5065Q76.3435-69.5764 75.099-70.6557Q73.8546-71.7349 72.5034-72.0256Q71.9708-72.1209 71.3429-71.9756Q70.715-71.8303 69.7941-71.4885Q69.1876-71.2352 68.5704-71.0887Q67.9532-70.9422 67.4723-71.0002Q66.9913-71.0581 66.6755-71.4296Q66.1621-72.0452 66.0378-72.6177Q65.9134-73.1902 66.0781-73.6116Q66.2429-74.033 66.5701-74.2443Q68.8344-74.8837 70.5594-74.9847Q72.2844-75.0858 74.2126-74.3233Q76.1409-73.5607 78.361-71.5871Q79.7975-70.2993 80.3193-67.378Q80.8412-64.4568 80.7691-61.4436Q80.697-58.4304 80.404-54.708L80.3529-53.8666Q80.3041-52.9594 80.5959-52.0862Q80.8877-51.213 81.611-49.5314L81.6598-49.4802L84.7871-42.642Q85.0961-41.9219 84.8638-41.2449Q84.6315-40.5679 84.009-40.1545Q83.0494-39.5503 82.0942-39.2306Q81.1391-38.911 80.7608-39.1825Q80.5541-39.3358 80.302-40.011Q80.0498-40.6861 79.792-41.5039Q79.2663-43.2695 78.7627-44.3998Q78.2592-45.5302 77.5496-45.9117Q76.9353-46.2398 76.1445-46.0956Q75.3537-45.9514 74.3046-45.5721Q73.4448-45.2746 72.9093-45.1758Q72.3738-45.077 72.0183-45.286Q71.656-45.5461 71.4538-46.0435Q71.2516-46.541 71.0983-47.1497Q70.7611-48.401 70.2365-49.2628Q69.712-50.1246 68.5675-50.6968Q67.6115-51.1737 64.7466-50.9295Q61.8817-50.6854 59.0191-50.2482Q58.6362-50.1903 58.3323-50.3573Q58.0284-50.5243 57.8903-50.8549Q57.7523-51.1856 57.8636-51.5662Z"/>
  </g>
 </g>
</svg>
